<?xml version="1.0" standalone="no"?>
<!DOCTYPE svg PUBLIC "-//W3C//DTD SVG 20010904//EN"
 "http://www.w3.org/TR/2001/REC-SVG-20010904/DTD/svg10.dtd">
<svg version="1.0" xmlns="http://www.w3.org/2000/svg"
 width="1290.000000pt" height="542.000000pt" viewBox="0 0 1290.000000 542.000000"
 preserveAspectRatio="xMidYMid meet">

<g transform="translate(0.000000,542.000000) scale(0.100000,-0.100000)"
fill="#000000" stroke="none">
<path d="M3345 5170 c-66 -27 -95 -125 -55 -188 37 -59 121 -76 178 -37 21 16
21 16 2 35 -11 11 -20 24 -20 29 0 6 -12 4 -26 -4 -64 -33 -119 52 -59 91 22
14 30 15 52 5 24 -11 29 -10 45 11 21 28 19 39 -13 55 -27 14 -74 16 -104 3z"/>
<path d="M5414 5143 c2 -16 8 -63 11 -105 l7 -78 39 -11 c30 -9 48 -9 78 0 43
13 43 12 56 154 l7 67 -102 0 -102 0 6 -27z m166 -28 c0 -11 -12 -15 -50 -15
-27 0 -50 -4 -50 -10 0 -5 20 -10 45 -10 l45 0 0 -40 c0 -34 -4 -42 -25 -50
-35 -13 -82 -2 -88 21 -7 26 10 34 29 15 18 -18 17 -18 38 -10 9 3 16 12 16
20 0 10 -13 14 -45 14 l-45 0 0 40 0 40 65 0 c51 0 65 -3 65 -15z"/>
<path d="M6694 5093 c3 -42 6 -88 6 -103 0 -24 6 -29 45 -40 67 -19 125 -1
125 39 0 15 3 62 6 104 l7 77 -98 0 -98 0 7 -77z m156 23 c0 -8 -10 -18 -22
-22 -23 -7 -23 -7 -2 -15 18 -6 20 -13 15 -45 -5 -29 -12 -39 -32 -46 -35 -12
-79 6 -79 32 0 24 15 26 36 5 16 -16 44 -10 44 10 0 9 -15 15 -42 17 -47 3
-53 16 -17 35 l24 13 -27 0 c-18 0 -28 5 -28 15 0 12 14 15 65 15 50 0 65 -3
65 -14z"/>
<path d="M7731 5156 c-8 -9 -11 -47 -9 -112 l3 -99 113 -3 113 -3 -3 113 -3
113 -101 3 c-78 2 -104 -1 -113 -12z m119 -145 c0 -28 -5 -53 -11 -56 -14 -9
-59 3 -59 16 0 6 9 9 20 6 18 -5 20 0 20 39 0 32 4 44 15 44 11 0 15 -12 15
-49z m77 37 c-2 -7 -13 -12 -23 -10 -15 2 -13 -2 9 -19 15 -11 27 -29 27 -39
0 -21 -31 -34 -60 -25 -29 9 -25 28 5 21 30 -8 33 9 5 24 -12 6 -20 21 -20 35
0 21 5 25 31 25 20 0 29 -4 26 -12z"/>
<path d="M4550 5125 c-18 -19 -32 -36 -29 -38 2 -2 19 14 38 35 42 48 36 50
-9 3z"/>
<path d="M8990 5136 c0 -9 5 -16 10 -16 6 0 10 4 10 9 0 6 -4 13 -10 16 -5 3
-10 -1 -10 -9z"/>
<path d="M3609 5121 c-20 -16 -24 -28 -24 -76 0 -48 4 -60 24 -76 13 -10 33
-19 45 -19 27 0 66 27 66 46 0 20 -13 17 -28 -6 -29 -46 -92 -9 -92 55 0 64
63 101 92 55 15 -23 28 -26 28 -6 0 19 -39 46 -66 46 -12 0 -32 -9 -45 -19z"/>
<path d="M3791 5048 c-46 -124 -46 -125 -34 -113 6 6 25 48 43 95 18 47 35 91
37 98 3 6 1 12 -4 12 -5 0 -24 -42 -42 -92z"/>
<path d="M3895 5115 c-53 -52 -19 -165 50 -165 25 0 65 31 65 50 0 17 -14 11
-28 -10 -15 -24 -54 -26 -76 -4 -10 9 -16 33 -16 59 0 26 6 50 16 59 22 22 61
20 76 -4 14 -21 28 -27 28 -10 0 19 -40 50 -65 50 -14 0 -37 -11 -50 -25z"/>
<path d="M4830 5067 c0 -43 -5 -78 -12 -85 -17 -17 -47 -15 -54 3 -4 8 -13 15
-20 15 -12 0 -12 -4 -4 -20 15 -28 55 -36 85 -16 23 15 25 22 25 96 0 47 -4
80 -10 80 -6 0 -10 -31 -10 -73z"/>
<path d="M5700 5045 c0 -78 3 -95 15 -95 11 0 15 12 15 45 l0 45 50 0 50 0 0
-45 c0 -25 5 -45 10 -45 6 0 10 38 10 95 0 57 -4 95 -10 95 -5 0 -10 -18 -10
-40 l0 -40 -50 0 -50 0 0 40 c0 29 -4 40 -15 40 -12 0 -15 -17 -15 -95z"/>
<path d="M5880 5130 c0 -5 14 -10 30 -10 l30 0 0 -85 c0 -50 4 -85 10 -85 6 0
10 35 10 85 l0 85 30 0 c17 0 30 5 30 10 0 6 -30 10 -70 10 -40 0 -70 -4 -70
-10z"/>
<path d="M6050 5045 c0 -81 2 -95 16 -95 14 0 15 10 9 78 -8 89 -1 87 39 -10
16 -38 32 -68 36 -68 4 0 20 33 36 73 l29 72 3 -72 c4 -108 22 -89 22 22 0
120 -16 126 -56 20 -16 -41 -31 -75 -35 -75 -3 0 -19 34 -35 75 -21 54 -34 75
-46 75 -16 0 -18 -11 -18 -95z"/>
<path d="M6290 5045 l0 -95 55 0 c30 0 55 5 55 10 0 6 -20 10 -45 10 l-45 0 0
85 c0 50 -4 85 -10 85 -6 0 -10 -38 -10 -95z"/>
<path d="M6446 5124 c-9 -8 -16 -20 -16 -25 0 -15 17 -10 24 7 4 10 15 14 33
12 22 -2 28 -8 28 -28 0 -20 -6 -26 -27 -28 -16 -2 -28 -7 -28 -12 0 -5 12
-10 28 -12 23 -3 27 -8 27 -33 0 -25 -4 -30 -28 -33 -18 -2 -29 2 -33 12 -8
20 -24 21 -24 1 0 -17 30 -35 58 -35 40 0 68 60 40 88 -9 9 -9 15 0 24 28 28
1 78 -43 78 -13 0 -31 -7 -39 -16z"/>
<path d="M6999 5121 c-20 -16 -24 -28 -24 -76 0 -48 4 -60 24 -76 13 -10 33
-19 45 -19 27 0 66 27 66 46 0 20 -13 17 -28 -6 -29 -46 -92 -9 -92 55 0 64
63 101 92 55 15 -23 28 -26 28 -6 0 19 -39 46 -66 46 -12 0 -32 -9 -45 -19z"/>
<path d="M7172 5124 c-40 -28 -19 -74 40 -89 38 -10 54 -31 38 -50 -19 -23
-66 -19 -84 7 -17 24 -30 21 -21 -5 9 -21 60 -40 90 -33 32 8 49 39 35 65 -5
11 -30 27 -55 37 -37 14 -45 21 -43 38 5 32 56 35 80 4 14 -18 18 -20 18 -6 0
19 -36 48 -60 48 -9 0 -26 -7 -38 -16z"/>
<path d="M7332 5124 c-40 -28 -19 -74 40 -89 38 -10 54 -31 38 -50 -19 -23
-66 -19 -84 7 -17 24 -30 21 -21 -5 9 -21 60 -40 90 -33 32 8 49 39 35 65 -5
11 -30 27 -55 37 -37 14 -45 21 -43 38 5 32 56 35 80 4 14 -18 18 -20 18 -6 0
19 -36 48 -60 48 -9 0 -26 -7 -38 -16z"/>
<path d="M7486 5118 c-3 -13 -6 -33 -6 -46 0 -21 3 -22 35 -16 31 5 36 3 47
-21 22 -48 -24 -85 -63 -49 -27 24 -36 11 -10 -15 26 -26 55 -27 81 -1 40 40
7 118 -46 107 -20 -3 -24 0 -24 19 0 21 5 24 40 24 22 0 40 5 40 10 0 6 -20
10 -44 10 -37 0 -45 -4 -50 -22z"/>
<path d="M8130 5067 c0 -43 -5 -78 -12 -85 -17 -17 -47 -15 -54 3 -4 8 -13 15
-20 15 -12 0 -12 -4 -4 -20 15 -28 55 -36 85 -16 23 15 25 22 25 96 0 47 -4
80 -10 80 -6 0 -10 -31 -10 -73z"/>
<path d="M9210 5115 c0 -8 -8 -15 -17 -15 -17 -1 -17 -1 0 -14 12 -9 17 -27
17 -63 0 -27 5 -54 12 -61 15 -15 38 -16 38 -2 0 6 -7 10 -15 10 -12 0 -15 13
-15 55 0 42 3 55 15 55 8 0 15 5 15 10 0 6 -7 10 -15 10 -8 0 -15 7 -15 15 0
8 -4 15 -10 15 -5 0 -10 -7 -10 -15z"/>
<path d="M4572 5108 c-15 -15 -15 -38 -1 -58 8 -11 9 -8 4 13 -3 17 -1 35 6
43 14 17 8 19 -9 2z"/>
<path d="M1780 5030 l0 -70 40 0 c22 0 40 5 40 10 0 6 -13 10 -30 10 l-30 0 0
60 c0 33 -4 60 -10 60 -6 0 -10 -30 -10 -70z"/>
<path d="M1919 5073 c-28 -71 -39 -107 -34 -111 2 -3 7 3 11 12 4 10 18 16 39
16 21 0 35 -6 39 -16 4 -9 9 -14 12 -11 7 7 -36 126 -47 133 -5 3 -14 -7 -20
-23z m36 -40 c5 -20 3 -23 -19 -23 -24 0 -24 2 -14 31 11 32 21 29 33 -8z"/>
<path d="M2022 5028 c1 -63 2 -66 5 -20 2 28 7 52 11 52 4 0 21 -22 37 -50 16
-27 33 -50 37 -50 4 0 7 33 6 73 -1 62 -2 65 -5 20 -2 -29 -7 -53 -11 -53 -5
0 -21 22 -37 50 -17 27 -33 50 -37 50 -5 0 -7 -33 -6 -72z"/>
<path d="M2179 5090 c-23 -14 -32 -58 -19 -91 21 -50 100 -46 100 6 0 21 -5
25 -27 24 -17 -1 -21 -3 -10 -6 9 -2 17 -13 17 -24 0 -14 -7 -19 -30 -19 -23
0 -31 5 -36 25 -10 42 3 75 31 75 13 0 27 -4 30 -10 3 -5 12 -10 18 -10 7 1 1
10 -12 20 -26 22 -38 24 -62 10z"/>
<path d="M2292 5042 c-2 -57 0 -63 22 -73 17 -8 29 -8 45 0 18 10 21 20 19 74
l-1 62 -6 -60 c-6 -59 -7 -60 -36 -60 -29 0 -30 1 -36 60 l-6 60 -1 -63z"/>
<path d="M2429 5030 c-15 -39 -23 -70 -19 -70 4 0 10 7 14 15 3 9 19 15 41 15
24 0 35 -4 35 -15 0 -8 5 -15 11 -15 7 0 8 7 4 18 -4 9 -16 41 -27 70 -11 28
-22 52 -26 52 -4 0 -19 -32 -33 -70z m39 -18 c-27 -5 -30 1 -17 34 l11 29 13
-30 c12 -27 12 -30 -7 -33z"/>
<path d="M2562 5084 c-32 -22 -31 -88 2 -109 37 -24 76 -11 76 26 0 23 -4 29
-22 29 -21 -1 -21 -2 -5 -11 28 -16 21 -39 -13 -39 -39 0 -59 37 -42 75 13 27
49 34 70 13 9 -9 12 -9 12 0 0 11 -30 32 -47 32 -5 0 -19 -7 -31 -16z"/>
<path d="M2670 5030 l0 -70 45 0 c25 0 45 5 45 10 0 6 -16 10 -35 10 -28 0
-35 4 -35 20 0 16 7 20 30 20 17 0 30 5 30 10 0 6 -13 10 -30 10 -23 0 -30 4
-30 20 0 16 7 20 35 20 19 0 35 5 35 10 0 6 -20 10 -45 10 l-45 0 0 -70z"/>
<path d="M2795 5086 c-25 -18 -13 -44 31 -62 19 -8 34 -20 31 -27 -5 -17 -45
-21 -63 -7 -9 9 -14 9 -14 2 0 -21 41 -35 66 -23 36 16 31 49 -11 67 -40 16
-47 44 -12 44 13 0 28 -5 35 -12 9 -9 12 -9 12 0 0 11 -31 32 -47 32 -5 0 -18
-6 -28 -14z"/>
<path d="M4090 5075 c0 -20 -5 -25 -25 -25 -14 0 -25 -4 -25 -10 0 -5 11 -10
25 -10 21 0 25 -5 25 -30 0 -38 18 -40 22 -2 2 21 9 28 31 30 37 4 35 22 -3
22 -25 0 -30 4 -30 25 0 14 -4 25 -10 25 -5 0 -10 -11 -10 -25z"/>
<path d="M4250 5075 c0 -21 -5 -25 -30 -25 -38 0 -40 -18 -2 -22 21 -2 28 -9
30 -30 4 -38 22 -36 22 2 0 25 4 30 25 30 14 0 25 5 25 10 0 6 -11 10 -25 10
-20 0 -25 5 -25 25 0 14 -4 25 -10 25 -5 0 -10 -11 -10 -25z"/>
<path d="M4905 5084 c-9 -9 -13 -19 -10 -22 3 -3 11 0 17 6 17 17 55 15 62 -4
9 -23 8 -24 -20 -24 -38 0 -64 -18 -64 -44 0 -33 18 -44 66 -43 l42 2 -5 60
c-3 33 -10 66 -16 73 -13 17 -53 15 -72 -4z m75 -77 c0 -18 -21 -37 -41 -37
-22 0 -33 16 -25 35 7 19 66 20 66 2z"/>
<path d="M5048 5026 c15 -42 30 -76 34 -76 3 0 18 34 32 76 14 41 20 74 14 72
-6 -2 -19 -28 -28 -58 -18 -57 -19 -57 -43 14 -8 22 -19 42 -25 44 -7 2 0 -29
16 -72z"/>
<path d="M5184 5086 c-24 -18 -13 -31 14 -15 23 14 52 6 52 -16 0 -9 -9 -15
-24 -15 -36 0 -70 -32 -62 -58 9 -26 50 -39 71 -22 10 9 15 9 15 1 0 -6 5 -11
10 -11 17 0 12 116 -6 134 -19 20 -44 20 -70 2z m66 -79 c0 -18 -21 -37 -41
-37 -22 0 -33 16 -25 35 7 19 66 20 66 2z"/>
<path d="M8209 5080 c-20 -16 -21 -19 -6 -20 9 0 17 5 17 11 0 6 12 9 27 7 36
-4 45 -38 11 -38 -32 0 -68 -27 -68 -50 0 -28 36 -45 66 -31 15 6 24 7 24 1 0
-6 5 -10 10 -10 6 0 10 26 10 59 0 86 -38 116 -91 71z m71 -73 c0 -18 -21 -37
-41 -37 -22 0 -33 16 -25 35 7 19 66 20 66 2z"/>
<path d="M8330 5091 c0 -19 46 -128 55 -130 8 -2 22 31 49 117 4 13 3 22 -3
22 -5 0 -17 -25 -26 -55 -8 -30 -17 -55 -20 -55 -2 0 -12 25 -21 55 -10 30
-21 55 -26 55 -4 0 -8 -4 -8 -9z"/>
<path d="M8484 5086 c-24 -18 -13 -31 14 -15 23 14 52 6 52 -16 0 -9 -9 -15
-24 -15 -36 0 -70 -32 -62 -58 9 -26 50 -39 71 -22 10 9 15 9 15 1 0 -6 5 -11
10 -11 17 0 12 116 -6 134 -19 20 -44 20 -70 2z m66 -79 c0 -18 -21 -37 -41
-37 -22 0 -33 16 -25 35 7 19 66 20 66 2z"/>
<path d="M8626 5081 c-23 -25 -12 -46 36 -64 24 -10 38 -21 36 -29 -6 -18 -46
-22 -64 -7 -21 17 -28 5 -9 -15 21 -20 59 -21 79 0 27 26 18 44 -30 64 -26 12
-44 25 -42 33 6 17 49 21 59 6 4 -8 11 -10 15 -6 11 11 -17 37 -41 37 -12 0
-29 -8 -39 -19z"/>
<path d="M8770 5080 c-39 -39 -14 -130 36 -130 25 0 54 20 54 37 0 15 -2 15
-18 0 -36 -33 -72 -14 -72 38 0 17 5 36 12 43 17 17 47 15 54 -3 8 -19 24 -19
24 0 0 16 -30 35 -54 35 -9 0 -25 -9 -36 -20z"/>
<path d="M8890 5025 c0 -43 4 -75 10 -75 6 0 10 21 10 46 0 51 14 84 35 84 8
0 15 5 15 10 0 13 -6 13 -31 0 -13 -7 -19 -7 -19 0 0 5 -4 10 -10 10 -6 0 -10
-32 -10 -75z"/>
<path d="M8990 5025 c0 -43 4 -75 10 -75 6 0 10 32 10 75 0 43 -4 75 -10 75
-6 0 -10 -32 -10 -75z"/>
<path d="M9050 5000 c0 -60 4 -100 10 -100 6 0 10 14 10 30 0 27 3 30 24 24
53 -13 90 47 67 108 -12 32 -53 47 -76 28 -10 -9 -15 -9 -15 -1 0 6 -4 11 -10
11 -6 0 -10 -40 -10 -100z m92 55 c18 -41 0 -80 -37 -80 -28 0 -30 3 -33 44
-3 46 7 61 41 61 9 0 23 -11 29 -25z"/>
<path d="M2900 5050 c0 -5 5 -10 10 -10 6 0 10 5 10 10 0 6 -4 10 -10 10 -5 0
-10 -4 -10 -10z"/>
<path d="M2900 4970 c0 -5 5 -10 10 -10 6 0 10 5 10 10 0 6 -4 10 -10 10 -5 0
-10 -4 -10 -10z"/>
<path d="M4348 4950 c-3 -19 -1 -29 6 -27 14 4 21 57 8 57 -5 0 -12 -14 -14
-30z"/>
<path d="M5310 4961 c0 -11 -3 -28 -6 -38 -5 -16 -4 -16 10 1 18 22 21 56 6
56 -5 0 -10 -9 -10 -19z"/>
<path d="M6578 4950 c-3 -19 -1 -29 6 -27 14 4 21 57 8 57 -5 0 -12 -14 -14
-30z"/>
<path d="M7620 4961 c0 -11 -3 -28 -6 -38 -5 -16 -4 -16 10 1 18 22 21 56 6
56 -5 0 -10 -9 -10 -19z"/>
<path d="M4528 4963 c12 -2 32 -2 45 0 12 2 2 4 -23 4 -25 0 -35 -2 -22 -4z"/>
<path d="M4488 4933 c6 -2 18 -2 25 0 6 3 1 5 -13 5 -14 0 -19 -2 -12 -5z"/>
<path d="M4578 4933 c7 -3 16 -2 19 1 4 3 -2 6 -13 5 -11 0 -14 -3 -6 -6z"/>
<path d="M3327 4533 c-4 -3 -7 -21 -7 -39 0 -27 -6 -37 -30 -49 -39 -20 -39
-51 0 -73 23 -13 30 -24 30 -48 0 -46 21 -59 61 -38 30 15 34 15 61 -1 36 -21
58 -7 58 39 0 24 7 35 30 48 39 22 39 53 0 73 -25 13 -30 22 -30 51 0 22 -6
37 -16 41 -17 6 -70 -14 -61 -24 4 -3 13 0 22 7 23 19 45 5 45 -30 0 -28 -3
-31 -21 -25 -12 4 -37 23 -56 41 -31 31 -70 44 -86 27z m59 -17 c17 -13 17
-16 4 -30 -23 -22 -54 -24 -58 -3 -9 43 17 59 54 33z m34 -36 c0 -5 -5 -10
-11 -10 -5 0 -7 5 -4 10 3 6 8 10 11 10 2 0 4 -4 4 -10z m32 -45 c17 -38 -3
-75 -40 -75 -20 0 -33 7 -42 25 -19 36 2 75 42 75 21 0 32 -7 40 -25z m-92 11
c0 -3 -4 -8 -10 -11 -5 -3 -10 -1 -10 4 0 6 5 11 10 11 6 0 10 -2 10 -4z m120
-6 c0 -5 -2 -10 -4 -10 -3 0 -8 5 -11 10 -3 6 -1 10 4 10 6 0 11 -4 11 -10z
m-145 -19 c6 -20 -3 -51 -15 -51 -4 0 -18 9 -31 20 -24 20 -24 20 -5 35 26 20
43 19 51 -4z m201 4 c19 -15 19 -15 -5 -35 -29 -25 -37 -25 -44 1 -12 45 12
62 49 34z m-64 -57 c-7 -7 -12 -8 -12 -2 0 6 3 14 7 17 3 4 9 5 12 2 2 -3 -1
-11 -7 -17z m-112 2 c0 -5 -2 -10 -4 -10 -3 0 -8 5 -11 10 -3 6 -1 10 4 10 6
0 11 -4 11 -10z m31 -36 c11 -14 10 -18 -6 -30 -28 -21 -50 -13 -53 19 -3 23
0 27 21 27 14 0 31 -7 38 -16z m29 6 c0 -5 -4 -10 -10 -10 -5 0 -10 5 -10 10
0 6 5 10 10 10 6 0 10 -4 10 -10z m70 -20 c0 -32 -16 -38 -51 -20 -16 9 -17
14 -6 30 6 11 22 20 34 20 19 0 23 -6 23 -30z"/>
<path d="M3385 4420 c-10 -17 20 -44 40 -36 9 3 15 14 13 23 -4 21 -43 30 -53
13z"/>
<path d="M4773 4488 l-53 -30 0 -64 c0 -61 1 -64 30 -79 17 -9 35 -13 40 -10
6 3 9 36 8 73 l-1 67 -6 -60 c-6 -58 -8 -61 -41 -56 -7 0 -10 25 -8 62 3 60 3
61 48 86 l45 25 48 -28 48 -29 -3 -54 c-3 -53 -4 -56 -48 -81 -34 -21 -50 -25
-64 -18 -14 8 -17 7 -14 -4 8 -23 42 -19 96 12 l53 31 -3 62 -3 62 -55 32
c-30 18 -57 33 -60 32 -3 0 -29 -14 -57 -31z"/>
<path d="M7080 4453 c0 -13 -8 -24 -21 -28 -31 -10 -23 -60 11 -60 22 0 25 5
28 44 2 24 -2 49 -7 54 -8 8 -11 5 -11 -10z m0 -63 c0 -5 -4 -10 -10 -10 -5 0
-10 5 -10 10 0 6 5 10 10 10 6 0 10 -4 10 -10z"/>
<path d="M6060 4446 c0 -9 5 -16 10 -16 6 0 10 4 10 9 0 6 -4 13 -10 16 -5 3
-10 -1 -10 -9z"/>
<path d="M6536 4452 c-3 -6 -1 -14 5 -17 15 -10 25 3 12 16 -7 7 -13 7 -17 1z"/>
<path d="M6690 4360 c0 -110 17 -139 22 -37 3 59 4 62 28 62 24 0 25 -3 28
-62 2 -35 7 -63 13 -63 6 0 9 27 7 66 -3 76 -21 99 -58 76 -19 -11 -20 -10
-20 23 0 19 -4 35 -10 35 -6 0 -10 -40 -10 -100z"/>
<path d="M7700 4430 c0 -27 -3 -30 -24 -24 -34 8 -66 -26 -66 -69 0 -50 21
-71 69 -72 l41 -1 0 98 c0 59 -4 98 -10 98 -5 0 -10 -14 -10 -30z m-5 -95 c0
-40 -4 -50 -18 -53 -27 -5 -47 17 -47 52 0 38 17 58 45 54 17 -3 20 -11 20
-53z"/>
<path d="M7980 4446 c0 -9 5 -16 10 -16 6 0 10 4 10 9 0 6 -4 13 -10 16 -5 3
-10 -1 -10 -9z"/>
<path d="M3650 4355 c0 -78 3 -95 15 -95 11 0 15 11 15 40 0 35 3 40 23 40 18
0 28 -10 42 -40 10 -22 24 -40 32 -40 10 0 8 10 -7 41 -20 37 -20 42 -6 58 40
44 2 91 -71 91 l-43 0 0 -95z m101 59 c19 -23 -1 -48 -40 -52 -30 -3 -31 -2
-31 32 0 33 2 36 29 36 16 0 34 -7 42 -16z"/>
<path d="M4420 4377 c0 -43 -5 -78 -12 -85 -17 -17 -47 -15 -54 3 -8 19 -24
19 -24 0 0 -17 30 -35 58 -35 38 0 52 31 52 113 0 45 -4 77 -10 77 -6 0 -10
-31 -10 -73z"/>
<path d="M5040 4355 l0 -95 60 0 c33 0 60 4 60 10 0 6 -22 10 -50 10 l-50 0 0
35 c0 35 0 35 45 35 25 0 45 5 45 10 0 6 -20 10 -45 10 -43 0 -45 1 -45 30 0
29 1 30 50 30 28 0 50 5 50 10 0 6 -27 10 -60 10 l-60 0 0 -95z"/>
<path d="M7270 4355 c0 -111 18 -130 22 -22 l3 72 49 -72 c27 -40 53 -73 57
-73 5 0 9 43 9 95 0 111 -18 130 -22 23 l-3 -71 -48 71 c-26 40 -52 72 -57 72
-6 0 -10 -39 -10 -95z"/>
<path d="M2490 4435 c0 -21 34 -135 40 -135 5 0 13 22 20 50 7 27 15 48 20 45
4 -2 13 -25 19 -50 6 -25 15 -45 19 -45 4 0 14 32 23 70 9 39 12 70 8 70 -5 0
-11 -17 -15 -37 -11 -65 -21 -71 -35 -22 -18 65 -25 66 -39 10 -7 -28 -16 -51
-20 -51 -4 0 -11 20 -14 45 -4 24 -11 47 -17 50 -5 4 -9 3 -9 0z"/>
<path d="M2670 4370 l0 -70 40 0 c22 0 40 5 40 10 0 6 -13 10 -30 10 -23 0
-30 4 -30 20 0 15 7 20 25 20 14 0 25 5 25 10 0 6 -11 10 -25 10 -18 0 -25 5
-25 20 0 16 7 20 30 20 17 0 30 5 30 10 0 6 -18 10 -40 10 l-40 0 0 -70z"/>
<path d="M2780 4370 c0 -68 1 -70 26 -70 14 0 34 5 45 10 20 11 26 45 9 55 -6
4 -5 13 3 26 10 17 9 22 -7 35 -11 8 -32 14 -48 14 l-28 0 0 -70z m70 30 c0
-15 -7 -20 -25 -20 -18 0 -25 5 -25 20 0 15 7 20 25 20 18 0 25 -5 25 -20z m0
-45 c16 -19 4 -35 -26 -35 -19 0 -24 5 -24 25 0 29 29 35 50 10z"/>
<path d="M4260 4425 c0 -8 -7 -15 -15 -15 -8 0 -15 -4 -15 -10 0 -5 7 -10 15
-10 12 0 15 -13 15 -60 0 -45 4 -62 15 -67 9 -3 19 -2 23 2 4 4 1 10 -5 12 -8
3 -13 24 -13 58 0 33 5 56 13 59 10 5 10 7 0 12 -7 3 -13 12 -13 20 0 8 -4 14
-10 14 -5 0 -10 -7 -10 -15z"/>
<path d="M4824 4426 c-8 -22 2 -34 36 -41 17 -4 30 -11 30 -16 0 -14 -58 -11
-63 4 -2 6 -8 9 -12 5 -15 -14 18 -39 48 -36 37 4 60 34 37 48 -8 5 -25 10
-37 10 -13 0 -23 5 -23 11 0 7 12 10 30 7 19 -3 29 -1 27 6 -6 18 -66 20 -73
2z"/>
<path d="M6610 4425 c0 -8 -7 -15 -15 -15 -8 0 -15 -4 -15 -10 0 -5 7 -10 15
-10 12 0 15 -13 15 -60 0 -45 4 -62 15 -67 9 -3 19 -2 23 2 4 4 1 10 -5 12 -8
3 -13 24 -13 58 0 33 5 56 13 59 10 5 10 7 0 12 -7 3 -13 12 -13 20 0 8 -4 14
-10 14 -5 0 -10 -7 -10 -15z"/>
<path d="M6892 4421 c-8 -5 -12 -20 -9 -37 4 -27 5 -28 12 -6 8 25 25 30 25 7
0 -8 7 -15 15 -15 22 0 18 37 -4 50 -23 12 -22 12 -39 1z"/>
<path d="M6972 4421 c-8 -4 -12 -19 -10 -32 4 -30 45 -33 62 -6 9 15 7 21 -8
33 -23 16 -26 17 -44 5z"/>
<path d="M7132 4421 c-23 -14 -10 -56 18 -59 23 -2 24 -1 8 11 -24 19 -23 30
2 22 24 -8 28 20 4 29 -19 7 -16 8 -32 -3z"/>
<path d="M3830 4390 c-43 -43 -13 -130 44 -130 13 0 29 7 36 15 11 13 8 14
-20 8 -26 -5 -36 -2 -47 12 -21 30 -16 35 38 35 51 0 51 0 45 28 -13 52 -60
68 -96 32z m70 -20 c10 -18 8 -20 -30 -20 -41 0 -49 7 -28 28 18 18 46 14 58
-8z"/>
<path d="M3974 4396 c-24 -18 -13 -31 14 -15 11 7 27 9 36 6 23 -9 20 -37 -5
-37 -33 0 -59 -19 -59 -44 0 -32 18 -44 65 -43 l41 2 -4 60 c-5 79 -39 107
-88 71z m64 -88 c-3 -26 -32 -35 -53 -18 -21 18 -6 40 27 40 25 0 29 -4 26
-22z"/>
<path d="M4120 4390 c-39 -39 -14 -130 36 -130 25 0 54 20 54 37 0 15 -2 15
-18 0 -36 -33 -72 -14 -72 38 0 52 36 71 72 38 16 -15 18 -15 18 0 0 17 -29
37 -54 37 -9 0 -25 -9 -36 -20z"/>
<path d="M4508 4399 c-10 -5 -18 -21 -18 -35 0 -19 6 -26 30 -30 33 -7 55 -28
45 -44 -8 -13 -52 -13 -60 0 -3 6 -11 10 -17 10 -6 0 -3 -9 7 -20 29 -33 95
-19 95 19 0 23 -16 37 -53 46 -36 9 -38 45 -3 45 14 0 28 -4 31 -10 3 -5 11
-10 17 -10 6 0 3 9 -7 20 -20 22 -41 25 -67 9z"/>
<path d="M5190 4406 c0 -3 9 -20 20 -38 l20 -34 -26 -37 c-17 -26 -21 -37 -11
-37 7 0 20 11 27 25 7 14 17 25 22 25 5 0 14 -11 20 -25 6 -14 17 -25 25 -25
10 0 6 11 -11 37 l-25 37 19 32 c22 34 24 44 12 44 -5 0 -15 -11 -22 -25 -7
-14 -16 -25 -20 -25 -4 0 -13 11 -20 25 -12 22 -30 34 -30 21z"/>
<path d="M5330 4308 c0 -59 4 -98 10 -98 6 0 10 14 10 30 0 28 2 30 25 24 39
-10 65 19 65 71 0 53 -22 75 -73 72 l-37 -2 0 -97z m79 68 c17 -20 10 -77 -10
-89 -30 -19 -49 -1 -49 46 0 24 3 47 7 50 11 12 40 8 52 -7z"/>
<path d="M5480 4335 c0 -43 4 -75 10 -75 6 0 10 26 10 59 0 51 3 61 20 66 11
3 20 11 20 16 0 13 -14 11 -28 -3 -9 -9 -12 -9 -12 0 0 7 -4 12 -10 12 -6 0
-10 -32 -10 -75z"/>
<path d="M5580 4390 c-43 -43 -13 -130 44 -130 13 0 29 7 36 15 11 13 8 14
-20 8 -26 -5 -36 -2 -47 12 -21 30 -16 35 38 35 51 0 51 0 45 28 -13 52 -60
68 -96 32z m70 -20 c10 -18 8 -20 -30 -20 -41 0 -49 7 -28 28 18 18 46 14 58
-8z"/>
<path d="M5728 4399 c-21 -12 -24 -42 -5 -56 6 -6 24 -13 40 -17 30 -7 36 -33
11 -43 -9 -3 -25 -1 -36 6 -27 16 -38 3 -14 -15 23 -17 40 -18 67 -4 38 21 20
62 -34 75 -15 4 -27 14 -27 21 0 21 29 29 52 15 27 -16 38 -3 14 15 -23 16
-44 17 -68 3z"/>
<path d="M5868 4399 c-21 -12 -24 -42 -5 -56 6 -6 24 -13 40 -17 30 -7 36 -33
11 -43 -9 -3 -25 -1 -36 6 -27 16 -38 3 -14 -15 23 -17 40 -18 67 -4 38 21 20
62 -34 75 -15 4 -27 14 -27 21 0 21 29 29 52 15 27 -16 38 -3 14 15 -23 16
-44 17 -68 3z"/>
<path d="M6060 4320 c0 -73 -3 -90 -15 -90 -8 0 -15 -4 -15 -10 0 -14 23 -13
38 2 15 15 17 188 2 188 -6 0 -10 -37 -10 -90z"/>
<path d="M6136 4391 c-23 -25 -12 -46 36 -64 24 -10 38 -21 36 -29 -6 -18 -46
-22 -64 -7 -21 17 -28 5 -9 -15 21 -20 59 -21 79 0 27 26 18 44 -30 64 -26 12
-44 25 -42 33 6 17 49 21 59 6 4 -8 11 -10 15 -6 11 11 -17 37 -41 37 -12 0
-29 -8 -39 -19z"/>
<path d="M6320 4403 c2 -27 38 -134 45 -134 6 0 17 23 27 53 10 32 18 47 22
38 3 -8 12 -33 19 -55 8 -22 18 -40 22 -40 7 0 45 116 45 138 0 16 -20 6 -21
-10 0 -10 -6 -36 -13 -58 l-13 -40 -18 58 c-10 31 -22 57 -25 57 -3 0 -15 -26
-25 -57 l-18 -58 -15 58 c-8 31 -18 57 -23 57 -5 0 -9 -3 -9 -7z"/>
<path d="M6540 4335 c0 -43 4 -75 10 -75 6 0 10 32 10 75 0 43 -4 75 -10 75
-6 0 -10 -32 -10 -75z"/>
<path d="M7479 4391 c-47 -38 -18 -131 41 -131 24 0 60 46 60 75 0 29 -36 75
-60 75 -10 0 -28 -8 -41 -19z m73 -26 c18 -40 0 -80 -36 -80 -36 0 -52 37 -37
78 14 37 57 37 73 2z"/>
<path d="M7780 4390 c-43 -43 -13 -130 44 -130 13 0 29 7 36 15 11 13 8 14
-20 8 -26 -5 -36 -2 -47 12 -21 30 -16 35 38 35 51 0 51 0 45 28 -13 52 -60
68 -96 32z m70 -20 c10 -18 8 -20 -30 -20 -41 0 -49 7 -28 28 18 18 46 14 58
-8z"/>
<path d="M7980 4320 c0 -73 -3 -90 -15 -90 -8 0 -15 -4 -15 -10 0 -14 23 -13
38 2 15 15 17 188 2 188 -6 0 -10 -37 -10 -90z"/>
<path d="M8056 4391 c-23 -25 -12 -46 36 -64 24 -10 38 -21 36 -29 -6 -18 -46
-22 -64 -7 -21 17 -28 5 -9 -15 21 -20 59 -21 79 0 27 26 18 44 -30 64 -26 12
-44 25 -42 33 6 17 49 21 59 6 4 -8 11 -10 15 -6 11 11 -17 37 -41 37 -12 0
-29 -8 -39 -19z"/>
<path d="M2900 4390 c0 -5 5 -10 10 -10 6 0 10 5 10 10 0 6 -4 10 -10 10 -5 0
-10 -4 -10 -10z"/>
<path d="M7040 4340 c-13 -8 -13 -11 0 -24 13 -14 15 -13 15 9 0 14 0 25 0 25
0 0 -7 -5 -15 -10z"/>
<path d="M7006 4315 c-3 -8 -1 -15 4 -15 13 0 22 18 11 24 -5 3 -11 -1 -15 -9z"/>
<path d="M2900 4310 c0 -5 5 -10 10 -10 6 0 10 5 10 10 0 6 -4 10 -10 10 -5 0
-10 -4 -10 -10z"/>
<path d="M4618 4260 c-3 -19 -1 -29 6 -27 14 4 21 57 8 57 -5 0 -12 -14 -14
-30z"/>
<path d="M5995 4279 c-10 -15 3 -25 16 -12 7 7 7 13 1 17 -6 3 -14 1 -17 -5z"/>
<path d="M7915 4279 c-10 -15 3 -25 16 -12 7 7 7 13 1 17 -6 3 -14 1 -17 -5z"/>
<path d="M7756 3843 c-14 -70 -23 -151 -22 -186 1 -35 5 -41 48 -65 l48 -27
55 30 c30 16 55 32 55 35 0 10 -20 136 -26 159 -5 23 -11 19 -92 -60 -58 -56
-66 -62 -23 -18 62 66 63 67 48 94 l-14 28 -16 -24 c-8 -13 -29 -49 -46 -79
-17 -30 -31 -51 -31 -46 0 5 14 33 31 63 28 49 30 57 19 84 -17 41 -27 44 -34
12z"/>
<path d="M3381 3834 c-49 -63 -48 -150 3 -211 13 -15 26 -35 29 -43 4 -11 6
-11 6 4 1 10 12 31 26 47 47 56 43 143 -10 202 -13 15 -26 27 -29 27 -2 0 -14
-12 -25 -26z"/>
<path d="M4940 3766 c0 -9 12 -18 28 -21 49 -10 112 -47 110 -64 -2 -11 7 -16
40 -19 28 -2 42 1 42 10 0 9 3 9 12 0 17 -17 29 -15 22 3 -5 11 1 15 20 15 26
0 35 13 17 25 -5 3 -44 7 -86 10 -45 3 -85 11 -98 20 -12 8 -32 15 -45 15 -13
0 -32 5 -43 10 -15 8 -19 7 -19 -4z"/>
<path d="M8216 3762 c-3 -6 -1 -14 5 -17 15 -10 25 3 12 16 -7 7 -13 7 -17 1z"/>
<path d="M8510 3670 c0 -60 4 -100 10 -100 6 0 10 5 10 11 0 8 5 8 15 -1 41
-34 92 22 80 87 -7 38 -34 56 -70 47 -23 -6 -25 -3 -25 25 0 17 -4 31 -10 31
-6 0 -10 -40 -10 -100z m92 5 c23 -51 -20 -106 -57 -75 -18 15 -20 71 -3 88
20 20 48 14 60 -13z"/>
<path d="M1940 3690 l0 -73 37 6 c43 7 63 29 63 67 0 38 -20 60 -63 67 l-37 6
0 -73z m75 0 c0 -42 -2 -45 -27 -48 -27 -3 -28 -2 -28 48 0 50 1 51 28 48 25
-3 27 -6 27 -48z"/>
<path d="M2099 3733 c-28 -71 -39 -107 -34 -111 2 -3 7 3 11 12 4 10 18 16 39
16 21 0 35 -6 39 -16 4 -9 9 -14 12 -11 7 7 -36 126 -47 133 -5 3 -14 -7 -20
-23z m36 -40 c5 -20 3 -23 -19 -23 -24 0 -24 2 -14 31 11 32 21 29 33 -8z"/>
<path d="M2170 3750 c0 -5 11 -10 25 -10 23 0 24 -4 28 -62 l3 -63 2 63 c2 59
3 62 27 62 14 0 25 5 25 10 0 6 -25 10 -55 10 -30 0 -55 -4 -55 -10z"/>
<path d="M2308 3693 c-24 -65 -28 -98 -7 -60 13 22 79 24 79 2 0 -8 4 -15 10
-15 5 0 -1 30 -15 66 -14 37 -25 68 -25 70 0 2 -4 4 -9 4 -4 0 -19 -30 -33
-67z m46 15 c9 -35 8 -38 -14 -38 -11 0 -20 3 -20 8 0 19 13 52 20 52 4 0 10
-10 14 -22z"/>
<path d="M2420 3689 l0 -72 41 6 c46 6 62 22 49 47 -5 9 -6 27 -3 40 7 28 -18
50 -59 50 l-28 0 0 -71z m75 31 c0 -9 -11 -16 -27 -18 -23 -3 -28 1 -28 18 0
17 5 21 28 18 16 -2 27 -9 27 -18z m-6 -39 c21 -13 5 -41 -24 -41 -18 0 -25 5
-25 18 0 31 21 41 49 23z"/>
<path d="M2559 3690 c-15 -39 -23 -70 -19 -70 4 0 10 7 14 15 3 9 19 15 41 15
24 0 35 -4 35 -15 0 -8 5 -15 11 -15 7 0 8 7 4 18 -4 9 -16 41 -27 70 -11 28
-22 52 -26 52 -4 0 -19 -32 -33 -70z m39 -18 c-27 -5 -30 1 -17 34 l11 29 13
-30 c12 -27 12 -30 -7 -33z"/>
<path d="M2685 3746 c-25 -18 -13 -44 31 -62 19 -8 34 -20 31 -27 -5 -17 -45
-21 -63 -7 -9 9 -14 9 -14 2 0 -21 41 -35 66 -23 36 16 31 49 -11 67 -40 16
-47 44 -12 44 13 0 28 -5 35 -12 9 -9 12 -9 12 0 0 11 -31 32 -47 32 -5 0 -18
-6 -28 -14z"/>
<path d="M2790 3690 l0 -70 45 0 c25 0 45 5 45 10 0 6 -16 10 -35 10 -28 0
-35 4 -35 20 0 16 7 20 30 20 17 0 30 5 30 10 0 6 -13 10 -30 10 -23 0 -30 4
-30 20 0 16 7 20 35 20 19 0 35 5 35 10 0 6 -20 10 -45 10 l-45 0 0 -70z"/>
<path d="M3650 3665 c0 -81 2 -95 16 -95 14 0 15 10 9 78 -8 89 -1 87 39 -10
16 -38 32 -68 36 -68 4 0 20 33 36 73 l29 72 3 -72 c4 -108 22 -89 22 22 0
120 -16 126 -56 20 -16 -41 -31 -75 -35 -75 -3 0 -19 34 -35 75 -21 54 -34 75
-46 75 -16 0 -18 -11 -18 -95z"/>
<path d="M4500 3664 l0 -97 47 6 c60 6 83 33 83 94 0 59 -32 93 -90 93 l-40 0
0 -96z m92 59 c23 -21 24 -89 1 -115 -9 -10 -29 -18 -45 -18 l-28 0 0 75 c0
75 0 75 27 75 14 0 35 -7 45 -17z"/>
<path d="M4670 3665 l0 -95 43 0 c23 0 53 7 65 16 25 17 29 56 7 74 -13 11
-13 14 0 27 20 19 19 29 -5 53 -14 14 -33 20 -65 20 l-45 0 0 -95z m95 45 c0
-21 -5 -26 -32 -28 -31 -3 -33 -1 -33 28 0 29 2 31 33 28 27 -2 32 -7 32 -28z
m12 -66 c10 -26 -11 -49 -46 -52 -30 -3 -31 -2 -31 32 0 34 2 36 35 36 24 0
38 -5 42 -16z"/>
<path d="M5330 3665 c0 -111 18 -130 22 -22 l3 72 29 -73 c16 -40 34 -71 39
-69 5 1 21 33 36 69 14 37 29 70 33 73 4 4 4 -27 1 -69 -4 -54 -3 -76 6 -76 7
0 11 31 11 96 0 116 -12 120 -54 16 -16 -39 -32 -69 -36 -67 -3 2 -19 36 -35
74 -40 101 -55 94 -55 -24z"/>
<path d="M7112 3744 c-40 -28 -19 -74 40 -89 38 -10 54 -31 38 -50 -19 -23
-66 -19 -84 7 -17 24 -30 21 -21 -5 9 -21 60 -40 90 -33 32 8 49 39 35 65 -5
11 -30 27 -55 37 -37 14 -45 21 -43 38 5 32 56 35 80 4 14 -18 18 -20 18 -6 0
19 -36 48 -60 48 -9 0 -26 -7 -38 -16z"/>
<path d="M7276 3739 c-22 -17 -26 -28 -26 -73 0 -60 17 -83 72 -96 18 -4 41
-11 51 -15 17 -7 18 -6 6 13 -11 17 -11 24 -1 34 6 6 12 36 12 64 0 45 -4 56
-26 73 -15 12 -34 21 -44 21 -10 0 -29 -9 -44 -21z m75 -9 c15 -9 19 -22 19
-65 0 -43 -4 -56 -19 -65 -48 -25 -81 1 -81 65 0 64 33 90 81 65z"/>
<path d="M7440 3665 l0 -95 55 0 c30 0 55 5 55 10 0 6 -20 10 -45 10 l-45 0 0
85 c0 50 -4 85 -10 85 -6 0 -10 -38 -10 -95z"/>
<path d="M8070 3665 c0 -57 4 -95 10 -95 6 0 10 18 10 40 l0 40 40 0 c22 0 40
5 40 10 0 6 -18 10 -40 10 -39 0 -40 1 -40 35 0 35 0 35 45 35 25 0 45 5 45
10 0 6 -25 10 -55 10 l-55 0 0 -95z"/>
<path d="M2900 3710 c0 -5 5 -10 10 -10 6 0 10 5 10 10 0 6 -4 10 -10 10 -5 0
-10 -4 -10 -10z"/>
<path d="M3900 3700 c-40 -40 -14 -130 38 -130 38 0 62 29 62 75 0 34 -5 47
-22 59 -30 21 -54 20 -78 -4z m76 -29 c9 -17 9 -32 2 -53 -8 -24 -15 -29 -36
-26 -34 4 -51 46 -34 83 15 33 51 31 68 -4z"/>
<path d="M4040 3645 c0 -87 18 -102 22 -19 3 60 20 83 52 71 12 -5 16 -20 16
-67 0 -33 4 -60 10 -60 17 0 12 116 -6 134 -18 19 -28 20 -55 6 -13 -7 -19 -7
-19 0 0 5 -4 10 -10 10 -6 0 -10 -32 -10 -75z"/>
<path d="M4213 3712 c-23 -15 -34 -63 -23 -98 12 -35 37 -49 70 -39 21 7 25
-1 11 -24 -6 -10 -20 -12 -47 -8 -36 6 -37 5 -20 -8 25 -19 46 -19 74 1 20 14
22 24 22 100 0 49 -4 84 -10 84 -5 0 -10 -5 -10 -12 0 -9 -3 -9 -12 0 -14 14
-37 15 -55 4z m62 -67 c0 -49 -1 -50 -29 -50 -36 0 -53 37 -36 79 8 22 15 27
38 24 25 -3 27 -6 27 -53z"/>
<path d="M4360 3702 c-47 -38 -18 -132 41 -132 31 0 59 36 59 75 0 63 -54 94
-100 57z m68 -14 c7 -7 12 -26 12 -43 0 -50 -42 -74 -70 -40 -39 47 16 125 58
83z"/>
<path d="M5579 3701 c-47 -38 -18 -131 41 -131 24 0 60 46 60 75 0 29 -36 75
-60 75 -10 0 -28 -8 -41 -19z m73 -26 c18 -40 0 -80 -36 -80 -36 0 -52 37 -37
78 14 37 57 37 73 2z"/>
<path d="M5710 3645 c0 -43 4 -75 10 -75 6 0 10 22 10 48 0 55 18 86 46 80 16
-3 19 -13 22 -66 4 -82 22 -80 22 2 0 77 -15 96 -61 79 -16 -6 -29 -7 -29 -2
0 5 -4 9 -10 9 -6 0 -10 -32 -10 -75z"/>
<path d="M5875 3698 c-20 -29 -19 -78 1 -107 13 -18 23 -22 46 -17 24 5 29 3
26 -12 -3 -13 -13 -17 -41 -16 -20 1 -37 -2 -37 -7 0 -14 58 -21 79 -9 19 10
21 20 21 98 l0 87 -40 2 c-31 2 -43 -2 -55 -19z m70 -53 c0 -40 -4 -50 -18
-53 -27 -5 -47 17 -47 52 0 38 17 58 45 54 17 -3 20 -11 20 -53z"/>
<path d="M6030 3700 c-40 -40 -14 -130 38 -130 38 0 62 29 62 75 0 34 -5 47
-22 59 -30 21 -54 20 -78 -4z m69 -14 c17 -20 10 -77 -11 -90 -26 -16 -52 4
-56 43 -4 36 12 61 38 61 10 0 23 -6 29 -14z"/>
<path d="M6189 3701 c-47 -38 -18 -131 41 -131 24 0 60 46 60 75 0 29 -36 75
-60 75 -10 0 -28 -8 -41 -19z m73 -26 c18 -40 0 -80 -36 -80 -36 0 -52 37 -37
78 14 37 57 37 73 2z"/>
<path d="M6338 3709 c-32 -18 -22 -49 22 -66 47 -19 57 -53 16 -53 -14 0 -28
5 -31 10 -8 13 -25 13 -25 0 0 -20 48 -34 75 -22 41 19 34 56 -15 75 -22 8
-40 20 -40 27 0 17 31 24 52 11 27 -16 38 -3 14 15 -23 16 -44 17 -68 3z"/>
<path d="M6480 3702 c-31 -25 -32 -88 -1 -113 28 -23 51 -24 77 -4 18 13 16
14 -19 12 -31 -2 -42 3 -54 21 -15 22 -15 22 36 22 47 0 51 2 51 23 0 27 -28
57 -52 57 -9 0 -26 -8 -38 -18z m68 -24 c3 -15 -4 -18 -32 -18 -34 0 -47 15
-29 34 13 13 58 1 61 -16z"/>
<path d="M8220 3645 c0 -43 4 -75 10 -75 6 0 10 32 10 75 0 43 -4 75 -10 75
-6 0 -10 -32 -10 -75z"/>
<path d="M8280 3645 c0 -43 4 -75 10 -75 6 0 10 26 10 59 0 51 3 61 20 66 11
3 20 11 20 16 0 13 -14 11 -28 -3 -9 -9 -12 -9 -12 0 0 7 -4 12 -10 12 -6 0
-10 -32 -10 -75z"/>
<path d="M8391 3703 c-11 -10 -24 -32 -27 -50 -5 -26 -1 -37 19 -57 29 -29 54
-33 83 -12 17 14 16 15 -25 13 -37 -2 -45 1 -52 21 -8 21 -6 22 41 22 43 0 50
3 50 20 0 23 -33 60 -54 60 -8 0 -23 -8 -35 -17z m57 -15 c20 -20 14 -28 -23
-28 -22 0 -35 5 -35 13 0 28 36 37 58 15z"/>
<path d="M8679 3700 c-20 -16 -21 -19 -6 -20 9 0 17 5 17 11 0 6 12 9 27 7 36
-4 45 -38 11 -38 -32 0 -68 -27 -68 -50 0 -28 36 -45 66 -31 15 6 24 7 24 1 0
-6 5 -10 10 -10 6 0 10 26 10 59 0 86 -38 116 -91 71z m71 -73 c0 -18 -21 -37
-41 -37 -22 0 -33 16 -25 35 7 19 66 20 66 2z"/>
<path d="M8828 3709 c-21 -12 -24 -42 -5 -56 6 -6 24 -13 40 -17 30 -7 36 -33
11 -43 -9 -3 -25 -1 -36 6 -27 16 -38 3 -14 -15 23 -17 40 -18 67 -4 38 21 20
62 -34 75 -15 4 -27 14 -27 21 0 21 29 29 52 15 27 -16 38 -3 14 15 -23 16
-44 17 -68 3z"/>
<path d="M8971 3703 c-11 -10 -24 -32 -27 -50 -5 -26 -1 -37 19 -57 29 -29 54
-33 83 -12 17 14 16 15 -25 13 -37 -2 -45 1 -52 21 -8 21 -6 22 41 22 43 0 50
3 50 20 0 23 -33 60 -54 60 -8 0 -23 -8 -35 -17z m57 -15 c20 -20 14 -28 -23
-28 -22 0 -35 5 -35 13 0 28 36 37 58 15z"/>
<path d="M6701 3663 c1 -28 3 -31 6 -13 l5 24 13 -24 13 -23 8 24 8 24 7 -25
c6 -22 7 -20 8 13 1 41 -14 50 -25 15 l-7 -23 -8 23 c-13 35 -29 26 -28 -15z"/>
<path d="M6835 3689 c-4 -6 1 -17 11 -24 17 -13 17 -16 4 -25 -13 -8 -13 -10
3 -10 10 0 17 8 17 19 0 10 -8 22 -17 26 -17 7 -16 8 2 15 16 7 17 9 3 9 -9 1
-20 -4 -23 -10z"/>
<path d="M6884 3686 c-10 -26 1 -51 24 -54 16 -2 22 2 22 15 1 17 1 17 11 1 5
-10 18 -18 27 -17 10 0 12 3 5 6 -7 2 -13 18 -13 34 0 29 -14 39 -23 17 -4
-10 -6 -10 -6 0 -1 17 -40 15 -47 -2z m36 -22 c0 -31 -23 -28 -28 4 -2 15 2
22 12 22 11 0 16 -9 16 -26z"/>
<path d="M6784 3646 c1 -37 1 -37 19 -15 9 12 16 29 16 38 -1 13 -2 13 -6 -2
-4 -17 -6 -17 -17 -1 -11 14 -12 11 -12 -20z"/>
<path d="M2900 3630 c0 -5 5 -10 10 -10 6 0 10 5 10 10 0 6 -4 10 -10 10 -5 0
-10 -4 -10 -10z"/>
<path d="M4840 3588 c0 -7 -3 -24 -6 -38 -5 -24 -5 -24 10 -6 18 22 21 56 6
56 -5 0 -10 -6 -10 -12z"/>
<path d="M6598 3570 c-3 -19 -1 -29 6 -27 14 4 21 57 8 57 -5 0 -12 -14 -14
-30z"/>
<path d="M7580 3581 c0 -11 -3 -28 -6 -38 -5 -16 -4 -16 10 1 18 22 21 56 6
56 -5 0 -10 -9 -10 -19z"/>
<path d="M3277 3142 c-14 -15 -17 -40 -17 -131 0 -62 5 -121 10 -132 10 -17
22 -19 138 -19 86 0 132 4 140 12 8 8 12 52 12 133 0 158 3 155 -152 155 -99
0 -117 -3 -131 -18z m197 -74 c8 -13 8 -23 -1 -37 -10 -15 -9 -22 2 -31 21
-18 18 -57 -4 -70 -11 -5 -45 -10 -75 -10 l-56 0 0 85 0 86 61 -3 c46 -2 65
-8 73 -20z"/>
<path d="M3370 3045 c0 -24 3 -26 38 -23 29 2 37 7 37 23 0 16 -8 21 -37 23
-35 3 -38 1 -38 -23z"/>
<path d="M3370 2970 c0 -27 3 -30 34 -30 19 0 39 7 47 16 11 14 10 18 -6 30
-10 8 -31 14 -47 14 -24 0 -28 -4 -28 -30z"/>
<path d="M5226 3107 c-21 -45 37 -97 91 -82 l28 8 -37 7 c-47 8 -66 24 -71 58
-3 23 -4 24 -11 9z"/>
<path d="M6447 3113 c-4 -3 -7 -21 -7 -39 0 -27 -6 -37 -30 -49 -39 -20 -39
-51 0 -73 23 -13 30 -24 30 -48 0 -46 21 -59 61 -38 30 15 34 15 61 -1 36 -21
58 -7 58 39 0 24 7 35 30 48 39 22 39 53 0 73 -25 13 -30 22 -30 51 0 22 -6
37 -16 41 -17 6 -70 -14 -61 -24 4 -3 13 0 22 7 23 19 45 5 45 -30 0 -28 -3
-31 -21 -25 -12 4 -37 23 -56 41 -31 31 -70 44 -86 27z m59 -17 c17 -13 17
-16 4 -30 -23 -22 -54 -24 -58 -3 -9 43 17 59 54 33z m34 -36 c0 -5 -5 -10
-11 -10 -5 0 -7 5 -4 10 3 6 8 10 11 10 2 0 4 -4 4 -10z m32 -45 c17 -38 -3
-75 -40 -75 -20 0 -33 7 -42 25 -19 36 2 75 42 75 21 0 32 -7 40 -25z m-92 11
c0 -3 -4 -8 -10 -11 -5 -3 -10 -1 -10 4 0 6 5 11 10 11 6 0 10 -2 10 -4z m120
-6 c0 -5 -2 -10 -4 -10 -3 0 -8 5 -11 10 -3 6 -1 10 4 10 6 0 11 -4 11 -10z
m-145 -19 c6 -20 -3 -51 -15 -51 -4 0 -18 9 -31 20 -24 20 -24 20 -5 35 26 20
43 19 51 -4z m201 4 c19 -15 19 -15 -5 -35 -29 -25 -37 -25 -44 1 -12 45 12
62 49 34z m-64 -57 c-7 -7 -12 -8 -12 -2 0 14 12 26 19 19 2 -3 -1 -11 -7 -17z
m-112 2 c0 -5 -2 -10 -4 -10 -3 0 -8 5 -11 10 -3 6 -1 10 4 10 6 0 11 -4 11
-10z m31 -36 c11 -14 10 -18 -6 -30 -28 -21 -50 -13 -53 19 -3 23 0 27 21 27
14 0 31 -7 38 -16z m29 6 c0 -5 -4 -10 -10 -10 -5 0 -10 5 -10 10 0 6 5 10 10
10 6 0 10 -4 10 -10z m70 -20 c0 -32 -16 -38 -51 -20 -16 9 -17 14 -6 30 6 11
22 20 34 20 19 0 23 -6 23 -30z"/>
<path d="M6505 3000 c-10 -17 20 -44 40 -36 9 3 15 14 13 23 -4 21 -43 30 -53
13z"/>
<path d="M5157 3087 c-16 -42 -7 -79 27 -113 29 -29 41 -34 79 -34 30 0 53 7
68 20 26 21 19 26 -13 9 -28 -15 -87 3 -118 36 -13 13 -26 42 -29 62 -5 29 -8
34 -14 20z"/>
<path d="M582 2998 c0 -40 3 -58 5 -40 4 28 8 32 34 32 16 0 29 5 29 10 0 6
-13 10 -30 10 -23 0 -30 4 -30 20 0 16 7 20 35 20 19 0 35 5 35 10 0 6 -18 10
-40 10 l-40 0 2 -72z"/>
<path d="M680 3000 c0 -40 4 -70 10 -70 6 0 10 11 10 25 0 18 5 25 20 25 12 0
25 -10 32 -25 6 -14 15 -25 20 -25 5 0 2 13 -6 28 -13 26 -13 31 1 44 31 32
-2 67 -64 68 -22 0 -23 -4 -23 -70z m75 25 c0 -14 -8 -21 -27 -23 -24 -3 -28
0 -28 23 0 23 4 26 28 23 19 -2 27 -9 27 -23z"/>
<path d="M839 3043 c-28 -71 -39 -107 -34 -111 2 -3 7 3 11 12 4 10 18 16 39
16 21 0 35 -6 39 -16 4 -9 9 -14 12 -11 7 7 -36 126 -47 133 -5 3 -14 -7 -20
-23z m36 -40 c5 -20 3 -23 -19 -23 -24 0 -24 2 -14 31 11 32 21 29 33 -8z"/>
<path d="M942 2998 l1 -73 6 60 6 60 16 -36 c9 -20 20 -46 24 -58 9 -29 17
-19 41 44 l19 50 6 -60 6 -60 1 73 c1 39 -2 72 -7 72 -4 0 -16 -21 -26 -47
-10 -27 -21 -52 -25 -56 -4 -4 -16 16 -27 44 -30 79 -43 75 -41 -13z"/>
<path d="M1110 3000 l0 -70 40 0 c22 0 40 5 40 10 0 6 -16 10 -35 10 -28 0
-35 4 -35 20 0 16 7 20 30 20 17 0 30 5 30 10 0 6 -13 10 -30 10 -23 0 -30 4
-30 20 0 16 7 20 35 20 19 0 35 5 35 10 0 6 -18 10 -40 10 l-40 0 0 -70z"/>
<path d="M1210 3065 c0 -21 34 -135 40 -135 5 0 13 22 20 50 7 27 15 48 20 45
4 -2 13 -25 19 -50 6 -25 15 -45 19 -45 4 0 14 32 23 70 9 39 12 70 8 70 -5 0
-11 -17 -15 -37 -11 -65 -21 -71 -35 -22 -18 65 -25 66 -39 10 -7 -28 -16 -51
-20 -51 -4 0 -11 20 -14 45 -4 24 -11 47 -17 50 -5 4 -9 3 -9 0z"/>
<path d="M1417 3059 c-43 -25 -41 -96 3 -119 17 -9 26 -8 46 5 33 21 34 87 2
109 -26 19 -27 19 -51 5z m51 -21 c7 -7 12 -24 12 -38 0 -32 -17 -50 -47 -50
-26 0 -39 34 -29 75 7 27 42 35 64 13z"/>
<path d="M1520 3000 c0 -40 4 -70 10 -70 6 0 10 11 10 25 0 18 5 25 20 25 12
0 25 -10 32 -25 6 -14 15 -25 20 -25 5 0 2 13 -6 28 -13 26 -13 31 1 44 31 32
-2 67 -64 68 -22 0 -23 -4 -23 -70z m75 25 c0 -14 -8 -21 -27 -23 -24 -3 -28
0 -28 23 0 23 4 26 28 23 19 -2 27 -9 27 -23z"/>
<path d="M1640 3000 c0 -40 4 -70 10 -70 6 0 10 11 10 24 0 39 19 41 50 5 35
-41 39 -26 5 16 l-24 29 25 33 c14 18 21 33 15 33 -5 0 -19 -13 -31 -30 -12
-16 -26 -30 -31 -30 -5 0 -9 14 -9 30 0 17 -4 30 -10 30 -6 0 -10 -30 -10 -70z"/>
<path d="M1782 3054 c-28 -19 -16 -47 28 -62 40 -14 40 -42 1 -42 -16 0 -31 6
-34 13 -2 6 -7 10 -10 7 -10 -10 8 -28 33 -35 32 -8 66 16 57 39 -4 9 -23 24
-42 32 -44 18 -47 44 -5 44 17 0 30 -4 30 -10 0 -5 6 -10 13 -10 12 1 -29 40
-42 40 -4 0 -17 -7 -29 -16z"/>
<path d="M1912 3033 c-15 -48 -8 -55 8 -8 7 20 10 38 8 41 -3 2 -10 -13 -16
-33z"/>
<path d="M1960 3000 l0 -70 40 0 c22 0 40 5 40 10 0 6 -13 10 -30 10 l-30 0 0
60 c0 33 -4 60 -10 60 -6 0 -10 -30 -10 -70z"/>
<path d="M2070 3000 c0 -40 4 -70 10 -70 6 0 10 30 10 70 0 40 -4 70 -10 70
-6 0 -10 -30 -10 -70z"/>
<path d="M2120 3000 l0 -70 34 0 c46 0 84 38 56 55 -5 3 -7 19 -4 34 7 33 -15
51 -60 51 -25 0 -26 -2 -26 -70z m75 30 c0 -9 -11 -16 -27 -18 -23 -3 -28 1
-28 18 0 17 5 21 28 18 16 -2 27 -9 27 -18z m-11 -36 c9 -3 16 -15 16 -25 0
-14 -7 -19 -30 -19 -22 0 -30 5 -30 18 0 30 13 38 44 26z"/>
<path d="M2251 2998 c1 -40 4 -61 6 -45 6 35 36 36 59 2 19 -29 31 -27 15 3
-7 14 -7 29 2 51 11 29 10 34 -7 47 -11 8 -32 14 -48 14 l-28 0 1 -72z m69 27
c0 -21 -5 -25 -30 -25 -25 0 -30 4 -30 25 0 21 5 25 30 25 25 0 30 -4 30 -25z"/>
<path d="M2399 3043 c-28 -71 -39 -107 -34 -111 2 -3 7 3 11 12 4 10 18 16 39
16 21 0 35 -6 39 -16 4 -9 9 -14 12 -11 7 7 -36 126 -47 133 -5 3 -14 -7 -20
-23z m36 -40 c5 -20 3 -23 -19 -23 -24 0 -24 2 -14 31 11 32 21 29 33 -8z"/>
<path d="M2501 2998 c1 -40 4 -61 6 -45 6 35 36 36 59 2 19 -29 31 -27 15 3
-7 14 -7 29 2 51 11 29 10 34 -7 47 -11 8 -32 14 -48 14 l-28 0 1 -72z m69 27
c0 -21 -5 -25 -30 -25 -25 0 -30 4 -30 25 0 21 5 25 30 25 25 0 30 -4 30 -25z"/>
<path d="M2620 3000 c0 -40 4 -70 10 -70 6 0 10 30 10 70 0 40 -4 70 -10 70
-6 0 -10 -30 -10 -70z"/>
<path d="M2670 3000 l0 -70 45 0 c25 0 45 5 45 10 0 6 -16 10 -35 10 -28 0
-35 4 -35 20 0 16 7 20 30 20 17 0 30 5 30 10 0 6 -13 10 -30 10 -23 0 -30 4
-30 20 0 16 7 20 35 20 19 0 35 5 35 10 0 6 -20 10 -45 10 l-45 0 0 -70z"/>
<path d="M2795 3056 c-25 -18 -13 -44 31 -62 19 -8 34 -20 31 -27 -5 -17 -45
-21 -63 -7 -9 9 -14 9 -14 2 0 -21 41 -35 66 -23 36 16 31 49 -11 67 -40 16
-47 44 -12 44 13 0 28 -5 35 -12 9 -9 12 -9 12 0 0 11 -31 32 -47 32 -5 0 -18
-6 -28 -14z"/>
<path d="M5072 3053 c-40 -72 32 -192 127 -208 49 -8 123 21 142 57 l12 23
-23 -20 c-36 -32 -126 -28 -173 8 -45 34 -59 59 -67 117 -5 42 -6 43 -18 23z"/>
<path d="M7831 3007 c-12 -24 -21 -63 -21 -87 0 -44 34 -130 51 -130 5 0 0 17
-11 37 -13 25 -20 57 -20 93 0 36 7 68 20 93 11 20 16 37 11 37 -5 0 -19 -19
-30 -43z"/>
<path d="M8970 2945 c0 -63 4 -105 10 -105 6 0 10 10 10 23 0 12 5 29 10 37 8
13 11 12 24 -5 37 -52 45 -59 52 -53 4 4 -5 23 -20 42 -14 19 -26 38 -26 42 0
4 12 21 27 36 20 21 23 28 11 28 -9 0 -26 -13 -38 -30 -12 -16 -26 -30 -31
-30 -5 0 -9 27 -9 60 0 33 -4 60 -10 60 -6 0 -10 -42 -10 -105z"/>
<path d="M9261 3013 c12 -23 19 -58 19 -93 0 -35 -7 -70 -19 -93 -10 -20 -15
-37 -10 -37 19 0 49 80 49 130 0 50 -30 130 -49 130 -5 0 0 -17 10 -37z"/>
<path d="M9440 3000 l0 -50 40 0 c22 0 40 -4 40 -10 0 -5 16 -10 35 -10 19 0
35 5 35 10 0 6 32 10 75 10 l75 0 0 50 0 50 -150 0 -150 0 0 -50z m79 -7 c-1
-28 -3 -31 -6 -13 -7 40 -23 48 -23 12 0 -22 -5 -32 -15 -32 -10 0 -15 11 -15
35 0 32 2 35 30 35 28 0 30 -2 29 -37z m91 2 c0 -21 -5 -35 -12 -35 -7 0 -23
-3 -35 -6 -21 -6 -23 -3 -23 35 0 40 1 41 35 41 33 0 35 -2 35 -35z m109 -2
c-2 -31 -3 -33 -6 -10 -2 15 -9 27 -14 27 -5 0 -10 -12 -10 -27 l-2 -28 -4 28
c-5 34 -23 36 -23 2 0 -16 -6 -25 -15 -25 -10 0 -15 11 -15 35 0 35 0 35 45
35 l45 0 -1 -37z"/>
<path d="M9570 2995 c0 -8 5 -15 10 -15 6 0 10 7 10 15 0 8 -4 15 -10 15 -5 0
-10 -7 -10 -15z"/>
<path d="M8106 3032 c-3 -6 -1 -14 5 -17 15 -10 25 3 12 16 -7 7 -13 7 -17 1z"/>
<path d="M8260 2940 c0 -60 4 -100 10 -100 6 0 10 27 10 60 0 56 2 60 26 66
34 9 44 -7 44 -73 0 -29 5 -53 10 -53 17 0 12 116 -6 134 -18 19 -28 20 -55 6
-17 -10 -19 -7 -19 25 0 19 -4 35 -10 35 -6 0 -10 -40 -10 -100z"/>
<path d="M2900 3020 c0 -5 5 -10 10 -10 6 0 10 5 10 10 0 6 -4 10 -10 10 -5 0
-10 -4 -10 -10z"/>
<path d="M3650 2935 l0 -95 43 0 c23 0 53 7 65 16 25 17 29 56 7 74 -13 11
-13 14 0 27 20 19 19 29 -5 53 -14 14 -33 20 -65 20 l-45 0 0 -95z m95 45 c0
-21 -5 -26 -32 -28 -31 -3 -33 -1 -33 28 0 29 2 31 33 28 27 -2 32 -7 32 -28z
m12 -66 c10 -26 -11 -49 -46 -52 -30 -3 -31 -2 -31 32 0 34 2 36 35 36 24 0
38 -5 42 -16z"/>
<path d="M5540 2964 c0 -97 -26 -129 -72 -87 -10 9 -21 13 -26 9 -10 -10 36
-46 59 -46 41 0 59 35 59 115 0 43 -4 75 -10 75 -6 0 -10 -29 -10 -66z"/>
<path d="M5626 3009 c-22 -17 -26 -28 -26 -73 0 -60 17 -83 72 -96 18 -4 41
-11 51 -15 17 -7 18 -6 6 13 -11 17 -11 24 -1 34 6 6 12 36 12 64 0 45 -4 56
-26 73 -15 12 -34 21 -44 21 -10 0 -29 -9 -44 -21z m75 -9 c15 -9 19 -22 19
-65 0 -43 -4 -56 -19 -65 -48 -25 -81 1 -81 65 0 64 33 90 81 65z"/>
<path d="M6770 2935 c0 -57 4 -95 10 -95 6 0 10 18 10 40 0 37 2 40 28 40 24
0 32 -7 47 -40 10 -22 24 -40 32 -40 10 0 8 10 -9 39 -21 37 -22 40 -5 58 41
46 5 93 -70 93 l-43 0 0 -95z m101 59 c20 -24 -1 -48 -45 -52 -35 -3 -36 -2
-36 32 0 34 2 36 34 36 18 0 39 -7 47 -16z"/>
<path d="M7540 2957 c0 -43 -5 -78 -12 -85 -17 -17 -47 -15 -54 3 -4 8 -13 15
-20 15 -12 0 -12 -4 -4 -20 15 -28 55 -36 85 -16 23 15 25 22 25 96 0 47 -4
80 -10 80 -6 0 -10 -31 -10 -73z"/>
<path d="M8480 2935 c0 -57 4 -95 10 -95 6 0 10 20 10 45 l0 45 50 0 50 0 0
-45 c0 -25 5 -45 10 -45 6 0 10 38 10 95 0 57 -4 95 -10 95 -5 0 -10 -18 -10
-40 l0 -40 -50 0 -50 0 0 40 c0 22 -4 40 -10 40 -6 0 -10 -38 -10 -95z"/>
<path d="M9830 2935 c0 -57 4 -95 10 -95 6 0 10 30 10 70 0 39 3 70 8 70 4 0
27 -32 52 -70 25 -38 51 -70 58 -70 9 0 12 26 12 95 0 57 -4 95 -10 95 -6 0
-10 -30 -10 -70 0 -38 -3 -70 -7 -70 -5 0 -28 32 -53 70 -25 38 -51 70 -57 70
-10 0 -13 -26 -13 -95z"/>
<path d="M10020 2935 c0 -78 3 -95 15 -95 10 0 15 11 15 35 0 33 2 35 35 35
39 0 75 28 75 60 0 37 -35 60 -90 60 l-50 0 0 -95z m114 53 c17 -27 -5 -52
-48 -56 l-36 -3 0 41 0 41 36 -3 c22 -2 42 -10 48 -20z"/>
<path d="M10190 2935 c0 -81 2 -95 16 -95 14 0 15 10 9 78 -8 89 -1 87 39 -10
16 -38 32 -68 36 -68 4 0 20 33 36 73 l29 72 3 -72 c4 -108 22 -89 22 22 0
120 -16 126 -56 20 -16 -41 -31 -75 -35 -75 -3 0 -19 34 -35 75 -21 54 -34 75
-46 75 -16 0 -18 -11 -18 -95z"/>
<path d="M4130 3006 c0 -8 -6 -17 -12 -20 -10 -5 -10 -7 0 -12 7 -3 12 -24 12
-50 0 -51 14 -84 35 -84 19 0 19 16 0 24 -11 4 -15 20 -15 56 0 38 4 50 15 50
8 0 15 5 15 10 0 6 -7 10 -15 10 -8 0 -15 7 -15 15 0 8 -4 15 -10 15 -5 0 -10
-6 -10 -14z"/>
<path d="M4360 3006 c0 -8 -6 -17 -12 -19 -10 -4 -10 -7 -1 -14 6 -5 13 -33
15 -62 3 -53 26 -87 45 -67 4 4 0 12 -10 17 -23 13 -25 109 -2 109 8 0 15 5
15 10 0 6 -7 10 -15 10 -8 0 -15 7 -15 15 0 8 -4 15 -10 15 -5 0 -10 -6 -10
-14z"/>
<path d="M7370 3006 c0 -8 -6 -17 -12 -20 -10 -5 -10 -7 0 -12 7 -3 12 -24 12
-50 0 -51 14 -84 35 -84 19 0 19 16 0 24 -11 4 -15 20 -15 56 0 38 4 50 15 50
8 0 15 5 15 10 0 6 -7 10 -15 10 -8 0 -15 7 -15 15 0 8 -4 15 -10 15 -5 0 -10
-6 -10 -14z"/>
<path d="M8180 3005 c0 -8 -7 -15 -15 -15 -8 0 -15 -4 -15 -10 0 -5 7 -10 15
-10 12 0 15 -13 15 -60 0 -45 4 -62 15 -67 9 -3 19 -2 23 2 4 4 1 10 -5 12 -8
3 -13 24 -13 58 0 33 5 56 13 59 10 5 10 7 0 12 -7 3 -13 12 -13 20 0 8 -4 14
-10 14 -5 0 -10 -7 -10 -15z"/>
<path d="M3839 2971 c-47 -38 -18 -131 41 -131 24 0 60 46 60 75 0 29 -36 75
-60 75 -10 0 -28 -8 -41 -19z m73 -26 c18 -40 0 -80 -36 -80 -36 0 -52 37 -37
78 14 37 57 37 73 2z"/>
<path d="M3990 2970 c-40 -40 -14 -130 38 -130 38 0 62 29 62 75 0 34 -5 47
-22 59 -30 21 -54 20 -78 -4z m69 -14 c17 -20 10 -77 -11 -90 -26 -16 -52 4
-56 43 -4 36 12 61 38 61 10 0 23 -6 29 -14z"/>
<path d="M4226 2971 c-23 -25 -12 -46 36 -64 24 -10 38 -21 36 -29 -6 -18 -46
-22 -64 -7 -21 17 -28 5 -9 -15 21 -20 59 -21 79 0 27 26 18 44 -30 64 -26 12
-44 25 -42 33 6 17 49 21 59 6 4 -8 11 -10 15 -6 11 11 -17 37 -41 37 -12 0
-29 -8 -39 -19z"/>
<path d="M4440 2915 c0 -43 4 -75 10 -75 6 0 10 24 10 54 0 45 4 58 22 70 12
9 19 19 15 22 -4 4 -13 1 -22 -6 -10 -8 -15 -9 -15 -1 0 6 -4 11 -10 11 -6 0
-10 -32 -10 -75z"/>
<path d="M4544 2976 c-24 -18 -13 -31 14 -15 11 7 27 9 36 6 23 -9 20 -37 -5
-37 -33 0 -59 -19 -59 -44 0 -32 18 -44 65 -43 l41 2 -4 60 c-5 79 -39 107
-88 71z m64 -88 c-3 -26 -32 -35 -53 -18 -21 18 -6 40 27 40 25 0 29 -4 26
-22z"/>
<path d="M4680 2888 c0 -59 4 -98 10 -98 6 0 10 14 10 30 0 28 2 30 25 24 39
-10 65 19 65 71 0 53 -22 75 -73 72 l-37 -2 0 -97z m79 68 c17 -20 10 -77 -10
-89 -30 -19 -49 -1 -49 46 0 24 3 47 7 50 11 12 40 8 52 -7z"/>
<path d="M4848 2979 c-10 -5 -18 -21 -18 -35 0 -19 6 -26 30 -30 33 -7 55 -28
45 -44 -8 -13 -52 -13 -60 0 -3 6 -11 10 -17 10 -6 0 -3 -9 7 -20 29 -33 95
-19 95 19 0 23 -16 37 -53 46 -36 9 -38 45 -3 45 14 0 28 -4 31 -10 3 -5 11
-10 17 -10 6 0 3 9 -7 20 -20 22 -41 25 -67 9z"/>
<path d="M5782 2925 c2 -35 7 -68 12 -72 4 -4 27 -8 52 -9 l44 -2 0 74 c0 90
-18 99 -22 12 -3 -58 -5 -63 -27 -66 -31 -5 -41 12 -41 76 0 31 -4 52 -11 52
-8 0 -10 -21 -7 -65z"/>
<path d="M5950 2970 c-40 -40 -14 -130 38 -130 10 0 27 7 38 15 18 14 17 14
-13 9 -35 -7 -63 8 -63 32 0 10 13 14 45 14 41 0 45 2 45 24 0 51 -53 73 -90
36z m68 -22 c3 -15 -4 -18 -32 -18 -38 0 -44 8 -24 28 17 17 52 11 56 -10z"/>
<path d="M6080 2913 c0 -42 4 -73 10 -73 6 0 10 27 10 61 0 52 3 62 20 66 30
8 24 20 -10 19 l-30 -1 0 -72z"/>
<path d="M6160 2987 c0 -2 11 -35 24 -74 25 -73 21 -103 -11 -103 -13 0 -14
-3 -5 -12 19 -19 47 17 72 97 13 39 25 76 28 83 2 6 -1 12 -7 12 -5 0 -16 -19
-22 -42 -18 -64 -25 -65 -44 -9 -9 28 -21 51 -26 51 -5 0 -9 -1 -9 -3z"/>
<path d="M6950 2970 c-40 -40 -14 -130 38 -130 10 0 27 7 38 15 18 14 17 14
-13 9 -35 -7 -63 8 -63 32 0 10 13 14 45 14 41 0 45 2 45 24 0 51 -53 73 -90
36z m68 -22 c3 -15 -4 -18 -32 -18 -38 0 -44 8 -24 28 17 17 52 11 56 -10z"/>
<path d="M7094 2976 c-24 -18 -13 -31 14 -15 11 7 27 9 36 6 23 -9 20 -37 -5
-37 -33 0 -59 -19 -59 -44 0 -32 18 -44 65 -43 l41 2 -4 60 c-5 79 -39 107
-88 71z m64 -88 c-3 -26 -32 -35 -53 -18 -21 18 -6 40 27 40 25 0 29 -4 26
-22z"/>
<path d="M7240 2970 c-39 -39 -14 -130 36 -130 25 0 54 20 54 37 0 15 -2 15
-18 0 -36 -33 -72 -14 -72 38 0 17 5 36 12 43 17 17 47 15 54 -3 8 -19 24 -19
24 0 0 16 -30 35 -54 35 -9 0 -25 -9 -36 -20z"/>
<path d="M7616 2971 c-23 -25 -12 -46 36 -64 24 -10 38 -21 36 -29 -6 -18 -46
-22 -64 -7 -21 17 -28 5 -9 -15 21 -20 59 -21 79 0 27 26 18 44 -30 64 -26 12
-44 25 -42 33 6 17 49 21 59 6 4 -8 11 -10 15 -6 11 11 -17 37 -41 37 -12 0
-29 -8 -39 -19z"/>
<path d="M7894 2973 c3 -10 12 -44 21 -75 19 -66 30 -73 40 -25 4 17 12 43 18
57 9 24 11 22 26 -28 9 -30 20 -54 25 -55 9 -2 46 103 46 131 0 19 -20 14 -21
-5 0 -10 -6 -36 -13 -58 l-12 -40 -17 58 c-10 31 -21 57 -26 57 -5 0 -14 -23
-21 -50 -7 -28 -15 -52 -19 -55 -5 -2 -13 20 -20 50 -7 30 -17 55 -22 55 -6 0
-8 -8 -5 -17z"/>
<path d="M8110 2915 c0 -43 4 -75 10 -75 6 0 10 32 10 75 0 43 -4 75 -10 75
-6 0 -10 -32 -10 -75z"/>
<path d="M8680 2970 c-40 -40 -14 -130 38 -130 38 0 62 29 62 75 0 34 -5 47
-22 59 -30 21 -54 20 -78 -4z m76 -29 c9 -17 9 -32 2 -53 -8 -24 -15 -29 -36
-26 -34 4 -51 46 -34 83 15 33 51 31 68 -4z"/>
<path d="M8840 2972 c-47 -38 -18 -132 41 -132 31 0 59 36 59 75 0 63 -54 94
-100 57z m68 -14 c7 -7 12 -26 12 -43 0 -50 -42 -74 -70 -40 -39 47 16 125 58
83z"/>
<path d="M9128 2979 c-32 -18 -22 -49 22 -66 47 -19 57 -53 16 -53 -14 0 -28
5 -31 10 -8 13 -25 13 -25 0 0 -20 48 -34 75 -22 41 19 34 56 -15 75 -22 8
-40 20 -40 27 0 17 31 24 52 11 27 -16 38 -3 14 15 -23 16 -44 17 -68 3z"/>
<path d="M1882 2951 c-6 -17 -9 -31 -6 -31 7 0 25 52 20 57 -2 2 -8 -10 -14
-26z"/>
<path d="M2900 2940 c0 -5 5 -10 10 -10 6 0 10 5 10 10 0 6 -4 10 -10 10 -5 0
-10 -4 -10 -10z"/>
<path d="M4968 2864 c-5 -4 -8 -21 -8 -38 1 -26 2 -28 11 -13 11 19 8 63 -3
51z"/>
<path d="M6278 2840 c-3 -19 -1 -29 6 -27 14 4 21 57 8 57 -5 0 -12 -14 -14
-30z"/>
<path d="M9338 2840 c-3 -19 -1 -29 6 -27 14 4 21 57 8 57 -5 0 -12 -14 -14
-30z"/>
<path d="M3385 2430 c-17 -19 -17 -20 14 -37 17 -10 33 -25 36 -33 3 -9 19
-24 36 -34 31 -19 34 -39 6 -44 -11 -2 -21 6 -26 21 -6 14 -15 28 -22 33 -9 5
-11 -7 -6 -55 6 -55 5 -62 -10 -59 -14 3 -17 15 -18 75 0 54 -4 77 -17 89 -16
16 -20 15 -63 -21 -26 -21 -49 -45 -53 -53 -4 -11 18 -38 67 -84 40 -37 78
-68 85 -68 15 0 146 132 146 147 0 12 -137 143 -150 143 -4 0 -15 -9 -25 -20z"/>
<path d="M4205 2440 c-16 -4 -40 -13 -52 -20 -30 -19 -63 -82 -63 -120 0 -42
34 -102 70 -123 35 -21 40 -21 40 -2 0 8 -6 15 -13 15 -8 0 -24 11 -37 25 -13
14 -19 25 -13 25 6 0 16 -7 23 -15 7 -8 19 -15 26 -15 22 0 16 27 -6 33 -29 8
-42 50 -28 95 l11 37 76 -1 76 0 9 -42 c7 -33 5 -47 -8 -67 -9 -14 -23 -25
-31 -25 -11 0 -15 -11 -15 -40 0 -46 3 -47 48 -20 56 34 77 115 48 185 -23 55
-96 89 -161 75z"/>
<path d="M7301 2395 c-54 -57 -59 -58 -98 -23 -14 13 -28 18 -43 13 -19 -6
-21 -13 -18 -83 3 -89 17 -100 70 -58 l33 25 57 -56 57 -56 41 18 40 18 0 113
0 112 -27 10 c-16 5 -35 13 -44 16 -10 5 -32 -11 -68 -49z m69 -90 c0 -30 -3
-55 -7 -55 -3 0 -22 12 -40 26 l-35 26 34 29 c18 15 36 28 41 29 4 0 7 -25 7
-55z m-160 0 c0 -7 -7 -18 -15 -25 -13 -11 -15 -7 -15 25 0 32 2 36 15 25 8
-7 15 -18 15 -25z"/>
<path d="M8656 2427 c-69 -39 -94 -117 -58 -187 24 -49 75 -80 131 -80 156 0
208 199 71 271 -46 25 -96 24 -144 -4z m161 -61 c-4 -9 -11 -16 -17 -16 -17 0
-24 31 -9 41 18 11 34 -5 26 -25z m-36 -19 c-1 -4 -1 -14 -1 -22 0 -8 -21 -30
-47 -49 -27 -20 -54 -41 -61 -47 -7 -6 -16 -9 -18 -6 -3 3 11 20 30 38 23 20
32 35 25 39 -6 4 2 17 22 34 29 25 52 31 50 13z"/>
<path d="M6080 2421 c-5 -11 -10 -30 -10 -43 0 -16 -9 -27 -30 -36 -36 -16
-40 -46 -7 -63 l22 -12 -20 22 c-19 22 -19 23 0 37 46 34 65 6 40 -60 -21 -54
-13 -86 20 -86 13 0 27 5 30 10 4 7 -2 9 -19 4 -24 -6 -26 -4 -25 27 0 19 4
43 8 54 7 18 9 18 24 -10 8 -17 32 -46 51 -65 30 -28 40 -32 54 -24 9 6 19 19
20 29 6 26 -7 79 -23 101 -12 16 -12 12 1 -28 30 -89 5 -123 -49 -66 -50 54
-63 83 -48 114 11 25 14 26 63 20 50 -7 108 -30 108 -43 0 -4 -7 -15 -17 -25
-18 -20 -4 -25 15 -6 34 34 -10 72 -98 84 l-54 7 34 29 c41 33 61 33 72 -2 6
-23 7 -23 5 5 -3 45 -36 45 -85 1 -50 -46 -72 -47 -72 -5 0 29 2 31 27 26 26
-5 26 -4 8 9 -25 19 -32 18 -45 -5z m30 -81 c0 -5 -4 -10 -10 -10 -5 0 -10 5
-10 10 0 6 5 10 10 10 6 0 10 -4 10 -10z"/>
<path d="M10218 2424 c-31 -16 -58 -61 -58 -96 0 -35 34 -83 70 -98 25 -10 42
-11 72 -3 39 10 42 10 70 -23 30 -34 68 -46 68 -21 0 7 -16 30 -34 51 -30 33
-34 41 -25 63 15 39 2 79 -37 113 -39 34 -81 39 -126 14z m113 -43 c16 -16 29
-39 29 -51 0 -30 -53 -80 -83 -80 -14 0 -39 12 -56 26 -39 32 -40 69 -6 107
35 37 77 36 116 -2z"/>
<path d="M10256 2383 c-4 -5 -12 -8 -17 -8 -5 0 -9 -4 -10 -10 0 -5 -5 -16
-11 -22 -7 -9 -7 -17 0 -25 6 -7 11 -17 11 -23 1 -5 4 -10 9 -11 4 0 15 -4 25
-8 10 -5 23 -3 31 3 7 6 16 8 19 4 4 -3 7 3 7 15 0 11 5 22 11 24 6 2 5 14 -5
33 -9 17 -16 26 -16 21 0 -6 -5 -5 -12 2 -14 14 -31 16 -42 5z"/>
<path d="M5353 2333 c-26 -39 -29 -148 -6 -192 10 -19 24 -37 31 -39 7 -2 4
11 -9 33 -30 51 -31 139 -1 189 24 41 11 50 -15 9z"/>
<path d="M5819 2328 c11 -18 22 -49 26 -69 8 -42 -10 -116 -33 -143 -14 -15
-14 -18 -2 -14 29 9 53 68 53 128 0 58 -24 119 -51 128 -8 2 -5 -9 7 -30z"/>
<path d="M3836 2342 c-3 -6 -1 -14 5 -17 15 -10 25 3 12 16 -7 7 -13 7 -17 1z"/>
<path d="M4660 2336 c0 -9 5 -16 10 -16 6 0 10 4 10 9 0 6 -4 13 -10 16 -5 3
-10 -1 -10 -9z"/>
<path d="M4810 2250 c0 -106 17 -140 22 -44 3 60 20 83 52 71 12 -5 16 -20 16
-67 0 -33 4 -60 10 -60 17 0 12 116 -6 134 -18 19 -28 20 -55 6 -17 -10 -19
-7 -19 25 0 19 -4 35 -10 35 -6 0 -10 -40 -10 -100z"/>
<path d="M5110 2250 c0 -60 4 -100 10 -100 6 0 10 5 10 12 0 9 3 9 12 0 34
-34 78 1 78 63 0 54 -21 79 -62 71 -26 -5 -28 -3 -28 24 0 17 -4 30 -10 30 -6
0 -10 -40 -10 -100z m90 4 c11 -27 4 -70 -12 -80 -5 -3 -20 -3 -34 0 -21 6
-24 12 -24 50 0 49 4 56 37 56 16 0 27 -8 33 -26z"/>
<path d="M8280 2319 c0 -29 -2 -30 -29 -24 -61 13 -98 -78 -51 -125 23 -23 33
-24 61 -10 13 7 19 7 19 0 0 -5 5 -10 10 -10 6 0 10 40 10 100 0 60 -4 100
-10 100 -5 0 -10 -14 -10 -31z m-11 -53 c17 -20 10 -77 -11 -90 -39 -24 -74
36 -48 84 12 23 42 26 59 6z"/>
<path d="M1190 2270 c0 -66 1 -70 23 -70 41 0 67 27 67 70 0 43 -26 70 -67 70
-22 0 -23 -4 -23 -70z m68 38 c15 -15 15 -61 0 -76 -7 -7 -22 -12 -35 -12 -21
0 -23 4 -23 50 0 46 2 50 23 50 13 0 28 -5 35 -12z"/>
<path d="M1310 2270 l0 -70 45 0 c25 0 45 5 45 10 0 6 -16 10 -35 10 -28 0
-35 4 -35 20 0 16 7 20 30 20 17 0 30 5 30 10 0 6 -13 10 -30 10 -23 0 -30 4
-30 20 0 16 7 20 35 20 19 0 35 5 35 10 0 6 -20 10 -45 10 l-45 0 0 -70z"/>
<path d="M1437 2273 c25 -70 30 -79 37 -72 12 11 54 139 46 139 -5 0 -17 -25
-26 -55 -10 -30 -21 -55 -24 -55 -3 0 -14 25 -24 55 -9 30 -21 55 -25 55 -5 0
2 -30 16 -67z"/>
<path d="M1550 2270 l0 -70 40 0 c22 0 40 5 40 10 0 6 -13 10 -30 10 -23 0
-30 4 -30 20 0 15 7 20 25 20 14 0 25 5 25 10 0 6 -11 10 -25 10 -18 0 -25 5
-25 20 0 16 7 20 30 20 17 0 30 5 30 10 0 6 -18 10 -40 10 l-40 0 0 -70z"/>
<path d="M1660 2270 l0 -70 40 0 c22 0 40 5 40 10 0 6 -13 10 -30 10 l-30 0 0
60 c0 33 -4 60 -10 60 -6 0 -10 -30 -10 -70z"/>
<path d="M1787 2329 c-43 -25 -41 -96 3 -119 17 -9 26 -8 46 5 33 21 34 87 2
109 -26 19 -27 19 -51 5z m51 -21 c7 -7 12 -24 12 -38 0 -32 -17 -50 -47 -50
-26 0 -39 34 -29 75 7 27 42 35 64 13z"/>
<path d="M1890 2270 c0 -40 4 -70 10 -70 6 0 10 11 10 25 0 19 5 25 21 25 34
0 59 19 59 45 0 28 -26 45 -69 45 l-31 0 0 -70z m83 38 c8 -24 -5 -38 -34 -38
-24 0 -29 4 -29 25 0 21 5 25 29 25 16 0 31 -6 34 -12z"/>
<path d="M2020 2270 l0 -70 40 0 c22 0 40 5 40 10 0 6 -13 10 -30 10 -23 0
-30 4 -30 20 0 15 7 20 25 20 14 0 25 5 25 10 0 6 -11 10 -25 10 -18 0 -25 5
-25 20 0 16 7 20 30 20 17 0 30 5 30 10 0 6 -18 10 -40 10 l-40 0 0 -70z"/>
<path d="M2130 2270 c0 -40 4 -70 10 -70 6 0 10 11 10 25 0 34 33 33 49 -1 6
-15 14 -24 17 -21 3 3 0 15 -6 27 -9 16 -9 25 -1 33 32 32 1 77 -53 77 -25 0
-26 -2 -26 -70z m73 38 c7 -23 -4 -38 -29 -38 -19 0 -24 5 -24 25 0 20 5 25
24 25 13 0 26 -6 29 -12z"/>
<path d="M2280 2330 c0 -5 11 -10 25 -10 23 0 24 -4 28 -62 l3 -63 2 63 c2 59
3 62 27 62 14 0 25 5 25 10 0 6 -25 10 -55 10 -30 0 -55 -4 -55 -10z"/>
<path d="M2437 2329 c-43 -25 -41 -96 3 -119 17 -9 26 -8 46 5 33 21 34 87 2
109 -26 19 -27 19 -51 5z m51 -21 c7 -7 12 -24 12 -38 0 -32 -17 -50 -47 -50
-26 0 -39 34 -29 75 7 27 42 35 64 13z"/>
<path d="M2560 2320 c-37 -37 -13 -120 35 -120 25 0 55 38 55 70 0 32 -30 70
-55 70 -8 0 -24 -9 -35 -20z m65 -50 c0 -43 -1 -45 -30 -45 -27 0 -30 4 -33
33 -5 50 4 64 35 60 26 -3 28 -6 28 -48z"/>
<path d="M2680 2270 l0 -70 40 0 c22 0 40 5 40 10 0 6 -13 10 -30 10 l-30 0 0
60 c0 33 -4 60 -10 60 -6 0 -10 -30 -10 -70z"/>
<path d="M2795 2326 c-25 -18 -13 -44 31 -62 19 -8 34 -20 31 -27 -5 -17 -45
-21 -63 -7 -9 9 -14 9 -14 2 0 -21 41 -35 66 -23 36 16 31 49 -11 67 -40 16
-47 44 -12 44 13 0 28 -5 35 -12 9 -9 12 -9 12 0 0 11 -31 32 -47 32 -5 0 -18
-6 -28 -14z"/>
<path d="M3675 2315 c-53 -53 -19 -165 50 -165 45 0 65 17 65 55 0 32 -2 35
-30 35 -16 0 -30 -4 -30 -10 0 -5 9 -10 21 -10 15 0 20 -5 17 -22 -5 -34 -60
-38 -82 -6 -20 29 -21 92 0 112 22 22 61 20 76 -4 14 -21 28 -27 28 -10 0 19
-40 50 -65 50 -14 0 -37 -11 -50 -25z"/>
<path d="M4495 2315 c-53 -53 -19 -165 50 -165 45 0 65 17 65 55 0 32 -2 35
-30 35 -16 0 -30 -4 -30 -10 0 -5 9 -10 21 -10 15 0 20 -5 17 -22 -5 -34 -60
-38 -82 -6 -20 29 -21 92 0 112 22 22 61 20 76 -4 14 -21 28 -27 28 -10 0 19
-40 50 -65 50 -14 0 -37 -11 -50 -25z"/>
<path d="M5446 2319 c-22 -18 -26 -28 -26 -74 0 -46 4 -56 26 -74 15 -12 35
-21 45 -21 23 0 77 46 65 57 -4 4 -15 -2 -23 -14 -9 -13 -26 -23 -39 -23 -35
0 -54 26 -54 75 0 26 6 50 16 59 22 22 61 20 74 -4 11 -21 30 -27 30 -10 0 19
-40 50 -64 50 -13 0 -35 -9 -50 -21z"/>
<path d="M5600 2245 l0 -95 55 0 c30 0 55 5 55 10 0 6 -20 10 -45 10 l-45 0 0
85 c0 50 -4 85 -10 85 -6 0 -10 -38 -10 -95z"/>
<path d="M5740 2245 c0 -78 3 -95 15 -95 12 0 15 17 15 95 0 78 -3 95 -15 95
-12 0 -15 -17 -15 -95z"/>
<path d="M6443 2323 c-3 -10 -19 -51 -35 -91 -32 -82 -32 -82 -18 -82 5 0 12
11 16 25 5 22 12 25 50 25 38 0 46 -4 54 -25 5 -14 14 -25 20 -25 5 0 -2 30
-16 68 -14 37 -30 79 -36 95 -11 31 -26 35 -35 10z m31 -47 c3 -13 9 -31 12
-40 5 -13 -1 -16 -25 -16 -34 0 -36 3 -20 49 13 37 25 40 33 7z"/>
<path d="M7548 2245 c19 -53 40 -94 45 -92 11 3 79 179 71 186 -9 9 -22 -15
-44 -82 -12 -37 -26 -65 -30 -62 -5 3 -19 37 -31 75 -13 39 -28 70 -35 70 -7
0 2 -35 24 -95z"/>
<path d="M7710 2320 c-11 -11 -20 -24 -20 -28 0 -19 28 -43 65 -55 32 -11 40
-19 40 -38 0 -35 -56 -40 -79 -8 -18 26 -36 17 -20 -9 16 -24 64 -36 97 -23
24 9 28 16 25 43 -3 28 -9 35 -48 49 -36 13 -45 21 -45 40 0 33 48 40 67 10
15 -24 28 -27 28 -7 0 20 -39 46 -67 46 -13 0 -32 -9 -43 -20z"/>
<path d="M7886 2319 c-22 -18 -26 -28 -26 -74 0 -46 4 -56 26 -74 15 -12 35
-21 45 -21 23 0 77 46 65 57 -4 4 -15 -2 -23 -14 -9 -13 -26 -23 -39 -23 -35
0 -54 26 -54 75 0 26 6 50 16 59 22 22 61 20 74 -4 11 -21 30 -27 30 -10 0 19
-40 50 -64 50 -13 0 -35 -9 -50 -21z"/>
<path d="M8970 2245 c0 -57 4 -95 10 -95 6 0 10 16 10 35 0 34 1 35 39 35 47
0 71 20 71 60 0 38 -32 60 -87 60 l-43 0 0 -95z m100 61 c6 -8 10 -25 8 -38
-2 -19 -10 -23 -45 -26 l-43 -3 0 40 c0 40 1 41 34 41 18 0 39 -7 46 -14z"/>
<path d="M10480 2320 c-11 -11 -20 -24 -20 -28 0 -19 28 -43 65 -55 32 -11 40
-19 40 -38 0 -35 -56 -40 -79 -8 -18 26 -36 17 -20 -9 16 -24 64 -36 97 -23
24 9 28 16 25 43 -3 28 -9 35 -48 49 -36 13 -45 21 -45 40 0 33 48 40 67 10
15 -24 28 -27 28 -7 0 20 -39 46 -67 46 -13 0 -32 -9 -43 -20z"/>
<path d="M10630 2245 l0 -95 60 0 c33 0 60 4 60 10 0 6 -22 10 -50 10 l-50 0
0 35 c0 34 1 35 40 35 22 0 40 5 40 10 0 6 -18 10 -40 10 -38 0 -40 2 -40 30
0 29 1 30 50 30 28 0 50 5 50 10 0 6 -27 10 -60 10 l-60 0 0 -95z"/>
<path d="M10805 2315 c-19 -18 -25 -35 -25 -70 0 -94 95 -132 135 -54 50 95
-39 195 -110 124z m89 -17 c33 -46 9 -128 -36 -128 -35 0 -58 29 -58 73 0 69
60 104 94 55z"/>
<path d="M3910 2315 c0 -8 -7 -15 -15 -15 -8 0 -15 -4 -15 -10 0 -5 7 -10 15
-10 12 0 15 -13 15 -60 0 -45 4 -62 15 -67 9 -3 19 -2 23 2 4 4 1 10 -5 12 -8
3 -13 24 -13 58 0 33 5 56 13 59 10 5 10 7 0 12 -7 3 -13 12 -13 20 0 8 -4 14
-10 14 -5 0 -10 -7 -10 -15z"/>
<path d="M4730 2315 c0 -8 -8 -15 -17 -15 -17 -1 -17 -1 0 -14 12 -9 17 -27
17 -63 0 -27 5 -54 12 -61 15 -15 38 -16 38 -2 0 6 -7 10 -15 10 -12 0 -15 13
-15 55 0 42 3 55 15 55 8 0 15 5 15 10 0 6 -7 10 -15 10 -8 0 -15 7 -15 15 0
8 -4 15 -10 15 -5 0 -10 -7 -10 -15z"/>
<path d="M6570 2316 c0 -8 -6 -17 -12 -19 -10 -4 -10 -7 -1 -14 6 -5 13 -33
15 -62 3 -53 26 -87 45 -67 4 4 0 12 -10 17 -23 13 -25 109 -2 109 8 0 15 5
15 10 0 6 -7 10 -15 10 -8 0 -15 7 -15 15 0 8 -4 15 -10 15 -5 0 -10 -6 -10
-14z"/>
<path d="M9440 2315 c0 -8 -7 -15 -15 -15 -8 0 -15 -4 -15 -10 0 -5 7 -10 15
-10 12 0 15 -13 15 -60 0 -45 4 -62 15 -67 9 -3 19 -2 23 2 4 4 1 10 -5 12 -8
3 -13 24 -13 58 0 33 5 56 13 59 10 5 10 7 0 12 -7 3 -13 12 -13 20 0 8 -4 14
-10 14 -5 0 -10 -7 -10 -15z"/>
<path d="M6140 2305 c0 -8 7 -15 15 -15 8 0 15 7 15 15 0 8 -7 15 -15 15 -8 0
-15 -7 -15 -15z"/>
<path d="M2900 2290 c0 -5 5 -10 10 -10 6 0 10 5 10 10 0 6 -4 10 -10 10 -5 0
-10 -4 -10 -10z"/>
<path d="M3840 2225 c0 -43 4 -75 10 -75 6 0 10 32 10 75 0 43 -4 75 -10 75
-6 0 -10 -32 -10 -75z"/>
<path d="M4660 2225 c0 -43 4 -75 10 -75 6 0 10 32 10 75 0 43 -4 75 -10 75
-6 0 -10 -32 -10 -75z"/>
<path d="M4960 2236 c0 -74 8 -84 68 -83 l42 2 0 72 c0 86 -18 99 -22 17 -3
-60 -20 -83 -52 -71 -12 5 -16 20 -16 67 0 33 -4 60 -10 60 -6 0 -10 -28 -10
-64z"/>
<path d="M6670 2282 c-47 -38 -18 -132 41 -132 31 0 59 36 59 75 0 63 -54 94
-100 57z m68 -14 c7 -7 12 -26 12 -43 0 -50 -42 -74 -70 -40 -39 47 16 125 58
83z"/>
<path d="M6800 2225 c0 -87 18 -102 22 -19 3 60 20 83 52 71 12 -5 16 -20 16
-67 0 -76 18 -79 22 -4 3 60 20 83 52 71 12 -5 16 -20 16 -67 0 -33 4 -60 10
-60 6 0 10 28 10 65 0 59 -2 66 -24 76 -17 8 -29 8 -45 0 -15 -9 -25 -8 -40 1
-15 9 -25 9 -45 0 -16 -7 -26 -8 -26 -2 0 6 -4 10 -10 10 -6 0 -10 -32 -10
-75z"/>
<path d="M8050 2280 c-40 -40 -14 -130 38 -130 38 0 62 29 62 75 0 34 -5 47
-22 59 -30 21 -54 20 -78 -4z m69 -14 c17 -20 10 -77 -11 -90 -26 -16 -52 4
-56 43 -4 36 12 61 38 61 10 0 23 -6 29 -14z"/>
<path d="M8361 2283 c-11 -10 -24 -32 -27 -50 -5 -26 -1 -37 19 -57 29 -29 54
-33 83 -12 17 14 16 15 -25 13 -37 -2 -45 1 -52 21 -8 21 -6 22 41 22 43 0 50
3 50 20 0 23 -33 60 -54 60 -8 0 -23 -8 -35 -17z m57 -15 c20 -20 14 -28 -23
-28 -22 0 -35 5 -35 13 0 28 36 37 58 15z"/>
<path d="M9150 2280 c-40 -40 -14 -130 38 -130 38 0 62 29 62 75 0 34 -5 47
-22 59 -30 21 -54 20 -78 -4z m76 -29 c9 -17 9 -32 2 -53 -8 -24 -15 -29 -36
-26 -34 4 -51 46 -34 83 15 33 51 31 68 -4z"/>
<path d="M9308 2289 c-21 -12 -24 -42 -5 -56 6 -6 24 -13 40 -17 30 -7 36 -33
11 -43 -9 -3 -25 -1 -36 6 -27 16 -38 3 -14 -15 23 -17 40 -18 67 -4 38 21 20
62 -34 75 -15 4 -27 14 -27 21 0 21 29 29 52 15 27 -16 38 -3 14 15 -23 16
-44 17 -68 3z"/>
<path d="M9520 2223 c0 -89 18 -97 22 -10 3 59 4 62 28 62 24 0 25 -3 28 -62
3 -74 22 -86 22 -15 0 55 18 86 46 80 16 -3 19 -13 22 -66 4 -82 22 -80 22 2
0 78 -15 96 -63 78 -19 -7 -35 -8 -42 -2 -6 5 -27 8 -48 7 l-37 -2 0 -72z"/>
<path d="M9769 2280 c-20 -16 -21 -19 -6 -20 9 0 17 5 17 11 0 6 12 9 27 7 36
-4 45 -38 11 -38 -32 0 -68 -27 -68 -50 0 -28 36 -45 66 -31 15 6 24 7 24 1 0
-6 5 -10 10 -10 6 0 10 26 10 59 0 86 -38 116 -91 71z m71 -73 c0 -18 -21 -37
-41 -37 -22 0 -33 16 -25 35 7 19 66 20 66 2z"/>
<path d="M9900 2225 c0 -87 18 -102 22 -19 3 60 20 83 52 71 12 -5 16 -20 16
-67 0 -33 4 -60 10 -60 17 0 12 116 -6 134 -18 19 -28 20 -55 6 -13 -7 -19 -7
-19 0 0 5 -4 10 -10 10 -6 0 -10 -32 -10 -75z"/>
<path d="M2900 2210 c0 -5 5 -10 10 -10 6 0 10 5 10 10 0 6 -4 10 -10 10 -5 0
-10 -4 -10 -10z"/>
<path d="M3990 2168 c0 -7 -3 -24 -6 -38 -5 -24 -5 -24 10 -6 18 22 21 56 6
56 -5 0 -10 -6 -10 -12z"/>
<path d="M5908 2174 c-5 -4 -8 -21 -8 -38 1 -26 2 -28 11 -13 11 19 8 63 -3
51z"/>
<path d="M7040 2161 c0 -11 -3 -28 -6 -38 -5 -16 -4 -16 10 1 18 22 21 56 6
56 -5 0 -10 -9 -10 -19z"/>
<path d="M8478 2150 c-3 -19 -1 -29 6 -27 14 4 21 57 8 57 -5 0 -12 -14 -14
-30z"/>
<path d="M10050 2168 c0 -7 -3 -24 -6 -38 -5 -24 -5 -24 10 -6 18 22 21 56 6
56 -5 0 -10 -6 -10 -12z"/>
<path d="M6560 1733 c-53 -28 -55 -29 -68 -91 l-14 -63 42 -55 42 -54 68 0 68
0 41 51 c45 57 46 62 28 134 -12 45 -18 53 -63 77 -62 34 -78 35 -144 1z m104
-48 c22 -12 32 -12 42 -4 9 7 14 8 14 1 0 -6 -4 -12 -9 -14 -14 -5 0 -68 15
-68 8 0 14 -4 14 -10 0 -5 -6 -7 -14 -4 -15 6 -52 -44 -48 -66 2 -13 1 -13 -7
-1 -5 8 -24 15 -41 15 -17 0 -36 -7 -41 -15 -8 -11 -9 -9 -5 7 7 25 -35 70
-56 59 -7 -3 -6 -1 3 7 23 19 33 69 17 80 -10 7 -8 8 4 4 10 -3 30 1 45 9 34
18 32 18 67 0z"/>
<path d="M6600 1670 c-13 -9 -13 -11 0 -20 15 -10 25 0 18 20 -2 6 -8 6 -18 0z"/>
<path d="M6640 1659 c0 -12 5 -19 12 -17 18 6 20 25 3 31 -10 5 -15 0 -15 -14z"/>
<path d="M6570 1625 c0 -9 5 -15 11 -13 6 2 11 8 11 13 0 5 -5 11 -11 13 -6 2
-11 -4 -11 -13z"/>
<path d="M6665 1630 c-3 -6 1 -13 10 -16 19 -8 30 0 20 15 -8 14 -22 14 -30 1z"/>
<path d="M6625 1610 c3 -5 8 -10 11 -10 2 0 4 5 4 10 0 6 -5 10 -11 10 -5 0
-7 -4 -4 -10z"/>
<path d="M6582 1591 c-10 -6 -10 -10 3 -21 8 -7 15 -10 15 -7 0 3 3 12 6 21 7
17 -3 20 -24 7z"/>
<path d="M6657 1580 c4 -16 8 -18 20 -9 11 10 11 14 1 20 -21 14 -26 10 -21
-11z"/>
<path d="M6617 1565 c-5 -10 0 -15 14 -15 12 0 19 5 17 12 -6 18 -25 20 -31 3z"/>
<path d="M10665 1736 c-32 -26 -32 -30 1 -40 25 -8 59 25 51 49 -8 20 -17 19
-52 -9z"/>
<path d="M3358 1725 c-30 -17 -98 -113 -98 -139 0 -25 27 -73 45 -80 9 -3 59
-6 111 -6 87 0 97 2 119 25 29 29 33 79 8 107 -9 10 -21 28 -27 40 -15 31 -74
68 -105 68 -14 -1 -38 -7 -53 -15z m90 -51 c12 -8 22 -21 22 -29 0 -8 10 -24
22 -35 18 -16 20 -24 12 -38 -15 -23 -165 -30 -183 -9 -19 24 -2 49 30 45 19
-3 35 2 45 13 15 16 14 19 -5 31 -26 16 -27 25 -3 31 31 8 37 7 60 -9z"/>
<path d="M8433 1682 c-26 -27 -61 -72 -76 -101 l-28 -52 36 3 c35 3 37 5 80
101 24 53 42 97 40 97 -2 0 -25 -22 -52 -48z"/>
<path d="M10716 1708 c-14 -20 -14 -23 -1 -31 9 -4 24 -10 35 -12 11 -2 30
-11 42 -19 30 -21 55 -22 38 -1 -7 8 -21 15 -31 15 -11 0 -18 6 -16 13 1 6 -4
11 -10 10 -7 -2 -13 3 -13 11 0 7 -6 19 -14 25 -11 10 -17 7 -30 -11z"/>
<path d="M8486 1675 c-22 -51 -20 -62 14 -105 17 -21 30 -40 30 -43 0 -2 -24
-8 -52 -13 -51 -9 -50 -9 41 -12 51 -1 95 -1 98 1 3 4 -100 194 -112 205 -2 2
-11 -13 -19 -33z"/>
<path d="M9525 1700 c-4 -6 5 -10 19 -10 14 0 26 -4 26 -10 0 -5 -8 -10 -19
-10 -10 0 -25 -7 -32 -16 -11 -14 -11 -18 4 -29 9 -7 28 -10 42 -7 27 5 34 37
15 73 -11 20 -45 26 -55 9z m45 -50 c0 -12 -28 -25 -36 -17 -9 9 6 27 22 27 8
0 14 -5 14 -10z"/>
<path d="M9600 1699 c0 -25 21 -79 31 -79 4 0 12 15 17 33 l8 32 7 -33 c8 -41
28 -38 40 7 11 45 2 64 -10 21 -10 -34 -12 -33 -27 13 -7 22 -26 13 -26 -13 0
-10 -4 -22 -10 -25 -5 -3 -10 2 -10 12 0 10 -5 25 -10 33 -8 13 -10 13 -10 -1z"/>
<path d="M9732 1697 c-13 -15 -4 -31 21 -40 26 -10 20 -27 -10 -27 -24 -1 -25
-2 -11 -11 21 -12 58 4 58 25 0 7 -12 19 -27 26 l-28 14 28 4 c15 2 25 8 22
13 -9 13 -41 11 -53 -4z"/>
<path d="M10610 1685 c-10 -12 -9 -20 4 -40 9 -14 20 -25 25 -25 14 0 40 46
33 57 -13 19 -49 24 -62 8z"/>
<path d="M4300 1575 c0 -63 4 -105 10 -105 6 0 10 42 10 105 0 63 -4 105 -10
105 -6 0 -10 -42 -10 -105z"/>
<path d="M4750 1575 c0 -63 4 -105 10 -105 6 0 10 42 10 105 0 63 -4 105 -10
105 -6 0 -10 -42 -10 -105z"/>
<path d="M5510 1575 c0 -63 4 -105 10 -105 6 0 10 42 10 105 0 63 -4 105 -10
105 -6 0 -10 -42 -10 -105z"/>
<path d="M5832 1668 c-7 -7 -12 -20 -12 -30 0 -10 -7 -18 -17 -18 -17 -1 -17
-1 0 -14 13 -10 17 -28 17 -75 0 -34 4 -61 10 -61 6 0 10 28 10 65 0 51 3 65
15 65 8 0 15 5 15 10 0 6 -7 10 -15 10 -8 0 -15 9 -15 20 0 11 7 20 15 20 8 0
15 5 15 10 0 14 -23 13 -38 -2z"/>
<path d="M11370 1575 c0 -63 4 -105 10 -105 6 0 10 42 10 105 0 63 -4 105 -10
105 -6 0 -10 -42 -10 -105z"/>
<path d="M11522 1668 c-7 -7 -12 -20 -12 -30 0 -10 -7 -18 -17 -18 -17 -1 -17
-1 0 -14 13 -10 17 -28 17 -75 0 -34 4 -61 10 -61 6 0 10 28 10 65 0 51 3 65
15 65 8 0 15 5 15 10 0 6 -7 10 -15 10 -8 0 -15 9 -15 20 0 11 7 20 15 20 8 0
15 5 15 10 0 14 -23 13 -38 -2z"/>
<path d="M5200 1640 c0 -27 -3 -30 -24 -24 -34 8 -66 -26 -66 -69 0 -50 21
-71 69 -72 l41 -1 0 98 c0 59 -4 98 -10 98 -5 0 -10 -14 -10 -30z m-5 -95 c0
-40 -4 -50 -18 -53 -27 -5 -47 17 -47 52 0 38 17 58 45 54 17 -3 20 -11 20
-53z"/>
<path d="M7180 1570 c0 -60 4 -100 10 -100 6 0 10 5 10 12 0 9 3 9 12 0 34
-34 78 1 78 63 0 54 -21 79 -62 71 -26 -5 -28 -3 -28 24 0 17 -4 30 -10 30 -6
0 -10 -40 -10 -100z m90 4 c11 -27 4 -70 -12 -80 -5 -3 -20 -3 -34 0 -21 6
-24 12 -24 50 0 49 4 56 37 56 16 0 27 -8 33 -26z"/>
<path d="M10675 1648 c-20 -29 -5 -34 36 -13 25 13 29 19 18 26 -22 14 -37 11
-54 -13z"/>
<path d="M11436 1661 c-4 -7 -5 -15 -2 -18 9 -9 19 4 14 18 -4 11 -6 11 -12 0z"/>
<path d="M3675 1635 c-53 -53 -19 -165 50 -165 45 0 65 17 65 55 0 32 -2 35
-30 35 -16 0 -30 -4 -30 -10 0 -5 9 -10 21 -10 15 0 20 -5 17 -22 -5 -34 -60
-38 -82 -6 -20 29 -21 92 0 112 22 22 61 20 76 -4 14 -21 28 -27 28 -10 0 19
-40 50 -65 50 -14 0 -37 -11 -50 -25z"/>
<path d="M4596 1639 c-22 -18 -26 -28 -26 -74 0 -46 4 -56 26 -74 15 -12 35
-21 45 -21 23 0 77 46 65 57 -4 4 -15 -2 -23 -14 -9 -13 -26 -23 -39 -23 -35
0 -54 26 -54 75 0 26 6 50 16 59 22 22 61 20 74 -4 11 -21 30 -27 30 -10 0 19
-40 50 -64 50 -13 0 -35 -9 -50 -21z"/>
<path d="M5330 1565 c0 -78 3 -95 15 -95 10 0 15 11 15 35 0 33 2 35 35 35 39
0 75 28 75 60 0 37 -35 60 -90 60 l-50 0 0 -95z m114 53 c17 -27 -5 -52 -48
-56 l-36 -3 0 41 0 41 36 -3 c22 -2 42 -10 48 -20z"/>
<path d="M6870 1565 c0 -57 4 -95 10 -95 6 0 10 15 10 34 0 58 22 62 60 11 19
-25 40 -45 48 -45 9 0 2 15 -19 43 -18 23 -36 47 -41 53 -4 6 7 28 28 52 49
58 26 53 -30 -5 l-46 -48 0 48 c0 26 -4 47 -10 47 -6 0 -10 -38 -10 -95z"/>
<path d="M8763 1643 c-3 -10 -19 -51 -35 -91 -32 -82 -32 -82 -18 -82 5 0 12
11 16 25 5 22 12 25 50 25 38 0 46 -4 54 -25 5 -14 14 -25 20 -25 5 0 -2 30
-16 68 -14 37 -30 79 -36 95 -11 31 -26 35 -35 10z m31 -47 c3 -13 9 -31 12
-40 5 -13 -1 -16 -25 -16 -34 0 -36 3 -20 49 13 37 25 40 33 7z"/>
<path d="M9941 1638 c-5 -13 -20 -52 -35 -87 -29 -71 -31 -81 -16 -81 5 0 12
11 16 25 5 22 12 25 50 25 38 0 46 -4 54 -25 5 -14 14 -25 20 -25 5 0 0 24
-11 53 -12 28 -28 71 -36 95 -17 47 -29 53 -42 20z m43 -75 c7 -21 4 -23 -28
-23 l-35 0 17 45 c16 43 17 44 28 23 6 -13 15 -33 18 -45z"/>
<path d="M10050 1651 c0 -10 27 -134 36 -163 10 -35 24 -17 46 59 l22 78 24
-78 c13 -42 27 -77 31 -77 8 0 51 154 51 180 0 26 -19 6 -24 -27 -4 -21 -12
-56 -18 -78 l-11 -40 -21 75 c-12 41 -26 75 -31 75 -5 0 -19 -34 -31 -75 l-21
-75 -11 40 c-6 22 -14 57 -18 78 -3 20 -10 37 -15 37 -5 0 -9 -4 -9 -9z"/>
<path d="M10322 1653 c-7 -2 -17 -13 -22 -24 -16 -29 3 -53 55 -74 37 -14 46
-21 43 -39 -4 -30 -62 -35 -80 -7 -15 24 -28 27 -28 7 0 -19 39 -46 66 -46 12
0 32 8 44 18 36 29 21 68 -30 83 -51 15 -67 33 -50 54 18 21 58 19 72 -5 15
-23 28 -26 28 -6 0 31 -60 55 -98 39z"/>
<path d="M10566 1641 c-17 -18 -16 -19 14 -26 39 -9 45 -3 28 24 -16 26 -20
26 -42 2z"/>
<path d="M10940 1565 c0 -57 4 -95 10 -95 6 0 10 30 10 70 0 39 3 70 8 70 4 0
27 -32 52 -70 25 -38 51 -70 58 -70 9 0 12 26 12 95 0 57 -4 95 -10 95 -6 0
-10 -30 -10 -70 0 -38 -3 -70 -7 -70 -5 0 -28 32 -53 70 -25 38 -51 70 -57 70
-10 0 -13 -26 -13 -95z"/>
<path d="M2110 1580 l0 -73 37 6 c43 7 63 29 63 67 0 38 -20 60 -63 67 l-37 6
0 -73z m75 0 c0 -42 -2 -45 -27 -48 -27 -3 -28 -2 -28 48 0 50 1 51 28 48 25
-3 27 -6 27 -48z"/>
<path d="M2240 1580 l0 -70 40 0 c22 0 40 5 40 10 0 6 -13 10 -30 10 -23 0
-30 4 -30 20 0 15 7 20 25 20 14 0 25 5 25 10 0 6 -11 10 -25 10 -18 0 -25 5
-25 20 0 16 7 20 30 20 17 0 30 5 30 10 0 6 -18 10 -40 10 l-40 0 0 -70z"/>
<path d="M2365 1583 c26 -69 32 -79 39 -72 12 12 52 139 43 136 -6 -2 -18 -24
-26 -49 -9 -26 -19 -49 -22 -52 -3 -3 -13 19 -23 49 -9 30 -21 55 -26 55 -6 0
2 -30 15 -67z"/>
<path d="M2540 1630 c-37 -37 -13 -120 35 -120 25 0 55 38 55 70 0 32 -30 70
-55 70 -8 0 -24 -9 -35 -20z m65 -50 c0 -43 -1 -45 -30 -45 -27 0 -30 4 -33
33 -5 50 4 64 35 60 26 -3 28 -6 28 -48z"/>
<path d="M2660 1580 c0 -40 4 -70 10 -70 6 0 10 10 10 23 0 17 8 25 32 32 17
6 36 18 42 28 9 15 6 22 -13 38 -13 10 -36 19 -52 19 l-29 0 0 -70z m75 25 c0
-14 -8 -21 -27 -23 -24 -3 -28 0 -28 23 0 23 4 26 28 23 19 -2 27 -9 27 -23z"/>
<path d="M2795 1636 c-25 -18 -13 -44 31 -62 19 -8 34 -20 31 -27 -5 -17 -45
-21 -63 -7 -9 9 -14 9 -14 2 0 -21 41 -35 66 -23 36 16 31 49 -11 67 -40 16
-47 44 -12 44 13 0 28 -5 35 -12 9 -9 12 -9 12 0 0 11 -31 32 -47 32 -5 0 -18
-6 -28 -14z"/>
<path d="M5720 1636 c0 -8 -6 -17 -12 -20 -10 -5 -10 -7 0 -12 7 -3 12 -24 12
-50 0 -51 14 -84 35 -84 19 0 19 16 0 24 -11 4 -15 20 -15 56 0 38 4 50 15 50
8 0 15 5 15 10 0 6 -7 10 -15 10 -8 0 -15 7 -15 15 0 8 -4 15 -10 15 -5 0 -10
-6 -10 -14z"/>
<path d="M7860 1636 c0 -8 -6 -17 -12 -20 -10 -5 -10 -7 0 -12 7 -3 12 -24 12
-50 0 -51 14 -84 35 -84 19 0 19 16 0 24 -11 4 -15 20 -15 56 0 38 4 50 15 50
8 0 15 5 15 10 0 6 -7 10 -15 10 -8 0 -15 7 -15 15 0 8 -4 15 -10 15 -5 0 -10
-6 -10 -14z"/>
<path d="M11280 1636 c0 -8 -6 -17 -12 -19 -10 -4 -10 -7 -1 -14 6 -5 13 -33
15 -62 3 -53 26 -87 45 -67 4 4 0 12 -10 17 -23 13 -25 109 -2 109 8 0 15 5
15 10 0 6 -7 10 -15 10 -8 0 -15 7 -15 15 0 8 -4 15 -10 15 -5 0 -10 -6 -10
-14z"/>
<path d="M10700 1621 c-19 -9 -36 -22 -38 -29 -2 -12 57 -107 63 -100 1 2 5
20 8 40 5 36 4 38 -26 48 -29 9 -30 10 -4 6 27 -3 47 15 47 43 0 14 -8 13 -50
-8z"/>
<path d="M10756 1613 c-11 -43 36 -60 68 -24 17 19 17 20 -13 35 -41 22 -48
20 -55 -11z"/>
<path d="M3850 1600 c-40 -40 -14 -130 38 -130 38 0 62 29 62 75 0 34 -5 47
-22 59 -30 21 -54 20 -78 -4z m69 -14 c17 -20 10 -77 -11 -90 -26 -16 -52 4
-56 43 -4 36 12 61 38 61 10 0 23 -6 29 -14z"/>
<path d="M4009 1601 c-47 -38 -18 -131 41 -131 24 0 60 46 60 75 0 29 -36 75
-60 75 -10 0 -28 -8 -41 -19z m73 -26 c18 -40 0 -80 -36 -80 -36 0 -52 37 -37
78 14 37 57 37 73 2z"/>
<path d="M4157 1602 c-10 -11 -17 -35 -17 -59 0 -50 27 -78 65 -69 22 6 26 4
23 -11 -3 -14 -13 -18 -41 -17 -38 1 -49 -9 -21 -20 60 -23 84 8 84 112 0 48
-4 82 -10 82 -5 0 -10 -5 -10 -12 0 -9 -3 -9 -12 0 -17 17 -42 15 -61 -6z m68
-57 c0 -45 -2 -50 -24 -53 -31 -5 -43 9 -43 51 0 47 9 59 40 55 25 -3 27 -6
27 -53z"/>
<path d="M4381 1603 c-11 -10 -24 -32 -27 -50 -5 -26 -1 -37 19 -57 29 -29 54
-33 83 -12 17 14 16 15 -25 13 -37 -2 -45 1 -52 21 -8 21 -6 22 41 22 43 0 50
3 50 20 0 23 -33 60 -54 60 -8 0 -23 -8 -35 -17z m57 -15 c20 -20 14 -28 -23
-28 -22 0 -35 5 -35 13 0 28 36 37 58 15z"/>
<path d="M4830 1602 c-47 -38 -18 -132 41 -132 31 0 59 36 59 75 0 63 -54 94
-100 57z m68 -14 c7 -7 12 -26 12 -43 0 -50 -42 -74 -70 -40 -39 47 16 125 58
83z"/>
<path d="M4962 1555 c2 -35 7 -68 12 -72 4 -4 27 -8 52 -9 l44 -2 0 74 c0 90
-18 99 -22 12 -3 -58 -5 -63 -27 -66 -31 -5 -41 12 -41 76 0 31 -4 52 -11 52
-8 0 -10 -21 -7 -65z"/>
<path d="M5584 1606 c-24 -18 -13 -31 14 -15 11 7 27 9 36 6 23 -9 20 -37 -5
-37 -33 0 -59 -19 -59 -44 0 -32 18 -44 65 -43 l41 2 -4 60 c-5 79 -39 107
-88 71z m64 -88 c-3 -26 -32 -35 -53 -18 -21 18 -6 40 27 40 25 0 29 -4 26
-22z"/>
<path d="M5910 1600 c-40 -40 -14 -130 38 -130 38 0 62 29 62 75 0 34 -5 47
-22 59 -30 21 -54 20 -78 -4z m76 -29 c9 -17 9 -32 2 -53 -8 -24 -15 -29 -36
-26 -34 4 -51 46 -34 83 15 33 51 31 68 -4z"/>
<path d="M6050 1545 c0 -43 4 -75 10 -75 6 0 10 24 10 54 0 45 4 58 22 70 12
9 19 19 15 22 -4 4 -13 1 -22 -6 -10 -8 -15 -9 -15 -1 0 6 -4 11 -10 11 -6 0
-10 -32 -10 -75z"/>
<path d="M6140 1545 c0 -91 18 -101 22 -12 3 62 3 62 33 62 30 0 30 0 33 -62
2 -35 7 -63 12 -63 5 0 10 28 12 63 3 57 5 62 27 65 31 5 41 -12 41 -75 0 -29
5 -53 10 -53 11 0 13 81 4 118 -7 26 -48 40 -68 22 -11 -9 -20 -9 -37 0 -16 9
-28 9 -45 1 -15 -6 -24 -7 -24 -1 0 6 -4 10 -10 10 -6 0 -10 -32 -10 -75z"/>
<path d="M7030 1556 c0 -74 8 -84 68 -83 l42 2 0 72 c0 86 -18 99 -22 17 -3
-60 -20 -83 -52 -71 -12 5 -16 20 -16 67 0 33 -4 60 -10 60 -6 0 -10 -28 -10
-64z"/>
<path d="M7351 1603 c-11 -10 -24 -32 -27 -50 -5 -26 -1 -37 19 -57 29 -29 54
-33 83 -12 17 14 16 15 -25 13 -37 -2 -45 1 -52 21 -8 21 -6 22 41 22 43 0 50
3 50 20 0 23 -33 60 -54 60 -8 0 -23 -8 -35 -17z m57 -15 c20 -20 14 -28 -23
-28 -22 0 -35 5 -35 13 0 28 36 37 58 15z"/>
<path d="M7470 1545 c0 -43 4 -75 10 -75 6 0 10 21 10 46 0 51 14 84 35 84 8
0 15 5 15 10 0 13 -6 13 -31 0 -13 -7 -19 -7 -19 0 0 5 -4 10 -10 10 -6 0 -10
-32 -10 -75z"/>
<path d="M7560 1545 c0 -43 4 -75 10 -75 6 0 10 22 10 48 0 55 18 86 46 80 16
-3 19 -13 22 -66 4 -82 22 -80 22 2 0 77 -15 96 -61 79 -16 -6 -29 -7 -29 -2
0 5 -4 9 -10 9 -6 0 -10 -32 -10 -75z"/>
<path d="M7730 1600 c-40 -40 -14 -130 38 -130 10 0 27 7 38 15 18 14 17 14
-13 9 -35 -7 -63 8 -63 32 0 10 13 14 45 14 41 0 45 2 45 24 0 51 -53 73 -90
36z m68 -22 c3 -15 -4 -18 -32 -18 -38 0 -44 8 -24 28 17 17 52 11 56 -10z"/>
<path d="M7960 1600 c-40 -40 -14 -130 38 -130 10 0 27 7 38 15 18 14 17 14
-13 9 -35 -7 -63 8 -63 32 0 10 13 14 45 14 41 0 45 2 45 24 0 51 -53 73 -90
36z m68 -22 c3 -15 -4 -18 -32 -18 -38 0 -44 8 -24 28 17 17 52 11 56 -10z"/>
<path d="M8108 1609 c-21 -12 -24 -42 -5 -56 6 -6 24 -13 40 -17 30 -7 36 -33
11 -43 -9 -3 -25 -1 -36 6 -27 16 -38 3 -14 -15 23 -17 40 -18 67 -4 38 21 20
62 -34 75 -15 4 -27 14 -27 21 0 21 29 29 52 15 27 -16 38 -3 14 15 -23 16
-44 17 -68 3z"/>
<path d="M8880 1610 c0 -5 18 -10 41 -10 l40 0 -40 -58 c-23 -32 -41 -61 -41
-65 0 -4 25 -7 55 -7 30 0 55 5 55 10 0 6 -18 10 -40 10 l-41 0 41 59 c22 33
40 62 40 65 0 4 -25 6 -55 6 -30 0 -55 -4 -55 -10z"/>
<path d="M9022 1555 c2 -35 7 -68 12 -72 4 -4 27 -8 52 -9 l44 -2 0 74 c0 90
-18 99 -22 12 -3 -58 -5 -63 -27 -66 -31 -5 -41 12 -41 76 0 31 -4 52 -11 52
-8 0 -10 -21 -7 -65z"/>
<path d="M9170 1545 c0 -43 4 -75 10 -75 6 0 10 24 10 54 0 45 4 58 22 70 12
9 19 19 15 22 -4 4 -13 1 -22 -6 -10 -8 -15 -9 -15 -1 0 6 -4 11 -10 11 -6 0
-10 -32 -10 -75z"/>
<path d="M9280 1602 c-31 -25 -32 -88 -1 -113 28 -23 51 -24 77 -4 18 13 16
14 -19 12 -31 -2 -42 3 -54 21 -15 22 -15 22 36 22 47 0 51 2 51 23 0 27 -28
57 -52 57 -9 0 -26 -8 -38 -18z m68 -24 c3 -15 -4 -18 -32 -18 -34 0 -47 15
-29 34 13 13 58 1 61 -16z"/>
<path d="M11150 1602 c-31 -25 -32 -88 -1 -113 28 -23 51 -24 77 -4 18 13 16
14 -19 12 -31 -2 -42 3 -54 21 -15 22 -15 22 36 22 47 0 51 2 51 23 0 27 -28
57 -52 57 -9 0 -26 -8 -38 -18z m68 -24 c3 -15 -4 -18 -32 -18 -34 0 -47 15
-29 34 13 13 58 1 61 -16z"/>
<path d="M11430 1545 c0 -43 4 -75 10 -75 6 0 10 32 10 75 0 43 -4 75 -10 75
-6 0 -10 -32 -10 -75z"/>
<path d="M11580 1610 c0 -5 9 -32 20 -60 11 -28 20 -62 20 -76 0 -17 -7 -28
-20 -31 -23 -6 -27 -23 -6 -23 21 0 32 18 65 110 35 95 34 90 22 90 -5 0 -17
-23 -26 -50 -9 -28 -20 -48 -24 -45 -5 2 -14 25 -21 50 -11 40 -30 62 -30 35z"/>
<path d="M2900 1600 c0 -5 5 -10 10 -10 6 0 10 5 10 10 0 6 -4 10 -10 10 -5 0
-10 -4 -10 -10z"/>
<path d="M10570 1596 c6 -8 19 -12 27 -9 14 6 14 8 -3 14 -30 12 -37 10 -24
-5z"/>
<path d="M9765 1590 c-19 -8 -19 -9 3 -9 19 -1 22 -5 18 -23 l-6 -23 12 23
c14 28 1 43 -27 32z"/>
<path d="M9500 1583 c0 -2 25 -16 56 -30 60 -27 127 -29 188 -4 39 15 28 23
-15 11 -51 -15 -118 -12 -176 9 -29 10 -53 16 -53 14z"/>
<path d="M10600 1568 c0 -5 5 -6 10 -3 6 3 10 0 10 -7 0 -14 70 -88 83 -88 14
0 6 22 -23 64 -21 32 -36 44 -55 44 -14 0 -25 -5 -25 -10z"/>
<path d="M10746 1554 c-3 -9 -6 -23 -6 -32 0 -12 5 -10 25 8 19 18 22 26 13
32 -19 11 -25 10 -32 -8z"/>
<path d="M2900 1520 c0 -5 5 -10 10 -10 6 0 10 5 10 10 0 6 -4 10 -10 10 -5 0
-10 -4 -10 -10z"/>
<path d="M6380 1488 c0 -7 -3 -24 -6 -38 -5 -24 -5 -24 10 -6 18 22 21 56 6
56 -5 0 -10 -6 -10 -12z"/>
<path d="M8228 1494 c-5 -4 -8 -21 -8 -38 1 -26 2 -28 11 -13 11 19 8 63 -3
51z"/>
<path d="M9398 1470 c-3 -19 -1 -29 6 -27 14 4 21 57 8 57 -5 0 -12 -14 -14
-30z"/>
<path d="M10448 1470 c-3 -19 -1 -29 6 -27 14 4 21 57 8 57 -5 0 -12 -14 -14
-30z"/>
<path d="M11700 1481 c0 -11 -3 -28 -6 -38 -5 -16 -4 -16 10 1 18 22 21 56 6
56 -5 0 -10 -9 -10 -19z"/>
<path d="M3280 1371 c-11 -21 -14 -238 -4 -265 9 -24 259 -24 268 0 12 30 7
259 -6 272 -8 8 -51 12 -130 12 -106 0 -118 -2 -128 -19z m250 -136 l0 -136
-117 3 -118 3 -3 133 -3 132 121 0 120 0 0 -135z"/>
<path d="M3340 1279 l0 -61 28 7 c15 5 38 9 52 9 23 1 25 -3 28 -51 2 -38 7
-53 18 -53 10 0 14 14 14 54 0 70 -18 91 -72 82 l-38 -6 0 40 c0 29 -4 40 -15
40 -12 0 -15 -13 -15 -61z"/>
<path d="M3440 1319 c-7 -11 -9 -23 -6 -26 7 -7 24 5 36 28 8 15 7 19 -4 19
-9 0 -20 -9 -26 -21z"/>
<path d="M3340 1165 c0 -27 12 -32 28 -12 8 10 6 16 -9 25 -17 11 -19 9 -19
-13z"/>
<path d="M4230 1195 c0 -63 4 -105 10 -105 6 0 10 13 10 29 0 44 14 45 44 6
38 -50 53 -43 18 8 l-30 42 24 30 c33 42 20 45 -21 5 l-35 -34 0 62 c0 35 -4
62 -10 62 -6 0 -10 -42 -10 -105z"/>
<path d="M3650 1185 c0 -78 3 -95 15 -95 11 0 15 12 15 45 l0 45 50 0 50 0 0
-45 c0 -25 5 -45 10 -45 6 0 10 38 10 95 0 57 -4 95 -10 95 -5 0 -10 -18 -10
-40 l0 -40 -50 0 -50 0 0 40 c0 29 -4 40 -15 40 -12 0 -15 -17 -15 -95z"/>
<path d="M3860 1220 c-40 -40 -14 -130 38 -130 10 0 27 7 38 15 18 14 17 14
-13 9 -35 -7 -63 8 -63 32 0 10 13 14 45 14 41 0 45 2 45 24 0 51 -53 73 -90
36z m68 -22 c3 -15 -4 -18 -32 -18 -38 0 -44 8 -24 28 17 17 52 11 56 -10z"/>
<path d="M3990 1163 c0 -42 4 -73 10 -73 6 0 10 27 10 61 0 52 3 62 20 66 30
8 24 20 -10 19 l-30 -1 0 -72z"/>
<path d="M4090 1220 c-40 -40 -14 -130 38 -130 38 0 62 29 62 75 0 34 -5 47
-22 59 -30 21 -54 20 -78 -4z m69 -14 c17 -20 10 -77 -11 -90 -26 -16 -52 4
-56 43 -4 36 12 61 38 61 10 0 23 -6 29 -14z"/>
<path d="M4371 1179 c-1 -76 7 -88 62 -86 l37 1 0 73 c0 89 -18 98 -22 11 -2
-52 -6 -63 -22 -66 -28 -6 -40 14 -47 76 l-6 57 -2 -66z"/>
<path d="M6659 678 c-137 -79 -80 -278 78 -278 146 0 196 205 68 277 -50 28
-99 29 -146 1z m-6 -90 c-19 -25 -22 -48 -7 -63 9 -8 11 -15 6 -15 -17 0 -32
27 -26 46 8 21 24 44 31 44 3 0 1 -6 -4 -12z m171 -60 c8 -6 8 -8 0 -8 -6 0
-18 7 -25 16 -12 14 -14 14 -20 -3 -7 -16 -8 -16 -8 4 -1 26 21 36 33 14 5 -9
14 -19 20 -23z m-130 18 c-7 -17 20 -16 38 2 18 18 27 15 25 -8 -1 -11 -5 -20
-10 -20 -5 0 -6 8 -3 18 6 16 5 16 -8 0 -16 -21 -56 -24 -56 -5 0 12 9 27 16
27 2 0 1 -6 -2 -14z"/>
<path d="M3272 678 c-8 -8 -12 -51 -12 -129 0 -150 -1 -149 156 -149 146 0
144 -2 144 151 0 76 -4 119 -12 127 -17 17 -259 17 -276 0z m266 -10 c8 -8 12
-49 12 -119 0 -137 -2 -139 -142 -139 -132 0 -138 5 -138 136 0 137 -3 134
138 134 79 0 122 -4 130 -12z"/>
<path d="M3380 602 l-12 -27 -11 23 c-5 12 -16 22 -24 22 -11 0 -11 -5 2 -30
14 -27 14 -33 0 -60 -18 -34 -18 -40 -5 -40 6 0 16 12 22 26 l12 25 13 -25 c8
-14 18 -26 23 -26 13 0 13 6 -5 40 -14 27 -14 33 0 59 8 17 11 32 6 35 -4 3
-14 -7 -21 -22z"/>
<path d="M3480 606 c0 -8 -11 -17 -25 -20 -53 -13 -40 -96 15 -96 l30 0 0 65
c0 37 -4 65 -10 65 -5 0 -10 -6 -10 -14z m0 -66 c0 -20 -5 -30 -15 -30 -10 0
-15 10 -15 30 0 20 5 30 15 30 10 0 15 -10 15 -30z"/>
<path d="M4942 678 c-8 -8 -12 -51 -12 -128 0 -152 -2 -150 147 -150 145 0
143 -2 143 151 0 76 -4 119 -12 127 -17 17 -249 17 -266 0z m132 -74 c9 -8 16
-22 16 -29 0 -20 -28 -45 -51 -45 -12 0 -19 -7 -19 -20 0 -11 -4 -20 -10 -20
-6 0 -10 28 -10 65 l0 65 29 0 c16 0 37 -7 45 -16z m94 -33 c3 -9 -2 -11 -17
-6 -12 3 -21 2 -21 -4 0 -5 9 -13 20 -16 11 -3 20 -15 20 -25 0 -23 -32 -42
-54 -34 -23 9 -19 24 6 24 l22 0 -22 20 c-25 24 -27 31 -10 48 16 16 50 12 56
-7z"/>
<path d="M5020 575 c0 -27 1 -28 24 -19 28 11 13 44 -20 44 -2 0 -4 -11 -4
-25z"/>
<path d="M3920 569 c0 -29 -2 -30 -29 -24 -61 13 -98 -78 -51 -125 23 -23 33
-24 61 -10 13 7 19 7 19 0 0 -5 5 -10 10 -10 6 0 10 40 10 100 0 60 -4 100
-10 100 -5 0 -10 -14 -10 -31z m-11 -53 c17 -20 10 -77 -11 -90 -39 -24 -74
36 -48 84 12 23 42 26 59 6z"/>
<path d="M4130 500 c0 -60 4 -100 10 -100 6 0 10 4 10 9 0 5 14 4 31 -2 28
-11 33 -10 50 12 23 28 25 79 3 110 -14 19 -22 22 -50 16 -33 -6 -34 -5 -34
25 0 16 -4 30 -10 30 -6 0 -10 -40 -10 -100z m89 16 c17 -20 10 -77 -11 -90
-26 -16 -52 4 -56 43 -4 36 12 61 38 61 10 0 23 -6 29 -14z"/>
<path d="M5580 569 c0 -26 -3 -29 -20 -24 -52 17 -91 -41 -69 -103 12 -36 50
-52 74 -32 10 9 15 9 15 1 0 -6 5 -11 10 -11 6 0 10 40 10 100 0 60 -4 100
-10 100 -5 0 -10 -14 -10 -31z m-5 -94 c0 -49 -1 -50 -29 -50 -36 0 -53 37
-36 79 8 22 15 27 38 24 25 -3 27 -6 27 -53z"/>
<path d="M5790 500 c0 -60 4 -100 10 -100 6 0 10 4 10 9 0 5 14 4 31 -2 28
-11 33 -10 50 12 23 28 25 79 3 110 -14 19 -22 22 -50 16 -33 -6 -34 -5 -34
25 0 16 -4 30 -10 30 -6 0 -10 -40 -10 -100z m89 16 c17 -20 10 -77 -11 -90
-26 -16 -52 4 -56 43 -4 36 12 61 38 61 10 0 23 -6 29 -14z"/>
<path d="M1590 551 c0 -78 34 -116 80 -91 17 9 20 20 18 73 l-1 62 -6 -60 c-6
-59 -7 -60 -36 -60 -30 0 -30 1 -33 58 -3 64 -22 79 -22 18z"/>
<path d="M1739 554 l21 -36 -20 -28 c-22 -31 -25 -40 -12 -40 5 0 14 11 20 25
6 14 15 25 20 25 5 0 15 -11 22 -25 7 -14 17 -25 23 -25 5 0 -1 16 -13 35
l-22 35 22 35 c12 19 18 35 13 35 -6 0 -16 -11 -23 -25 -7 -14 -17 -25 -22
-25 -5 0 -14 11 -20 25 -6 14 -15 25 -21 25 -5 0 1 -16 12 -36z"/>
<path d="M1911 572 c-6 -11 -6 -24 -1 -32 6 -9 4 -20 -6 -31 -13 -15 -11 -47
5 -50 33 -7 89 -3 83 5 -3 6 -5 20 -4 31 2 16 1 17 -7 5 -9 -13 -12 -13 -27 2
-17 16 -17 18 1 38 14 16 15 22 5 35 -17 20 -37 19 -49 -3z m37 -19 c-4 -22
-22 -20 -26 1 -2 10 3 16 13 16 10 0 15 -7 13 -17z m2 -63 c9 -18 8 -20 -15
-20 -18 0 -25 5 -25 20 0 11 7 20 15 20 8 0 19 -9 25 -20z"/>
<path d="M2072 532 c-2 -57 0 -63 22 -73 17 -8 29 -8 45 0 18 10 21 20 19 74
l-1 62 -6 -60 c-6 -59 -7 -60 -36 -60 -29 0 -30 1 -36 60 l-6 60 -1 -63z"/>
<path d="M2203 520 c0 -41 2 -58 4 -37 2 20 2 54 0 75 -2 20 -4 3 -4 -38z"/>
<path d="M2280 580 c0 -5 11 -10 25 -10 23 0 24 -4 28 -62 l3 -63 2 63 c2 59
3 62 27 62 14 0 25 5 25 10 0 6 -25 10 -55 10 -30 0 -55 -4 -55 -10z"/>
<path d="M2437 579 c-43 -25 -41 -96 3 -119 17 -9 26 -8 46 5 33 21 34 87 2
109 -26 19 -27 19 -51 5z m51 -21 c7 -7 12 -24 12 -38 0 -32 -17 -50 -47 -50
-26 0 -39 34 -29 75 7 27 42 35 64 13z"/>
<path d="M2560 570 c-37 -37 -13 -120 35 -120 25 0 55 38 55 70 0 32 -30 70
-55 70 -8 0 -24 -9 -35 -20z m65 -50 c0 -43 -1 -45 -30 -45 -27 0 -30 4 -33
33 -5 50 4 64 35 60 26 -3 28 -6 28 -48z"/>
<path d="M2680 520 l0 -70 40 0 c22 0 40 5 40 10 0 6 -13 10 -30 10 l-30 0 0
60 c0 33 -4 60 -10 60 -6 0 -10 -30 -10 -70z"/>
<path d="M2795 576 c-25 -18 -13 -44 31 -62 19 -8 34 -20 31 -27 -5 -17 -45
-21 -63 -7 -9 9 -14 9 -14 2 0 -21 41 -35 66 -23 36 16 31 49 -11 67 -40 16
-47 44 -12 44 13 0 28 -5 35 -12 9 -9 12 -9 12 0 0 11 -31 32 -47 32 -5 0 -18
-6 -28 -14z"/>
<path d="M3703 573 c-3 -10 -19 -51 -35 -91 -32 -82 -32 -82 -18 -82 5 0 12
11 16 25 5 22 12 25 50 25 38 0 46 -4 54 -25 5 -14 14 -25 20 -25 5 0 -2 30
-16 68 -14 37 -30 79 -36 95 -11 31 -26 35 -35 10z m31 -47 c3 -13 9 -31 12
-40 5 -13 -1 -16 -25 -16 -34 0 -36 3 -20 49 13 37 25 40 33 7z"/>
<path d="M4490 584 c0 -3 11 -22 25 -42 31 -45 31 -49 -1 -95 -14 -21 -23 -42
-19 -45 4 -4 13 2 21 13 37 56 43 61 54 44 19 -32 48 -64 54 -59 3 3 -8 26
-24 50 -32 48 -34 38 16 115 13 20 14 25 2 25 -7 0 -22 -16 -32 -35 -11 -19
-22 -35 -27 -35 -4 0 -16 16 -28 35 -17 30 -41 47 -41 29z"/>
<path d="M4670 494 l0 -97 47 6 c60 6 83 33 83 94 0 59 -32 93 -90 93 l-40 0
0 -96z m92 59 c23 -21 24 -89 1 -115 -9 -10 -29 -18 -45 -18 l-28 0 0 75 c0
75 0 75 27 75 14 0 35 -7 45 -17z"/>
<path d="M5363 573 c-3 -10 -19 -51 -35 -91 -32 -82 -32 -82 -18 -82 5 0 12
11 16 25 5 22 12 25 50 25 38 0 46 -4 54 -25 5 -14 14 -25 20 -25 5 0 -2 30
-16 68 -14 37 -30 79 -36 95 -11 31 -26 35 -35 10z m31 -47 c3 -13 9 -31 12
-40 5 -13 -1 -16 -25 -16 -34 0 -36 3 -20 49 13 37 25 40 33 7z"/>
<path d="M6160 495 c0 -57 4 -95 10 -95 6 0 10 16 10 35 0 34 1 35 39 35 47 0
71 20 71 60 0 38 -32 60 -87 60 l-43 0 0 -95z m100 61 c6 -8 10 -25 8 -38 -2
-19 -10 -23 -45 -26 l-43 -3 0 40 c0 40 1 41 34 41 18 0 39 -7 46 -14z"/>
<path d="M6340 570 c-11 -11 -20 -24 -20 -28 0 -19 28 -43 65 -55 32 -11 40
-19 40 -38 0 -35 -56 -40 -79 -8 -18 26 -36 17 -20 -9 16 -24 64 -36 97 -23
24 9 28 16 25 43 -3 28 -9 35 -48 49 -36 13 -45 21 -45 40 0 33 48 40 67 10
15 -24 28 -27 28 -7 0 20 -39 46 -67 46 -13 0 -32 -9 -43 -20z"/>
<path d="M6995 565 c-53 -52 -19 -165 50 -165 25 0 65 31 65 50 0 17 -14 11
-28 -10 -15 -24 -54 -26 -76 -4 -10 9 -16 33 -16 59 0 26 6 50 16 59 22 22 61
20 76 -4 14 -21 28 -27 28 -10 0 19 -40 50 -65 50 -14 0 -37 -11 -50 -25z"/>
<path d="M2900 540 c0 -5 5 -10 10 -10 6 0 10 5 10 10 0 6 -4 10 -10 10 -5 0
-10 -4 -10 -10z"/>
<path d="M3999 531 c-47 -38 -18 -131 41 -131 24 0 60 46 60 75 0 29 -36 75
-60 75 -10 0 -28 -8 -41 -19z m73 -26 c18 -40 0 -80 -36 -80 -36 0 -52 37 -37
78 14 37 57 37 73 2z"/>
<path d="M4300 530 c-40 -40 -14 -130 38 -130 10 0 27 7 38 15 18 14 17 14
-13 9 -35 -7 -63 8 -63 32 0 10 13 14 45 14 41 0 45 2 45 24 0 51 -53 73 -90
36z m68 -22 c3 -15 -4 -18 -32 -18 -38 0 -44 8 -24 28 17 17 52 11 56 -10z"/>
<path d="M5659 531 c-47 -38 -18 -131 41 -131 24 0 60 46 60 75 0 29 -36 75
-60 75 -10 0 -28 -8 -41 -19z m73 -26 c18 -40 0 -80 -36 -80 -36 0 -52 37 -37
78 14 37 57 37 73 2z"/>
<path d="M5960 530 c-43 -43 -13 -130 44 -130 13 0 29 7 36 15 11 13 8 14 -20
8 -26 -5 -36 -2 -47 12 -21 30 -16 35 38 35 51 0 51 0 45 28 -13 52 -60 68
-96 32z m70 -20 c10 -18 8 -20 -30 -20 -41 0 -49 7 -28 28 18 18 46 14 58 -8z"/>
<path d="M7164 536 c-24 -18 -13 -31 14 -15 23 14 52 6 52 -16 0 -9 -9 -15
-24 -15 -36 0 -70 -32 -62 -58 9 -26 50 -39 71 -22 10 9 15 9 15 1 0 -6 5 -11
10 -11 17 0 12 116 -6 134 -19 20 -44 20 -70 2z m66 -79 c0 -18 -21 -37 -41
-37 -22 0 -33 16 -25 35 7 19 66 20 66 2z"/>
<path d="M7290 475 c0 -43 4 -75 10 -75 6 0 10 22 10 48 0 55 18 86 46 80 16
-3 19 -13 22 -66 4 -82 22 -80 22 2 0 77 -15 96 -61 79 -16 -6 -29 -7 -29 -2
0 5 -4 9 -10 9 -6 0 -10 -32 -10 -75z"/>
<path d="M7436 528 c25 -81 40 -118 48 -120 9 -3 54 104 55 130 2 31 -17 7
-33 -43 -9 -30 -19 -55 -21 -55 -3 0 -12 25 -20 55 -9 30 -21 55 -26 55 -6 0
-7 -9 -3 -22z"/>
<path d="M7585 534 c-9 -9 -13 -19 -10 -22 3 -3 11 0 17 6 17 17 55 15 62 -4
9 -23 8 -24 -20 -24 -38 0 -64 -18 -64 -44 0 -33 18 -44 66 -43 l42 2 -5 60
c-3 33 -10 66 -16 73 -13 17 -53 15 -72 -4z m75 -77 c0 -18 -21 -37 -41 -37
-22 0 -33 16 -25 35 7 19 66 20 66 2z"/>
<path d="M2900 460 c0 -5 5 -10 10 -10 6 0 10 5 10 10 0 6 -4 10 -10 10 -5 0
-10 -4 -10 -10z"/>
<path d="M4828 424 c-5 -4 -8 -21 -8 -38 1 -26 2 -28 11 -13 11 19 8 63 -3 51z"/>
<path d="M6488 424 c-5 -4 -8 -21 -8 -38 1 -26 2 -28 11 -13 11 19 8 63 -3 51z"/>
</g>
</svg>
