<?xml version="1.0" standalone="no"?>
<!DOCTYPE svg PUBLIC "-//W3C//DTD SVG 20010904//EN"
 "http://www.w3.org/TR/2001/REC-SVG-20010904/DTD/svg10.dtd">
<svg version="1.0" xmlns="http://www.w3.org/2000/svg"
 width="1280.000000pt" height="1280.000000pt" viewBox="0 0 1280.000000 1280.000000"
 preserveAspectRatio="xMidYMid meet">

<g transform="translate(0.000000,1280.000000) scale(0.100000,-0.100000)"
fill="#000000" stroke="none">
<path d="M5556 11688 c3 -29 8 -62 10 -73 6 -21 16 -96 39 -290 14 -117 25
-184 45 -275 5 -25 14 -72 20 -105 10 -56 27 -119 71 -259 24 -75 24 -89 -2
-112 -38 -34 -136 -51 -362 -60 -126 -6 -141 -5 -195 16 -190 75 -463 240
-660 400 -51 41 -112 90 -135 108 -23 19 -98 89 -167 158 -69 68 -131 124
-137 124 -15 0 -107 -284 -128 -394 -27 -146 -38 -331 -26 -446 7 -58 13 -121
15 -140 2 -19 7 -56 11 -81 7 -45 6 -48 -27 -72 -19 -15 -61 -35 -93 -46 -91
-29 -252 -89 -277 -102 -13 -7 -57 -25 -98 -40 -263 -96 -824 -380 -851 -431
-12 -23 -4 -575 11 -718 9 -87 14 -125 40 -305 4 -33 13 -98 19 -145 12 -92
28 -171 42 -208 5 -13 9 -33 9 -45 0 -27 23 -132 60 -274 5 -21 19 -76 31
-123 20 -83 31 -125 49 -185 5 -16 14 -48 20 -70 6 -22 24 -78 40 -125 15 -47
31 -98 34 -115 4 -16 20 -64 35 -105 100 -262 128 -333 194 -490 125 -295 310
-659 462 -910 31 -52 83 -138 115 -190 91 -150 273 -417 401 -586 69 -91 48
-110 -110 -100 -59 3 -191 11 -296 16 -104 5 -323 21 -485 35 -162 14 -380 30
-485 35 -104 6 -309 22 -455 36 -227 22 -344 31 -495 38 l-30 1 -3 -1059 c-1
-583 1 -1063 6 -1068 4 -4 88 6 187 22 383 61 982 145 1175 165 69 7 240 26
380 43 405 50 821 92 995 103 88 5 232 16 320 24 254 23 442 34 695 40 l235 6
176 -133 c97 -73 212 -158 254 -188 43 -30 107 -76 144 -103 36 -26 76 -47 89
-47 32 0 118 59 455 309 50 38 119 89 152 115 l59 47 256 -5 c424 -7 914 -30
1280 -60 91 -7 181 -14 200 -14 43 -1 238 -17 380 -32 58 -6 143 -15 190 -20
363 -38 781 -93 940 -125 41 -9 116 -22 165 -29 86 -14 214 -39 469 -91 119
-25 146 -25 126 0 -7 8 -10 334 -10 1056 l0 1044 -37 -1 c-21 -1 -252 -18
-513 -38 -261 -19 -556 -40 -655 -46 -99 -6 -358 -22 -575 -35 -217 -14 -441
-25 -497 -25 -91 0 -103 2 -113 20 -8 15 -5 25 19 52 86 99 471 665 471 694 0
6 7 17 15 24 8 6 29 39 48 73 19 34 65 116 102 182 179 319 390 776 500 1087
88 245 151 439 190 583 41 154 52 193 66 235 4 14 11 45 14 70 4 25 14 70 22
100 8 30 19 75 23 100 41 231 48 269 71 405 5 33 14 112 20 175 5 63 14 138
19 165 18 89 38 651 26 699 -4 17 -30 38 -83 69 -420 243 -984 481 -1448 611
-33 10 -80 24 -105 31 -25 8 -79 23 -120 34 -41 11 -109 28 -150 39 -41 11
-93 23 -115 27 -43 7 -188 40 -245 55 -20 5 -65 14 -100 19 -36 6 -114 19
-175 31 -60 11 -164 27 -230 35 -310 37 -320 39 -342 66 -17 22 -69 121 -78
149 -4 14 -20 52 -36 85 -38 81 -124 281 -165 385 -19 47 -40 96 -48 111 -8
14 -24 51 -36 82 -12 31 -26 57 -31 57 -5 0 -9 -164 -9 -410 0 -404 0 -410
-21 -431 -19 -19 -28 -21 -93 -14 -90 9 -92 11 -382 300 -211 211 -387 400
-470 504 -10 13 -39 47 -64 76 -25 29 -74 87 -110 129 -69 82 -128 146 -135
146 -2 0 -2 -24 1 -52z m-1556 -1818 c0 -22 -6 -33 -22 -39 -13 -5 -54 -21
-93 -36 -125 -48 -159 -62 -220 -90 -242 -111 -424 -201 -514 -255 -30 -17
-69 -32 -85 -32 -46 -1 -118 15 -118 27 -1 24 572 290 794 369 24 9 86 31 138
50 52 19 101 35 108 35 7 1 12 -11 12 -29z m5970 -668 c0 -100 -78 -656 -115
-822 -8 -36 -28 -126 -44 -200 -96 -429 -229 -830 -419 -1265 -86 -198 -119
-266 -192 -400 -15 -27 -50 -93 -77 -145 -28 -52 -69 -124 -92 -160 -22 -36
-57 -94 -78 -130 -20 -36 -47 -79 -60 -96 -13 -17 -23 -34 -23 -38 0 -4 -17
-29 -37 -56 -21 -27 -59 -82 -85 -122 -26 -40 -60 -86 -74 -103 -15 -16 -38
-48 -52 -70 -22 -34 -87 -117 -169 -214 -12 -14 -22 -21 -23 -15 0 7 39 65 87
130 133 183 190 269 351 539 73 121 282 507 282 520 0 2 19 44 43 92 24 48 55
117 70 153 14 36 40 99 58 140 111 263 245 672 320 975 21 88 46 185 54 215 8
30 17 71 20 90 3 19 17 100 31 180 42 244 70 466 79 635 9 166 7 162 68 189
74 34 77 34 77 -22z m-1293 -454 c50 -121 160 -455 177 -538 44 -223 26 -427
-58 -655 -62 -167 -96 -360 -96 -550 0 -172 23 -311 72 -443 l20 -52 -87 -93
c-48 -50 -94 -96 -103 -101 -20 -11 -43 16 -89 107 -130 259 -114 749 38 1199
17 51 40 110 50 130 16 30 19 60 19 160 0 183 -35 371 -91 495 -10 24 -19 45
-19 47 0 6 -99 217 -126 269 -19 36 -22 48 -12 52 25 10 243 53 258 52 8 -1
29 -37 47 -79z m-1218 -323 c32 -71 138 -236 236 -370 56 -76 83 -125 101
-184 15 -49 30 -220 22 -243 -5 -12 -23 -12 -119 -2 -86 10 -193 11 -434 4
-345 -10 -436 -19 -560 -52 -112 -31 -280 -31 -386 -1 -144 41 -239 48 -681
47 -230 0 -418 1 -418 3 0 19 109 273 121 283 3 3 16 24 28 48 24 47 92 120
156 168 60 45 144 92 307 172 l147 73 101 -3 c63 -2 100 -7 100 -14 0 -16 -54
-72 -150 -155 -46 -41 -89 -78 -96 -84 -6 -5 -92 -82 -192 -169 -100 -88 -182
-164 -182 -169 0 -5 15 -7 33 -3 17 3 64 10 102 16 62 9 285 56 575 122 115
26 307 86 405 128 264 112 518 266 680 414 28 25 55 45 60 45 6 0 25 -33 44
-74z m-3187 28 c20 -21 59 -67 88 -103 46 -58 51 -69 45 -100 -23 -128 -35
-240 -35 -341 0 -109 2 -122 31 -190 81 -190 135 -425 159 -696 24 -271 -33
-563 -135 -689 l-24 -29 -101 101 -102 101 26 72 c46 128 66 254 66 418 0 213
-25 344 -118 628 -86 259 -83 459 10 755 17 52 32 98 35 103 8 13 19 7 55 -30z
m4173 -785 c14 -6 25 -15 25 -20 0 -4 -20 -70 -44 -146 -74 -230 -99 -380 -99
-592 -1 -193 16 -306 69 -474 20 -64 16 -74 -39 -83 -100 -16 -147 64 -182
307 -36 257 -5 600 75 818 28 75 80 175 99 189 20 16 63 16 96 1z m-3831 -45
c13 -27 62 -114 109 -195 46 -81 89 -166 95 -190 25 -97 36 -322 23 -468 -28
-338 -85 -450 -207 -410 -41 14 -41 6 0 144 38 130 59 315 52 461 -12 214 -39
357 -109 563 -35 105 -39 124 -27 132 27 18 40 10 64 -37z m1261 -183 c159
-14 305 -38 333 -56 12 -8 22 -22 22 -32 -1 -59 -140 -470 -178 -523 -42 -60
-63 -64 -347 -63 -223 1 -258 3 -328 22 -133 36 -148 56 -178 227 -18 98 -18
357 -1 378 37 44 404 70 677 47z m1719 -1 c165 -14 217 -27 234 -59 27 -51 -2
-443 -38 -510 -13 -24 -61 -49 -155 -81 -66 -22 -84 -24 -315 -24 -135 0 -257
3 -272 8 -50 14 -94 75 -142 197 -56 142 -96 277 -103 350 -5 54 -4 56 23 69
102 46 505 73 768 50z m-3479 -194 c30 -202 24 -545 -9 -545 -29 0 -41 59 -55
255 -10 130 3 374 20 407 17 32 26 10 44 -117z m2483 -15 c38 -23 47 -43 155
-314 61 -155 77 -187 114 -222 88 -86 220 -110 500 -94 104 6 208 15 233 19
123 24 165 34 217 52 96 33 93 33 93 13 -1 -11 -7 -46 -14 -79 -54 -243 -237
-433 -673 -700 -334 -204 -423 -237 -678 -255 -142 -9 -238 4 -373 52 -114 40
-169 68 -337 173 -306 192 -372 240 -506 375 -83 83 -113 121 -139 174 -39 83
-70 188 -70 240 0 32 3 37 18 31 103 -44 330 -80 567 -90 225 -9 358 18 444
92 47 40 50 46 157 308 89 220 110 245 201 245 41 0 68 -6 91 -20z m-680
-1614 c20 -14 69 -47 107 -75 260 -185 428 -285 520 -310 169 -46 319 46 451
274 27 47 54 94 61 103 10 14 12 -40 13 -263 0 -154 -4 -285 -8 -292 -10 -16
-176 -97 -248 -122 -242 -81 -520 -77 -742 10 -98 39 -172 77 -199 102 -23 20
-23 24 -23 271 0 252 5 326 22 326 4 0 25 -11 46 -24z m-198 -549 c0 -7 -5
-18 -12 -25 -9 -9 -9 -15 0 -24 7 -7 12 -18 12 -26 0 -18 42 -55 100 -89 53
-31 80 -53 80 -65 0 -13 -84 -10 -98 4 -9 9 -15 9 -23 1 -8 -8 -66 -10 -193
-6 l-181 5 -32 34 c-18 19 -33 41 -33 50 0 8 -4 12 -10 9 -5 -3 -10 -1 -10 5
0 6 6 10 13 8 6 -1 26 6 44 15 18 9 41 17 53 17 11 0 20 5 20 10 0 6 11 10 24
10 14 0 27 4 31 9 3 5 20 13 37 17 18 3 39 10 48 14 78 39 130 50 130 27z m34
-321 c68 -28 66 -17 66 -461 l0 -401 25 -34 c34 -46 32 -75 -9 -116 -41 -41
-89 -46 -130 -13 -28 22 -29 22 -118 -10 -162 -59 -323 11 -371 160 -23 71
-24 323 -1 398 20 69 88 143 152 168 43 16 144 22 207 11 19 -3 20 4 25 123 5
137 11 152 65 175 39 17 49 17 89 0z m3714 -31 l32 -35 0 -213 c0 -118 3 -216
6 -219 3 -4 38 28 77 70 120 128 125 132 168 132 54 0 109 -48 109 -96 0 -30
-13 -48 -95 -133 -52 -55 -95 -105 -95 -111 0 -7 47 -75 105 -151 58 -76 108
-152 111 -168 5 -26 1 -36 -29 -66 -28 -28 -43 -35 -74 -35 -21 0 -49 7 -61
16 -12 8 -63 69 -113 135 -49 65 -94 119 -99 119 -6 0 -10 -42 -10 -101 l0
-101 -34 -34 c-48 -48 -101 -48 -154 0 l-37 34 0 459 c0 509 -2 492 67 527 45
23 86 13 126 -29z m-5838 9 c66 -19 105 -46 126 -86 21 -40 12 -69 -31 -107
-42 -37 -56 -38 -161 -11 -131 34 -200 12 -211 -66 -8 -62 20 -87 147 -130
129 -44 170 -65 221 -111 64 -58 84 -104 84 -198 0 -67 -4 -89 -28 -137 -33
-67 -90 -121 -166 -157 -51 -24 -66 -26 -181 -26 -107 1 -134 4 -185 25 -122
48 -157 120 -91 186 41 41 65 43 168 14 114 -32 215 -23 238 20 17 32 12 115
-7 132 -10 9 -70 33 -133 54 -141 48 -223 100 -265 168 -28 45 -30 57 -30 140
0 82 3 96 30 145 81 147 267 203 475 145z m3875 16 c130 -19 235 -92 235 -164
0 -26 -8 -41 -35 -65 -45 -39 -73 -39 -149 -1 -99 50 -217 37 -250 -29 -13
-25 -16 -71 -16 -263 0 -251 3 -265 53 -302 22 -16 43 -21 95 -21 37 0 77 6
90 13 22 12 23 18 20 110 l-3 97 -54 5 c-44 5 -58 11 -82 38 -40 44 -38 82 5
130 33 36 36 37 116 40 121 6 168 -4 207 -43 l33 -33 0 -196 c0 -213 -3 -227
-57 -277 -68 -64 -175 -94 -309 -87 -100 5 -173 32 -235 86 -52 45 -97 136
-109 218 -13 90 -13 361 0 444 26 160 135 274 289 300 65 11 77 11 156 0z
m-3400 -110 c28 -28 30 -37 35 -118 l5 -87 63 -6 c54 -5 68 -11 98 -39 43 -43
45 -78 5 -122 -26 -30 -36 -33 -98 -38 l-68 -5 -3 -136 c-1 -75 2 -148 7 -161
9 -23 16 -26 80 -30 61 -3 74 -7 101 -33 40 -39 41 -83 1 -127 -28 -31 -34
-33 -109 -36 -117 -6 -178 15 -235 78 -28 31 -49 66 -56 94 -7 29 -11 167 -11
388 0 379 -1 375 64 404 42 19 85 10 121 -26z m4144 -170 c81 -14 130 -39 173
-90 83 -96 77 -259 -12 -333 -52 -45 -98 -59 -210 -66 -115 -7 -129 -16 -92
-61 27 -33 100 -38 179 -11 87 29 109 27 149 -13 39 -39 42 -58 15 -102 -33
-54 -115 -86 -230 -92 -131 -6 -195 12 -264 76 -80 75 -87 97 -87 307 0 203 8
232 74 298 46 46 86 68 156 83 70 16 73 16 149 4z m690 0 c81 -14 130 -39 173
-90 83 -96 77 -259 -12 -333 -52 -45 -98 -59 -210 -66 -115 -7 -129 -16 -92
-61 27 -33 100 -38 179 -11 87 29 109 27 149 -13 39 -39 42 -58 15 -102 -33
-54 -115 -86 -230 -92 -131 -6 -195 12 -264 76 -80 75 -87 97 -87 307 0 203 8
232 74 298 46 46 86 68 156 83 70 16 73 16 149 4z m-4346 -14 c63 -26 66 -39
69 -295 3 -267 3 -267 88 -265 81 1 79 -6 82 265 l3 239 32 31 c26 26 40 32
78 33 42 1 50 -3 81 -36 l34 -38 0 -254 c0 -220 2 -255 16 -267 28 -23 35 -57
20 -93 -27 -64 -98 -86 -149 -46 -31 25 -30 25 -102 -5 -67 -28 -161 -33 -227
-13 -50 15 -122 78 -151 132 -21 39 -22 55 -25 294 -4 281 -2 290 61 317 41
18 50 18 90 1z m1470 0 c18 -7 40 -22 49 -32 17 -20 128 -306 128 -331 0 -8 5
-13 11 -11 6 2 33 73 60 157 26 84 55 164 64 178 25 37 79 57 121 43 37 -13
84 -62 84 -90 0 -30 -228 -681 -265 -757 -41 -83 -121 -163 -182 -181 -22 -7
-64 -12 -93 -12 -46 0 -56 4 -86 34 -43 43 -44 74 -3 121 22 25 43 37 70 41
56 9 86 37 105 98 l17 53 -112 287 c-61 157 -111 299 -111 314 0 36 25 71 64
88 39 17 40 17 79 0z"/>
<path d="M6581 6470 l-84 -29 -86 24 c-94 28 -111 30 -111 15 0 -13 61 -74
121 -123 72 -58 102 -49 217 60 95 91 84 102 -57 53z"/>
<path d="M5635 5030 c4 -6 11 -8 16 -5 14 9 11 15 -7 15 -8 0 -12 -5 -9 -10z"/>
<path d="M5565 5000 c4 -6 11 -8 16 -5 14 9 11 15 -7 15 -8 0 -12 -5 -9 -10z"/>
<path d="M5678 5003 c7 -3 16 -2 19 1 4 3 -2 6 -13 5 -11 0 -14 -3 -6 -6z"/>
<path d="M5387 4935 c-15 -22 -16 -25 -2 -25 8 0 15 7 15 15 0 8 7 15 15 15 8
0 15 5 15 10 0 18 -25 10 -43 -15z"/>
<path d="M5443 4233 c-24 -36 -31 -238 -11 -298 17 -50 55 -64 120 -44 l43 14
3 165 c3 190 3 190 -85 190 -46 0 -55 -3 -70 -27z"/>
<path d="M8159 4283 c-40 -6 -62 -37 -63 -86 l-1 -42 67 -3 c62 -3 68 -1 84
23 16 24 14 89 -4 98 -15 8 -58 13 -83 10z"/>
<path d="M8805 4260 c-11 -12 -19 -36 -19 -63 l-1 -42 67 -3 c63 -3 68 -1 84
23 14 21 15 34 8 63 -9 37 -10 37 -65 40 -45 2 -58 -1 -74 -18z"/>
</g>
</svg>
