<?xml version="1.0" encoding="utf-8"?>
<!-- Svg Vector Icons : http://www.onlinewebfonts.com/icon -->
<!DOCTYPE svg PUBLIC "-//W3C//DTD SVG 1.1//EN" "http://www.w3.org/Graphics/SVG/1.1/DTD/svg11.dtd">
<svg version="1.1" xmlns="http://www.w3.org/2000/svg" xmlns:xlink="http://www.w3.org/1999/xlink" x="0px" y="0px" viewBox="0 0 256 256" enable-background="new 0 0 256 256" xml:space="preserve">
<metadata> Svg Vector Icons : http://www.onlinewebfonts.com/icon </metadata>
<g><g><g><path fill="#000000" d="M116.7,10.3C88.9,13.2,63.9,25,44.4,44.5c-18.7,18.7-30,41.7-33.9,69c-0.8,5.5-0.8,23.6,0,29.1c3.9,27.4,15.1,50.3,33.9,69c18.8,18.7,41.6,29.9,69,33.9c5.4,0.8,23.6,0.8,29.1,0c19-2.7,35.2-8.7,50.6-18.8c12.6-8.2,25.3-21,33.5-33.5c10.1-15.4,16-31.5,18.8-50.6c0.8-5.5,0.8-23.6,0-29.1c-3.9-27.4-15.1-50.3-33.9-69c-18.3-18.3-40.6-29.5-66.9-33.5C138.8,10.1,122.6,9.6,116.7,10.3z M190.8,126.9v43.6H128H65.2v-43.6V83.2H128h62.8V126.9z"/><path fill="#000000" d="M72.7,93.2l0.1,2.7l27.6,17.1l27.7,17.2l27.7-17.4l27.7-17.3v-2.4v-2.5H128H72.5L72.7,93.2z"/><path fill="#000000" d="M72.6,130.8c0,14.5,0.1,26.3,0.2,26.3c0.3,0,27-34,27.3-34.8c0.2-0.6-1.1-1.5-22.8-15l-4.8-2.9L72.6,130.8L72.6,130.8z"/><path fill="#000000" d="M169.4,113.1c-7.6,4.7-13.7,8.7-13.6,8.9s6.3,8.1,13.8,17.6l13.6,17.4l0.1-13.1c0-7.2,0-19,0-26.2l-0.1-13.2L169.4,113.1z"/><path fill="#000000" d="M92.4,144.3l-14.5,18.6l25.1,0.1c13.8,0,36.4,0,50.3,0l25.2-0.1l-13.9-17.8c-7.7-9.8-14.3-18.2-14.7-18.6c-0.7-0.7-1.4-0.4-10.7,5.5c-5.5,3.4-10.3,6.3-10.6,6.5c-0.4,0.1-5.2-2.6-10.6-6c-5.5-3.4-10.2-6.3-10.4-6.5C107.2,125.9,100.4,134.2,92.4,144.3z"/></g></g></g>
</svg>