<svg class="svg-icon" style="width: 1em; height: 1em;vertical-align: middle;fill: currentColor;overflow: hidden;" viewBox="0 0 1024 1024" version="1.1" xmlns="http://www.w3.org/2000/svg"><path d="M512 554.7l417.3-294.6c-2.3-0.4-4.3-1.1-6.6-1.1H101.4c-2.3 0-4.3 0.8-6.6 1.1L512 554.7zM960 290.6c0-3.3-1.1-6.4-2.3-9.4L661.9 490.1l296.3 251c0.8-2.5 1.8-5 1.8-7.7V290.6zM66.3 281.2c-1.1 3-2.3 6.1-2.3 9.5v442.8c0 2.8 1.1 5.2 1.9 7.7l296.3-251.1L66.3 281.2z"  /><path d="M633.1 510.4l-109.2 77c-3.4 2.5-7.7 3.7-11.9 3.7s-8.5-1.2-11.9-3.7l-109.1-77-298.7 253c2.9 0.7 5.9 1.6 9 1.6h821.3c3.2 0 6.2-0.9 9.2-1.6l-298.7-253z"  /></svg>