<?xml version="1.0" encoding="utf-8"?>
<!-- Svg Vector Icons : http://www.onlinewebfonts.com/icon -->
<!DOCTYPE svg PUBLIC "-//W3C//DTD SVG 1.1//EN" "http://www.w3.org/Graphics/SVG/1.1/DTD/svg11.dtd">
<svg version="1.1" xmlns="http://www.w3.org/2000/svg" xmlns:xlink="http://www.w3.org/1999/xlink" x="0px" y="0px" viewBox="0 0 256 256" enable-background="new 0 0 256 256" xml:space="preserve">
<metadata> Svg Vector Icons : http://www.onlinewebfonts.com/icon </metadata>
<g><g><g><path fill="#000000" d="M21.2,39.8c-5.8,1.4-10.7,6.9-11,12.3l-0.1,2.2l16.8,13C79.2,107.6,127.8,145,128,145c0.1,0,26.7-20.4,59-45.4l58.8-45.3l0-2c-0.1-4.3-3.7-9.2-8.3-11.5l-2.3-1.2l-106.3-0.1C70.4,39.6,22,39.6,21.2,39.8z"/><path fill="#000000" d="M10,145.8l0.1,59.9l1.2,2.3c1.4,3,4.2,5.7,7.1,7.1l2.3,1.2l106.3,0.1c96.5,0.1,106.5,0,108.6-0.6c4.7-1.5,8.2-4.9,9.7-9.7c0.7-2,0.7-8.2,0.6-60.5l-0.1-58.2l-54.6,41c-30,22.6-55.5,41.5-56.7,42.1c-1.8,0.9-2.9,1.1-6.5,1.1c-3.8,0-4.7-0.1-6.8-1.2c-1.3-0.6-26.7-19.8-56.3-42.5c-29.7-22.7-54.2-41.4-54.5-41.6C10.1,86,9.9,101.1,10,145.8z"/></g></g></g>
</svg>