<?xml version="1.0" standalone="no"?>
<!DOCTYPE svg PUBLIC "-//W3C//DTD SVG 20010904//EN"
 "http://www.w3.org/TR/2001/REC-SVG-20010904/DTD/svg10.dtd">
<svg version="1.0" xmlns="http://www.w3.org/2000/svg"
 width="512.000000pt" height="512.000000pt" viewBox="0 0 512.000000 512.000000"
 preserveAspectRatio="xMidYMid meet">

<g transform="translate(0.000000,512.000000) scale(0.100000,-0.100000)"
fill="#000000" stroke="none">
<path d="M2325 5109 c-882 -82 -1660 -616 -2054 -1410 -195 -391 -285 -805
-268 -1229 16 -381 100 -712 268 -1049 197 -398 500 -743 864 -986 1185 -790
2772 -471 3560 715 459 692 551 1579 244 2353 -247 624 -743 1136 -1360 1404
-390 170 -832 241 -1254 202z m-648 -1219 c32 -12 517 -491 539 -532 8 -15 14
-41 14 -59 0 -28 -22 -54 -169 -203 -92 -94 -176 -186 -185 -203 -38 -75 -30
-164 21 -241 167 -248 607 -673 810 -782 46 -25 137 -27 191 -5 23 10 101 79
202 180 167 166 193 184 248 170 34 -8 525 -494 548 -543 30 -64 -4 -118 -163
-257 -169 -148 -350 -210 -547 -185 -259 32 -699 249 -1002 493 -436 352 -776
815 -924 1258 -80 238 -58 437 71 629 48 72 252 277 281 283 13 2 26 5 30 6 4
0 19 -4 35 -9z"/>
</g>
</svg>
