<?xml version="1.0" encoding="utf-8"?>
<!-- Generator: Adobe Illustrator 23.1.1, SVG Export Plug-In . SVG Version: 6.00 Build 0)  -->
<svg version="1.1" id="Layer_1" xmlns="http://www.w3.org/2000/svg" xmlns:xlink="http://www.w3.org/1999/xlink" x="0px" y="0px"
	 viewBox="0 0 122.64 63.75" style="enable-background:new 0 0 122.64 63.75;" xml:space="preserve">
<style type="text/css">
	.st0{fill:url(#SVGID_1_);}
	.st1{fill:url(#SVGID_2_);}
	.st2{opacity:0.24;fill:#1A4698;}
	.st3{fill:#D82427;}
	.st4{fill:#109FDA;}
	.st5{fill:url(#SVGID_3_);}
	.st6{fill:#2DAF4A;}
</style>
<g>
	<g>
		<path d="M11.88,52.15c0,0.94-0.29,1.66-0.86,2.16c-0.57,0.5-1.38,0.75-2.44,0.75H2.63v4.84H1.94V47.68h6.71
			c0.97,0,1.77,0.25,2.39,0.76c0.55,0.45,0.83,0.98,0.83,1.59V52.15z M11.18,52.14v-1.95c0-0.55-0.23-1-0.69-1.36
			c-0.47-0.36-1.07-0.54-1.82-0.54H2.63v6.17h6.04c0.83,0,1.46-0.2,1.88-0.59C10.97,53.47,11.18,52.89,11.18,52.14z"/>
		<path d="M2.95,60.21H1.62V47.36h7.04c1.05,0,1.92,0.28,2.59,0.84c0.63,0.51,0.95,1.13,0.95,1.84v2.11c0,1.03-0.33,1.83-0.97,2.4
			c-0.63,0.55-1.52,0.83-2.65,0.83H2.95V60.21z M2.26,59.57h0.05V48H2.26V59.57z M2.95,54.13h5.72c0.74,0,1.3-0.17,1.66-0.51
			c0.35-0.33,0.53-0.83,0.53-1.49v-1.95c0-0.45-0.19-0.81-0.57-1.11c-0.41-0.32-0.94-0.47-1.62-0.47H2.95V54.13z M10.77,48.63
			c0.49,0.41,0.74,0.93,0.74,1.55v1.95c0,0.8-0.22,1.44-0.66,1.89c0.48-0.44,0.71-1.06,0.71-1.88v-2.11c0-0.52-0.23-0.95-0.71-1.34
			C10.82,48.67,10.79,48.65,10.77,48.63z"/>
	</g>
	<g>
		<path d="M23.19,57.42c0,0.82-0.24,1.43-0.74,1.85c-0.49,0.41-1.31,0.62-2.46,0.62h-2.25c-1.11,0-1.92-0.21-2.44-0.63
			c-0.52-0.42-0.78-1.03-0.78-1.84v-6.74h0.61v6.74c0,1.29,0.87,1.93,2.61,1.93h2.25c1.71,0,2.57-0.63,2.57-1.88v-6.79h0.63V57.42z"
			/>
		<path d="M19.99,60.21h-2.25c-1.18,0-2.06-0.24-2.64-0.7c-0.6-0.48-0.9-1.19-0.9-2.09v-7.06h1.26v7.06c0,0.69,0.24,1.61,2.28,1.61
			h2.25c2.02,0,2.25-0.89,2.25-1.56v-7.11h1.27v7.06c0,0.91-0.29,1.62-0.85,2.09C22.1,59.99,21.22,60.21,19.99,60.21z"/>
	</g>
	<g>
		<path d="M30.36,51.24h-0.81c-0.59,0-1.08,0.16-1.46,0.48c-0.45,0.38-0.67,0.9-0.67,1.57v6.6h-0.61v-6.6c0-0.85,0.27-1.5,0.8-1.94
			c0.53-0.44,1.21-0.66,2.04-0.66h0.71V51.24z"/>
		<path d="M27.74,60.21h-1.25v-6.92c0-0.95,0.31-1.68,0.91-2.19c0.59-0.49,1.35-0.74,2.25-0.74h1.03v1.2h-1.13
			c-0.51,0-0.93,0.14-1.26,0.41c-0.37,0.32-0.55,0.75-0.55,1.33V60.21z"/>
	</g>
	<g>
		<path d="M41,59.89h-5.35c-1.13,0-1.95-0.21-2.46-0.63c-0.51-0.42-0.76-1.08-0.76-1.99v-3.91c0-0.97,0.24-1.65,0.72-2.06
			c0.48-0.41,1.3-0.61,2.46-0.61h2.53c1.06,0,1.8,0.21,2.22,0.63c0.43,0.42,0.64,1.14,0.64,2.15v0.24l-7.96,3.09v0.4
			c0,0.82,0.18,1.38,0.54,1.69c0.36,0.31,0.99,0.47,1.89,0.47H41V59.89z M40.35,53.36c0.03-0.18,0.04-0.32,0.04-0.4
			c0-0.54-0.21-0.96-0.64-1.27c-0.43-0.3-1.06-0.46-1.89-0.46h-2.09c-0.97,0-1.67,0.15-2.09,0.45c-0.42,0.3-0.63,0.8-0.63,1.5v2.99
			L40.35,53.36z"/>
		<path d="M41.33,60.21h-5.67c-1.22,0-2.09-0.23-2.66-0.7c-0.58-0.48-0.88-1.24-0.88-2.24v-3.91c0-1.06,0.28-1.83,0.83-2.31
			c0.55-0.46,1.42-0.69,2.67-0.69h2.53c1.16,0,1.96,0.24,2.45,0.72c0.49,0.48,0.74,1.28,0.74,2.38v0.46l-7.96,3.09v0.18
			c0,0.72,0.14,1.2,0.43,1.45c0.3,0.26,0.86,0.39,1.67,0.39h5.86V60.21z M35.77,51.56c-0.9,0-1.54,0.13-1.91,0.39
			c-0.33,0.24-0.5,0.64-0.5,1.24v2.52l6.69-2.58c0.01-0.07,0.01-0.13,0.01-0.17c0-0.44-0.16-0.76-0.51-1.01
			c-0.37-0.26-0.94-0.4-1.7-0.4H35.77z M40.68,53.32c0,0.03-0.01,0.06-0.01,0.09l-0.01,0.09l0.03-0.04
			C40.68,53.42,40.68,53.37,40.68,53.32z M39.4,51.15c0.2,0.08,0.38,0.17,0.54,0.28c0.17,0.12,0.31,0.26,0.42,0.41
			c-0.07-0.11-0.14-0.21-0.22-0.29C39.96,51.37,39.71,51.24,39.4,51.15z"/>
	</g>
	<g>
		<path d="M52.48,48.29h-5.64c-1.77,0-2.65,0.72-2.65,2.16v0.94c0,1.34,0.94,2.01,2.82,2.01h2.13c1.07,0,1.89,0.24,2.47,0.71
			c0.58,0.47,0.87,1.12,0.87,1.95v1.21c0,0.84-0.24,1.47-0.71,1.89c-0.55,0.49-1.44,0.74-2.65,0.74h-5.62v-0.6h5.62
			c0.96,0,1.65-0.17,2.06-0.51c0.41-0.34,0.61-0.83,0.61-1.47V56.1c0-1.38-0.88-2.07-2.65-2.07h-2.11c-2.36,0-3.53-0.84-3.53-2.54
			v-1.02c0-0.93,0.31-1.62,0.93-2.09c0.62-0.47,1.43-0.7,2.44-0.7h5.62V48.29z"/>
		<path d="M49.12,60.21h-5.94v-1.25h5.94c0.87,0,1.51-0.15,1.85-0.43c0.33-0.28,0.5-0.68,0.5-1.23V56.1c0-0.75-0.24-1.74-2.32-1.74
			h-2.11c-3.19,0-3.86-1.55-3.86-2.86v-1.02c0-1.03,0.35-1.82,1.05-2.35c0.67-0.51,1.56-0.77,2.63-0.77h5.94v1.25h-5.96
			c-2.09,0-2.33,1.05-2.33,1.84v0.94c0,0.72,0.26,1.69,2.5,1.69h2.13c1.14,0,2.04,0.26,2.67,0.78c0.66,0.53,0.99,1.27,0.99,2.2v1.21
			c0,0.93-0.27,1.64-0.82,2.13C51.37,59.94,50.41,60.21,49.12,60.21z M50.88,54.03c0.98,0.45,1.23,1.31,1.23,2.07v1.21
			c0,0.74-0.25,1.32-0.73,1.72c-0.06,0.05-0.13,0.1-0.2,0.14c0.14-0.08,0.27-0.16,0.38-0.26c0.4-0.36,0.6-0.92,0.6-1.65v-1.21
			c0-0.73-0.25-1.29-0.75-1.7C51.25,54.23,51.08,54.12,50.88,54.03z M44.31,48.92c-0.33,0.39-0.5,0.9-0.5,1.56v1.02
			c0,1.31,0.81,2.03,2.48,2.18c-1.99-0.21-2.44-1.34-2.44-2.29v-0.94C43.86,49.94,43.97,49.38,44.31,48.92z"/>
	</g>
	<g>
		<path d="M63.99,57.32c0,0.95-0.24,1.61-0.72,1.99c-0.48,0.39-1.21,0.58-2.18,0.58h-2.51c-1.04,0-1.81-0.21-2.3-0.63
			c-0.49-0.42-0.74-1.07-0.74-1.94V53.4c0-1,0.27-1.71,0.81-2.14c0.48-0.38,1.23-0.57,2.23-0.57h2.51c1.93,0,2.9,0.91,2.9,2.71
			V57.32z M63.36,57.53v-4.3c0-0.74-0.2-1.25-0.61-1.55c-0.41-0.29-0.97-0.44-1.7-0.44H58.6c-0.95,0-1.59,0.15-1.93,0.45
			c-0.34,0.3-0.51,0.81-0.51,1.54v4.25c0,0.63,0.2,1.1,0.6,1.42c0.4,0.31,1.02,0.47,1.85,0.47h2.45c0.84,0,1.44-0.15,1.79-0.44
			C63.19,58.62,63.36,58.16,63.36,57.53z"/>
		<path d="M61.09,60.21h-2.51c-1.13,0-1.95-0.23-2.51-0.7c-0.57-0.48-0.85-1.22-0.85-2.19V53.4c0-1.1,0.31-1.91,0.94-2.39
			c0.54-0.42,1.36-0.64,2.43-0.64h2.51c2.11,0,3.22,1.05,3.22,3.03v3.92c0,1.04-0.28,1.8-0.84,2.24
			C62.94,60,62.14,60.21,61.09,60.21z M58.6,51.56c-1.07,0-1.53,0.2-1.72,0.37c-0.27,0.23-0.4,0.67-0.4,1.3v4.25
			c0,0.53,0.16,0.91,0.48,1.16c0.34,0.26,0.9,0.4,1.65,0.4h2.45c0.75,0,1.3-0.13,1.58-0.37c0.28-0.23,0.41-0.61,0.41-1.15v-4.3
			c0-0.63-0.16-1.05-0.48-1.28c-0.35-0.25-0.86-0.38-1.51-0.38H58.6z"/>
	</g>
	<g>
		<path d="M71.02,51.24h-2.85v8.65h-0.61v-9.74c0-0.78,0.23-1.39,0.7-1.82c0.47-0.43,1.1-0.65,1.9-0.65h0.85v0.55h-0.79
			c-0.6,0-1.1,0.18-1.48,0.52c-0.38,0.35-0.57,0.8-0.57,1.36v0.57h2.85V51.24z"/>
		<path d="M68.5,60.21h-1.25V50.15c0-0.88,0.27-1.57,0.81-2.06c0.53-0.49,1.24-0.73,2.12-0.73h1.17v1.19h-1.11
			c-0.53,0-0.94,0.14-1.26,0.44c-0.31,0.29-0.47,0.65-0.47,1.12v0.25h2.85v1.2H68.5V60.21z M68.41,48.64
			c-0.05,0.06-0.11,0.12-0.15,0.18C68.31,48.76,68.36,48.7,68.41,48.64z"/>
	</g>
	<g>
		<path d="M76.77,51.24h-2.94v8.65h-0.61V47.68h0.61v3h2.94V51.24z"/>
		<polygon points="74.15,60.21 72.89,60.21 72.89,47.36 74.15,47.36 74.15,50.36 77.09,50.36 77.09,51.56 74.15,51.56 		"/>
	</g>
	<g>
		<path d="M91.7,50.69l-2.88,8.64c-0.15,0.44-0.32,0.66-0.52,0.66c-0.19,0-0.35-0.21-0.51-0.62l-2.6-7.61l-2.63,7.61
			c-0.15,0.41-0.33,0.62-0.54,0.62c-0.23,0-0.41-0.21-0.55-0.64l-2.82-8.66l0.65,0l2.75,8.23l2.66-7.64
			c0.14-0.39,0.3-0.59,0.47-0.59c0.2,0,0.35,0.2,0.47,0.59l2.64,7.64l2.75-8.23L91.7,50.69z"/>
		<path d="M88.3,60.3c-0.5,0-0.73-0.62-0.81-0.83l-2.3-6.73l-2.32,6.72c-0.2,0.56-0.48,0.84-0.85,0.84c-0.38,0-0.67-0.29-0.85-0.86
			l-2.96-9.07l1.33,0l2.52,7.56l2.35-6.75c0.07-0.2,0.29-0.8,0.78-0.8c0.35,0,0.62,0.27,0.78,0.81l2.33,6.74l2.52-7.55l1.33,0
			l-3.02,9.06C89.06,59.64,88.84,60.3,88.3,60.3z M79.94,53.59l1.84,5.66c0.06,0.19,0.12,0.29,0.16,0.35L79.94,53.59z"/>
	</g>
	<g>
		<path d="M102.89,57.41c0,0.88-0.24,1.52-0.73,1.94c-0.43,0.37-1.06,0.55-1.9,0.55H97.1c-0.84,0-1.51-0.21-2.01-0.64
			c-0.5-0.43-0.75-1-0.75-1.71v-1.38c0-0.74,0.24-1.32,0.73-1.76c0.49-0.44,1.15-0.65,1.99-0.65h5.23v-0.59
			c0-0.61-0.2-1.08-0.59-1.42c-0.4-0.33-0.94-0.5-1.65-0.5h-5.72v-0.55h5.4c2.1,0,3.15,0.86,3.15,2.57V57.41z M102.3,57.54V54.3
			h-5.27c-0.63,0-1.14,0.16-1.51,0.49c-0.38,0.33-0.57,0.78-0.57,1.36v1.36c0,0.54,0.2,0.99,0.6,1.33c0.4,0.35,0.91,0.52,1.54,0.52
			h3.21c0.65,0,1.14-0.16,1.48-0.47C102.12,58.57,102.3,58.12,102.3,57.54z"/>
		<path d="M100.26,60.21H97.1c-0.92,0-1.67-0.24-2.22-0.72c-0.57-0.49-0.86-1.14-0.86-1.95v-1.38c0-0.83,0.28-1.5,0.84-2
			c0.54-0.49,1.29-0.74,2.21-0.74h4.91v-0.27c0-0.51-0.16-0.9-0.48-1.17c-0.34-0.28-0.81-0.42-1.44-0.42h-6.04v-1.2h5.73
			c2.87,0,3.47,1.57,3.47,2.9v4.15c0,0.97-0.28,1.7-0.84,2.18C101.88,60,101.17,60.21,100.26,60.21z M97.03,54.62
			c-0.55,0-0.99,0.14-1.3,0.41c-0.31,0.27-0.46,0.63-0.46,1.11v1.36c0,0.45,0.16,0.8,0.48,1.09c0.34,0.3,0.77,0.44,1.33,0.44h3.21
			c0.56,0,0.99-0.13,1.27-0.39c0.28-0.26,0.41-0.62,0.41-1.11v-2.93H97.03z"/>
	</g>
	<g>
		<path d="M110.06,51.24h-0.81c-0.59,0-1.08,0.16-1.46,0.48c-0.45,0.38-0.67,0.9-0.67,1.57v6.6h-0.61v-6.6c0-0.85,0.27-1.5,0.8-1.94
			c0.53-0.44,1.22-0.66,2.05-0.66h0.71V51.24z"/>
		<path d="M107.43,60.21h-1.26v-6.92c0-0.94,0.31-1.68,0.91-2.19c0.59-0.49,1.35-0.74,2.25-0.74h1.03v1.2h-1.13
			c-0.52,0-0.93,0.13-1.25,0.41c-0.38,0.32-0.56,0.75-0.56,1.33V60.21z"/>
	</g>
	<g>
		<path d="M120.7,59.89h-5.35c-1.13,0-1.95-0.21-2.46-0.63c-0.51-0.42-0.76-1.08-0.76-1.99v-3.91c0-0.97,0.24-1.65,0.72-2.06
			c0.48-0.41,1.3-0.61,2.46-0.61h2.53c1.05,0,1.79,0.21,2.22,0.63c0.43,0.42,0.64,1.14,0.64,2.15v0.24l-7.96,3.09v0.4
			c0,0.82,0.18,1.38,0.54,1.69c0.36,0.31,0.99,0.47,1.89,0.47h5.54V59.89z M120.04,53.36c0.03-0.18,0.04-0.32,0.04-0.4
			c0-0.54-0.21-0.96-0.64-1.27c-0.43-0.3-1.05-0.46-1.88-0.46h-2.09c-0.98,0-1.68,0.15-2.09,0.45c-0.42,0.3-0.63,0.8-0.63,1.5v2.99
			L120.04,53.36z"/>
		<path d="M121.02,60.21h-5.67c-1.22,0-2.09-0.23-2.66-0.7c-0.58-0.48-0.88-1.24-0.88-2.24v-3.91c0-1.06,0.28-1.83,0.84-2.31
			c0.55-0.46,1.42-0.69,2.67-0.69h2.53c1.15,0,1.95,0.24,2.44,0.72c0.5,0.49,0.74,1.26,0.74,2.38v0.46l-7.96,3.09v0.18
			c0,0.72,0.14,1.2,0.43,1.45c0.29,0.25,0.87,0.39,1.68,0.39h5.86V60.21z M115.47,51.56c-0.9,0-1.55,0.13-1.91,0.39
			c-0.34,0.24-0.5,0.64-0.5,1.24v2.52l6.69-2.58c0.01-0.07,0.01-0.12,0.01-0.16c0-0.44-0.16-0.76-0.51-1
			c-0.37-0.26-0.94-0.4-1.7-0.4H115.47z M120.38,53.32c-0.01,0.03-0.01,0.06-0.02,0.1l-0.02,0.09l0.03-0.04
			C120.38,53.42,120.38,53.36,120.38,53.32z M119.09,51.15c0.2,0.08,0.38,0.17,0.54,0.28c0.17,0.12,0.31,0.25,0.42,0.4
			c-0.06-0.11-0.14-0.21-0.22-0.29C119.66,51.37,119.41,51.24,119.09,51.15z"/>
	</g>
	<linearGradient id="SVGID_1_" gradientUnits="userSpaceOnUse" x1="40.9656" y1="38.1373" x2="59.1466" y2="35.4909">
		<stop  offset="0" style="stop-color:#004A67"/>
		<stop  offset="1" style="stop-color:#109FDA"/>
	</linearGradient>
	<path class="st0" d="M59.13,36.46c-5.96,0.32-11.57,1.96-16.53,4.62c0.19,0.33-0.84-1.45-0.84-1.45l-0.23-0.4
		c-0.55-0.94-0.17-0.3-0.75-1.29c0.91-0.65,6.45-5.08,18.36-5.32"/>
	<g>
		<linearGradient id="SVGID_2_" gradientUnits="userSpaceOnUse" x1="55.6911" y1="22.2931" x2="62.6408" y2="5.3328">
			<stop  offset="0" style="stop-color:#D82427"/>
			<stop  offset="1" style="stop-color:#632322"/>
		</linearGradient>
		<path class="st1" d="M54.97,21.77c2.7-5.29,4.08-10.94,4.24-16.55c-0.38,0,1.69,0,1.69,0l0.46,0c1.1,0,0.35,0,1.49,0
			c0.11,1.11,1.2,8.09-4.54,18.46"/>
		<line class="st2" x1="61.82" y1="5.23" x2="65.77" y2="22.91"/>
		<path class="st3" d="M67.75,21.77c-2.7-5.29-4.08-10.94-4.25-16.55c0.39,0-1.68,0-1.68,0l-0.46,0c-1.09,0-0.35,0-1.49,0
			c-0.11,1.11-1.2,8.09,4.55,18.46"/>
	</g>
	<path class="st4" d="M52.74,25.45c-3.26,4.97-7.49,8.98-12.29,11.93c-0.19-0.33,0.84,1.45,0.84,1.45l0.23,0.4
		c0.55,0.94,0.17,0.3,0.75,1.29c1.02-0.46,7.65-3.01,13.81-13.14"/>
	<linearGradient id="SVGID_3_" gradientUnits="userSpaceOnUse" x1="69.2705" y1="25.8394" x2="80.4693" y2="40.5468">
		<stop  offset="0" style="stop-color:#2DAF4A"/>
		<stop  offset="1" style="stop-color:#205A2D"/>
	</linearGradient>
	<path class="st5" d="M69.9,25.45c3.26,4.97,7.49,8.98,12.29,11.93c0.19-0.33-0.84,1.45-0.84,1.45l-0.23,0.4
		c-0.55,0.94-0.17,0.3-0.74,1.29c-1.02-0.46-7.65-3.01-13.81-13.14"/>
	<path class="st6" d="M63.51,36.46c5.96,0.32,11.57,1.96,16.54,4.62c-0.19,0.33,0.84-1.45,0.84-1.45l0.23-0.4
		c0.55-0.94,0.17-0.3,0.75-1.29c-0.91-0.65-6.45-5.08-18.36-5.32"/>
</g>
</svg>
