<svg id="svg" xmlns="http://www.w3.org/2000/svg" xmlns:xlink="http://www.w3.org/1999/xlink" width="400" height="151.39146567717998" viewBox="0  0, 400,151.39146567717998"><g id="svgg"><path id="path0" d="M148.375 5.672C148.169 5.755 148 5.938 148 6.078 148 6.286 147.752 6.333 146.651 6.333 145.454 6.333 145.293 6.37 145.217 6.658 145.151 6.911 144.961 6.994 144.358 7.033 143.861 7.065 143.598 7.156 143.623 7.286 143.648 7.413 143.555 7.448 143.373 7.379 143.131 7.289 143.117 7.312 143.29 7.525 143.469 7.746 143.395 7.783 142.734 7.808 142.019 7.835 141.39 8.167 141.619 8.397 141.676 8.454 141.485 8.5 141.194 8.5 140.743 8.5 140.667 8.56 140.667 8.917 140.667 9.299 140.606 9.333 139.917 9.333 139.278 9.333 139.167 9.383 139.167 9.667 139.167 9.882 139.056 10 138.853 10 138.68 10 138.415 10.188 138.265 10.417 138.115 10.646 137.848 10.833 137.672 10.833 137.496 10.833 137.253 10.974 137.133 11.147 137.012 11.319 136.764 11.489 136.582 11.524 136.399 11.559 136.241 11.681 136.229 11.794 136.218 11.907 136.199 12.066 136.188 12.147 136.176 12.228 136.017 12.334 135.833 12.382 135.65 12.43 135.5 12.58 135.5 12.716 135.5 12.852 135.313 13.011 135.084 13.068 134.856 13.126 134.687 13.262 134.709 13.372 134.732 13.481 134.581 13.648 134.375 13.742 134.155 13.842 134 14.061 134 14.271 134 14.508 133.903 14.622 133.712 14.606 133.554 14.594 133.423 14.671 133.421 14.778 133.418 14.885 133.36 15.028 133.292 15.097 133.223 15.166 133.167 15.397 133.167 15.611 133.167 15.884 133.071 16 132.845 16 132.638 16 132.504 16.134 132.47 16.375 132.441 16.581 132.304 16.75 132.167 16.75 132.008 16.75 131.859 17.01 131.76 17.458 131.646 17.973 131.52 18.167 131.301 18.167 131.055 18.167 131 18.304 131 18.917 131 19.54 130.947 19.667 130.686 19.667 130.366 19.667 130.173 20.087 130.169 20.792 130.167 21.055 130.067 21.167 129.833 21.167 129.526 21.167 129.392 21.982 129.512 23.117 129.519 23.181 129.369 23.291 129.179 23.361 128.867 23.477 128.833 23.625 128.833 24.893 128.833 26.252 128.82 26.301 128.417 26.402L128.001 26.506 128.042 75.711 128.083 124.917 128.458 124.97C128.815 125.021 128.833 125.095 128.833 126.512 128.833 127.889 128.858 128 129.167 128 129.469 128 129.664 129.129 129.52 130.042 129.509 130.11 129.65 130.167 129.833 130.167 130.067 130.167 130.167 130.279 130.169 130.542 130.173 131.247 130.366 131.667 130.686 131.667 130.942 131.667 131 131.792 131 132.349 131 132.877 131.071 133.05 131.314 133.113 131.53 133.17 131.662 133.405 131.736 133.865 131.811 134.337 131.939 134.559 132.171 134.62 132.352 134.667 132.5 134.847 132.5 135.019 132.5 135.211 132.617 135.333 132.801 135.333 133.02 135.333 133.146 135.527 133.26 136.042 133.359 136.49 133.508 136.75 133.667 136.75 133.804 136.75 133.941 136.919 133.97 137.125 134.003 137.36 134.139 137.5 134.333 137.5 134.528 137.5 134.663 137.64 134.697 137.875 134.731 138.116 134.884 138.269 135.125 138.303 135.353 138.336 135.5 138.472 135.5 138.652 135.5 138.814 135.692 139.034 135.926 139.141 136.16 139.247 136.307 139.407 136.253 139.496 136.198 139.584 136.341 139.704 136.571 139.762 136.8 139.819 137.028 139.993 137.077 140.148 137.126 140.302 137.335 140.442 137.542 140.457 137.748 140.472 138.069 140.675 138.256 140.909 138.443 141.142 138.716 141.333 138.862 141.333 139.008 141.333 139.167 141.483 139.215 141.667 139.284 141.932 139.442 142 139.984 142 140.601 142 140.667 142.04 140.667 142.417 140.667 142.77 140.744 142.833 141.177 142.833 141.457 142.833 141.652 142.89 141.611 142.958 141.526 143.098 141.831 143.398 142.111 143.452 142.211 143.471 142.583 143.516 142.938 143.553 143.347 143.595 143.583 143.704 143.583 143.851 143.583 144.195 143.845 144.328 144.53 144.331 144.997 144.333 145.17 144.414 145.25 144.667 145.344 144.963 145.502 145 146.678 145 147.728 145 148 145.05 148 145.244 148 145.832 148.084 145.833 200.06 145.833 254.333 145.833 251.785 145.865 252.027 145.179 252.058 145.09 252.675 145.003 253.397 144.984 254.519 144.955 254.723 144.905 254.792 144.642 254.848 144.424 255.038 144.327 255.436 144.313 256.373 144.278 256.417 144.261 256.417 143.93 256.418 143.735 256.547 143.596 256.751 143.574 256.934 143.553 257.327 143.513 257.625 143.483 257.923 143.453 258.167 143.341 258.167 143.232 258.167 143.009 258.54 142.833 259.014 142.833 259.244 142.833 259.333 142.716 259.333 142.417 259.333 142.034 259.394 142 260.083 142 260.722 142 260.833 141.951 260.833 141.667 260.833 141.463 260.944 141.333 261.119 141.333 261.276 141.333 261.557 141.146 261.744 140.918 261.931 140.689 262.271 140.473 262.5 140.437 262.729 140.401 262.899 140.29 262.877 140.191 262.838 140.014 263.253 139.716 263.583 139.683 263.675 139.674 263.75 139.593 263.75 139.503 263.75 139.413 263.919 139.222 264.125 139.077 264.331 138.933 264.5 138.706 264.5 138.574 264.5 138.442 264.652 138.333 264.837 138.333 265.044 138.333 265.236 138.172 265.333 137.917 265.42 137.687 265.601 137.5 265.734 137.5 265.868 137.5 266.003 137.331 266.034 137.125 266.066 136.919 266.189 136.771 266.308 136.796 266.427 136.821 266.477 136.765 266.419 136.671 266.361 136.577 266.39 136.5 266.483 136.5 266.576 136.5 266.701 136.237 266.761 135.917 266.84 135.495 266.957 135.333 267.185 135.333 267.389 135.333 267.5 135.216 267.5 135 267.5 134.817 267.6 134.667 267.723 134.667 267.977 134.667 268.333 133.98 268.333 133.492 268.333 133.278 268.447 133.167 268.667 133.167 268.95 133.167 269 133.056 269 132.428 269 131.789 269.051 131.683 269.375 131.637 269.687 131.592 269.759 131.464 269.801 130.875 269.834 130.421 269.932 130.167 270.075 130.167 270.38 130.167 270.5 129.787 270.5 128.82 270.5 128.111 270.545 128 270.833 128 271.142 128 271.167 127.889 271.167 126.518 271.167 125.077 271.178 125.033 271.583 124.932L271.999 124.827V75.667 26.506L271.583 26.402C271.18 26.301 271.167 26.252 271.167 24.883 271.167 23.609 271.134 23.46 270.833 23.382 270.544 23.306 270.5 23.154 270.5 22.231 270.5 21.288 270.463 21.167 270.176 21.167 269.915 21.167 269.843 21.031 269.801 20.458 269.759 19.869 269.687 19.741 269.375 19.697 269.051 19.651 269 19.544 269 18.905 269 18.304 268.944 18.167 268.699 18.167 268.48 18.167 268.354 17.973 268.24 17.458 268.141 17.01 267.992 16.75 267.833 16.75 267.696 16.75 267.559 16.581 267.53 16.375 267.496 16.134 267.362 16 267.155 16 266.947 16 266.833 15.885 266.833 15.675 266.833 15.148 266.462 14.479 266.22 14.572 266.087 14.623 266 14.535 266 14.347 266 14.177 265.813 13.916 265.584 13.766 265.356 13.616 265.187 13.403 265.209 13.292 265.232 13.182 265.081 13.066 264.875 13.034 264.635 12.997 264.5 12.861 264.5 12.655 264.5 12.445 264.385 12.333 264.17 12.333 263.955 12.333 263.802 12.185 263.733 11.909 263.675 11.675 263.588 11.523 263.541 11.57 263.397 11.714 262.818 11.327 262.923 11.156 262.978 11.068 262.787 10.949 262.5 10.892 262.212 10.834 261.861 10.61 261.72 10.394 261.578 10.177 261.329 10 261.167 10 261.005 10 260.833 9.85 260.785 9.667 260.716 9.403 260.558 9.333 260.027 9.333 259.459 9.333 259.348 9.276 259.303 8.958 259.269 8.718 259.116 8.564 258.876 8.53 258.671 8.501 258.406 8.339 258.287 8.169 258.142 7.961 257.802 7.838 257.244 7.791 256.564 7.734 256.417 7.665 256.417 7.402 256.417 7.14 256.276 7.074 255.625 7.033 255.1 6.999 254.833 6.907 254.833 6.759 254.833 6.432 254.444 6.333 253.153 6.333 252.231 6.333 252 6.282 252 6.079 252 5.939 251.808 5.752 251.572 5.663 251.015 5.451 148.903 5.46 148.375 5.672M247.801 12.051C248.103 12.216 248.741 12.395 249.217 12.449 249.694 12.503 250.299 12.656 250.563 12.789 250.827 12.922 251.408 13.139 251.855 13.272 252.301 13.404 252.667 13.585 252.667 13.673 252.667 13.761 252.798 13.834 252.958 13.836 253.119 13.837 253.438 13.946 253.667 14.077 253.896 14.208 254.402 14.478 254.792 14.676 255.181 14.875 255.5 15.103 255.5 15.185 255.5 15.267 255.601 15.333 255.724 15.333 255.847 15.333 256.166 15.521 256.432 15.75 256.699 15.979 256.962 16.166 257.017 16.166 257.072 16.167 257.503 16.523 257.975 16.958 258.447 17.394 258.927 17.832 259.042 17.932 259.901 18.686 261.453 20.594 262.098 21.689 262.198 21.859 262.395 22.129 262.537 22.291 262.678 22.452 262.851 22.771 262.92 23 262.989 23.229 263.186 23.596 263.356 23.814 263.527 24.033 263.667 24.324 263.667 24.461 263.667 24.598 263.81 24.945 263.986 25.23 264.162 25.516 264.36 26.05 264.428 26.417 264.495 26.783 264.646 27.233 264.764 27.417 264.881 27.6 265.063 28.384 265.168 29.16 265.273 29.935 265.447 30.722 265.554 30.91 265.853 31.429 265.836 120.1 265.537 120.622 265.42 120.827 265.248 121.603 265.155 122.347 265.062 123.092 264.882 123.862 264.755 124.059 264.628 124.256 264.475 124.717 264.413 125.083 264.352 125.45 264.159 125.953 263.984 126.202 263.81 126.45 263.667 126.806 263.667 126.993 263.667 127.18 263.517 127.483 263.333 127.667 263.15 127.85 263 128.107 263 128.237 263 128.368 262.823 128.686 262.606 128.946 262.39 129.205 262.159 129.585 262.095 129.792 262.03 129.998 261.924 130.167 261.858 130.167 261.792 130.167 261.6 130.402 261.43 130.69 261.034 131.36 260.859 131.559 259.25 133.169 257.303 135.118 257.251 135.167 257.102 135.167 257.026 135.167 256.742 135.354 256.47 135.583 256.197 135.813 255.886 136 255.777 136 255.669 136 255.492 136.141 255.385 136.312 255.278 136.484 254.988 136.675 254.742 136.737 254.495 136.799 254.184 136.958 254.052 137.091 253.919 137.224 253.609 137.381 253.363 137.439 253.118 137.497 252.791 137.654 252.637 137.787 252.483 137.921 252.034 138.103 251.639 138.191 251.245 138.28 250.808 138.452 250.669 138.573 250.53 138.694 249.967 138.848 249.417 138.914 248.867 138.98 248.192 139.158 247.917 139.309 247.15 139.73 152.857 139.732 152.083 139.311 151.808 139.162 151.172 138.983 150.668 138.915 150.165 138.847 149.491 138.651 149.171 138.479 148.85 138.307 148.429 138.167 148.233 138.167 148.038 138.167 147.688 138.017 147.455 137.833 147.221 137.65 146.921 137.5 146.788 137.5 146.654 137.5 146.36 137.355 146.134 137.177 145.908 136.999 145.518 136.802 145.267 136.739 145.016 136.676 144.722 136.484 144.615 136.312 144.508 136.141 144.336 136 144.233 136 144.058 136 143.254 135.427 142.361 134.665 142.147 134.483 141.903 134.333 141.819 134.333 141.735 134.333 141.667 134.226 141.667 134.095 141.667 133.963 141.535 133.812 141.375 133.759 141.215 133.706 140.858 133.399 140.583 133.078 140.308 132.756 139.799 132.186 139.452 131.81 139.105 131.434 138.71 130.911 138.573 130.647 138.437 130.383 138.257 130.167 138.174 130.167 138.09 130.167 137.971 129.998 137.909 129.792 137.846 129.585 137.659 129.267 137.493 129.083 137.327 128.9 137.142 128.549 137.081 128.304 137.02 128.058 136.871 127.82 136.751 127.773 136.63 127.727 136.479 127.44 136.414 127.136 136.349 126.832 136.196 126.47 136.074 126.331 135.952 126.192 135.772 125.718 135.673 125.278 135.574 124.839 135.39 124.315 135.263 124.114 135.136 123.914 134.978 123.263 134.913 122.667 134.847 122.071 134.672 121.283 134.522 120.917 134.104 119.891 134.104 31.442 134.522 30.417 134.672 30.05 134.85 29.263 134.918 28.669 134.986 28.074 135.183 27.325 135.354 27.004 135.526 26.684 135.667 26.293 135.667 26.135 135.667 25.755 136.017 25 136.193 25 136.27 25 136.333 24.823 136.333 24.606 136.333 24.389 136.473 24.033 136.644 23.814 136.814 23.596 137.011 23.229 137.08 23 137.149 22.771 137.322 22.452 137.463 22.291 137.605 22.129 137.802 21.859 137.902 21.689 138.428 20.796 139.052 19.983 139.895 19.095 140.411 18.551 140.833 18.045 140.833 17.97 140.833 17.895 140.906 17.833 140.995 17.833 141.083 17.833 141.543 17.458 142.016 17 142.489 16.542 142.923 16.167 142.98 16.166 143.037 16.166 143.301 15.979 143.568 15.75 143.834 15.521 144.141 15.333 144.25 15.333 144.359 15.333 144.584 15.183 144.75 15 144.916 14.817 145.142 14.667 145.253 14.667 145.364 14.667 145.647 14.516 145.881 14.332 146.115 14.148 146.536 13.951 146.816 13.895 147.096 13.839 147.41 13.692 147.513 13.568 147.616 13.444 147.972 13.291 148.305 13.229 148.638 13.166 149.136 12.977 149.413 12.808 149.69 12.639 150.179 12.498 150.5 12.493 150.821 12.489 151.383 12.37 151.75 12.23 153.058 11.729 154.956 11.709 200.833 11.73 245.228 11.749 247.274 11.763 247.801 12.051" stroke="none" fill="#fb24bb" fill-rule="evenodd"/><path id="path1" d="M156.063 40.411C156.011 40.545 156.126 40.875 156.318 41.145 156.51 41.414 156.667 41.744 156.667 41.878 156.667 42.012 156.806 42.301 156.976 42.519 157.146 42.738 157.377 43.198 157.489 43.542 157.601 43.885 157.747 44.167 157.813 44.167 157.879 44.167 158.033 44.448 158.154 44.792 158.276 45.135 158.442 45.501 158.524 45.603 158.605 45.706 158.901 46.269 159.18 46.853 159.46 47.438 159.773 48.067 159.875 48.25 159.978 48.433 160.165 48.808 160.291 49.083 160.418 49.358 160.592 49.715 160.677 49.875 160.963 50.409 161.129 50.746 161.314 51.167 161.415 51.396 161.573 51.696 161.666 51.833 161.758 51.971 161.908 52.271 162 52.5 162.091 52.729 162.242 53.029 162.335 53.167 162.428 53.304 162.616 53.679 162.754 54 162.892 54.321 163.067 54.696 163.143 54.833 163.503 55.483 163.747 55.958 163.958 56.417 164.084 56.692 164.255 57.029 164.336 57.167 164.418 57.304 164.757 57.979 165.09 58.667 165.423 59.354 165.759 60.029 165.835 60.167 169.734 67.153 171.994 72.633 171.315 73.454 171.18 73.617 170.942 74.012 170.786 74.333 170.63 74.654 170.439 75.029 170.361 75.167 169.881 76.019 169.631 76.506 169.314 77.208 169.117 77.644 168.891 78 168.811 78 168.732 78 168.667 78.14 168.667 78.31 168.667 78.481 168.479 78.896 168.25 79.234 168.021 79.572 167.833 79.927 167.833 80.023 167.833 80.12 167.695 80.398 167.526 80.641 167.356 80.884 166.941 81.646 166.602 82.333 166.263 83.021 165.621 84.258 165.175 85.083 164.729 85.908 163.9 87.483 163.332 88.583 162.764 89.683 161.936 91.258 161.492 92.083 161.048 92.908 160.606 93.771 160.509 94 160.413 94.229 160.258 94.529 160.165 94.667 160.072 94.804 159.848 95.217 159.667 95.583 159.486 95.95 159.265 96.362 159.177 96.5 159.089 96.638 158.906 96.975 158.771 97.25 158.244 98.318 156.829 101.035 156.471 101.667 156.393 101.804 156.165 102.254 155.963 102.667 155.762 103.079 155.574 103.46 155.545 103.513 155.281 103.99 164.302 104.261 165.878 103.824 166.462 103.661 168.5 100.211 168.5 99.383 168.5 99.287 168.608 99.118 168.739 99.009 168.871 98.9 169.031 98.572 169.094 98.28 169.158 97.989 169.345 97.578 169.51 97.367 169.675 97.157 169.858 96.768 169.916 96.504 169.974 96.239 170.129 95.934 170.261 95.824 170.392 95.715 170.5 95.547 170.5 95.451 170.5 95.273 171.393 93.29 171.679 92.833 171.765 92.696 171.875 92.471 171.924 92.333 171.973 92.196 172.197 91.727 172.423 91.292 172.649 90.856 172.833 90.397 172.833 90.272 172.833 90.147 172.983 89.854 173.167 89.621 173.35 89.388 173.5 89.104 173.5 88.99 173.5 88.876 173.697 88.363 173.938 87.85 174.18 87.337 174.567 86.504 174.799 86 175.031 85.496 175.284 84.971 175.362 84.833 175.439 84.696 175.547 84.471 175.603 84.333 175.725 84.029 176.39 82.55 176.914 81.417 177.126 80.958 177.382 80.372 177.484 80.114 177.766 79.401 178.992 79.963 179.004 80.81 179.006 80.96 179.154 81.271 179.333 81.5 179.513 81.729 179.661 82.01 179.663 82.125 179.666 82.302 180.205 83.449 180.7 84.333 180.777 84.471 180.955 84.846 181.095 85.167 181.552 86.21 182.774 88.752 183.159 89.458 183.59 90.25 184.333 91.936 184.333 92.123 184.333 92.238 184.403 92.333 184.487 92.333 184.572 92.333 184.731 92.615 184.841 92.958 184.952 93.302 185.133 93.696 185.244 93.833 185.354 93.971 185.545 94.346 185.667 94.667 185.789 94.987 185.988 95.368 186.111 95.513 186.233 95.658 186.333 95.872 186.333 95.989 186.333 96.17 186.874 97.313 187.363 98.167 187.442 98.304 187.62 98.679 187.757 99 187.895 99.321 188.083 99.696 188.176 99.833 188.268 99.971 188.389 100.223 188.446 100.395 188.828 101.548 190.143 103.751 190.511 103.854 191.018 103.995 201.043 104.037 201.403 103.899 201.898 103.709 201.826 103.514 199.991 100.083 199.272 98.738 197.26 94.831 196.7 93.692 196.58 93.449 196.413 93.138 196.328 93 196.242 92.862 195.868 92.15 195.495 91.417 195.123 90.683 194.3 89.108 193.667 87.917 193.033 86.725 192.202 85.112 191.819 84.333 191.436 83.554 191.058 82.892 190.978 82.861 190.898 82.831 190.833 82.718 190.832 82.611 190.832 82.504 190.71 82.192 190.562 81.917 190.16 81.173 188.127 77.278 187.342 75.75 186.966 75.017 186.59 74.304 186.506 74.167 186.423 74.029 186.247 73.692 186.117 73.417 185.986 73.142 185.757 72.692 185.607 72.417 185.242 71.745 185.263 70.712 185.655 70 185.832 69.679 186.057 69.229 186.155 69 186.253 68.771 186.408 68.471 186.5 68.333 186.592 68.196 186.742 67.896 186.834 67.667 186.925 67.438 187.076 67.137 187.169 67 187.262 66.862 187.491 66.414 187.679 66.003 187.867 65.593 188.08 65.218 188.153 65.17 188.226 65.122 188.375 64.808 188.484 64.472 188.594 64.135 188.792 63.77 188.925 63.66 189.058 63.549 189.167 63.349 189.167 63.214 189.167 63.079 189.312 62.764 189.489 62.516 189.666 62.267 189.86 61.867 189.921 61.627 189.981 61.387 190.173 61.062 190.348 60.903 190.523 60.745 190.667 60.487 190.667 60.33 190.667 60.173 190.806 59.866 190.977 59.647 191.148 59.429 191.344 59.063 191.413 58.833 191.483 58.604 191.63 58.304 191.741 58.167 191.852 58.029 192.566 56.679 193.329 55.167 194.092 53.654 195.078 51.742 195.52 50.917 195.962 50.092 196.401 49.229 196.495 49 196.589 48.771 196.74 48.471 196.829 48.333 196.981 48.099 198.991 44.188 199.467 43.201 199.586 42.953 199.755 42.637 199.842 42.5 200.287 41.797 200.824 40.424 200.701 40.301 200.625 40.225 198.242 40.182 195.406 40.206L190.25 40.25 189.445 41.917C189.003 42.833 188.459 43.94 188.237 44.375 188.015 44.811 187.833 45.249 187.833 45.349 187.833 45.45 187.694 45.731 187.524 45.974 187.354 46.218 187.162 46.636 187.097 46.904 187.032 47.171 186.834 47.575 186.656 47.801 186.479 48.027 186.333 48.31 186.333 48.43 186.333 48.551 186.157 48.98 185.942 49.385 185.727 49.789 185.504 50.262 185.447 50.435 185.39 50.608 185.273 50.862 185.188 51 184.845 51.555 184.167 53.044 184.167 53.243 184.167 53.36 184.028 53.634 183.859 53.853 183.689 54.071 183.497 54.47 183.431 54.74 183.365 55.009 183.175 55.422 183.01 55.657 182.844 55.891 182.656 56.322 182.593 56.613 182.53 56.905 182.373 57.231 182.244 57.339 182.115 57.446 181.961 57.786 181.904 58.094 181.846 58.402 181.694 58.742 181.566 58.848 181.438 58.954 181.333 59.129 181.333 59.238 181.333 59.346 181.141 59.843 180.906 60.342 179.897 62.484 179.7 62.942 179.598 63.382 179.368 64.377 178.296 64.191 178.024 63.109 177.923 62.708 177.726 62.285 177.587 62.17 177.447 62.054 177.333 61.849 177.333 61.713 177.333 61.578 177.042 60.856 176.687 60.109 176.331 59.361 175.805 58.225 175.517 57.583 175.23 56.942 174.846 56.139 174.664 55.8 174.482 55.461 174.333 55.078 174.333 54.948 174.333 54.818 174.195 54.533 174.025 54.314 173.856 54.096 173.664 53.698 173.598 53.43 173.533 53.162 173.334 52.758 173.156 52.532 172.979 52.306 172.833 52.023 172.833 51.903 172.833 51.783 172.657 51.353 172.442 50.949 172.227 50.544 172.004 50.071 171.947 49.898 171.89 49.725 171.771 49.471 171.684 49.333 171.396 48.882 169.833 45.536 169.833 45.372 169.833 45.284 169.693 45.033 169.522 44.814 169.35 44.596 169.158 44.178 169.094 43.887 169.031 43.595 168.876 43.271 168.75 43.167 168.624 43.062 168.469 42.738 168.406 42.447 168.342 42.155 168.15 41.738 167.978 41.519 167.807 41.301 167.667 41.025 167.667 40.906 167.667 40.199 167.405 40.167 161.65 40.167 156.979 40.167 156.142 40.203 156.063 40.411M231.78 40.275C231.718 40.338 231.667 43.924 231.667 48.244 231.667 54.132 231.617 56.15 231.467 56.3 231.325 56.441 230.312 56.502 228.008 56.507 226.216 56.511 224.45 56.585 224.083 56.671 223.717 56.758 222.817 56.963 222.083 57.128 221.35 57.293 220.6 57.508 220.417 57.605 220.233 57.703 219.729 57.878 219.295 57.995 218.861 58.112 218.421 58.311 218.316 58.437 218.211 58.564 218.021 58.667 217.893 58.667 217.615 58.667 215.874 59.578 215.493 59.923 215.345 60.057 215.171 60.167 215.107 60.167 214.439 60.167 209.333 65.154 209.333 65.806 209.333 65.904 209.23 66.043 209.103 66.117 208.913 66.227 208.349 67.194 207.343 69.137 206.935 69.925 206.333 71.497 206.333 71.775 206.333 71.95 206.228 72.242 206.1 72.426 205.972 72.609 205.753 73.319 205.613 74.004 205.474 74.69 205.262 75.587 205.143 76 204.842 77.044 204.844 85.441 205.147 86.5 205.264 86.912 205.462 87.825 205.586 88.528 205.709 89.231 205.928 90.033 206.072 90.311 206.216 90.589 206.333 90.942 206.333 91.096 206.333 91.647 207.775 94.779 208.548 95.906 208.803 96.278 209.189 96.85 209.405 97.177 210.064 98.172 212.365 100.37 213.644 101.225 215.351 102.368 218.423 103.833 219.11 103.833 219.285 103.833 219.841 103.979 220.346 104.156 222.553 104.931 230.834 104.987 233.523 104.244 234.014 104.108 234.858 103.919 235.397 103.825 235.937 103.73 236.577 103.549 236.82 103.424 237.063 103.298 237.559 103.14 237.922 103.073 238.286 103.006 238.845 102.812 239.164 102.642 239.484 102.472 239.828 102.333 239.929 102.333 241.126 102.333 242.508 100.958 242.236 100.039 242.162 99.788 242.06 86.233 242.009 69.917L241.917 40.25 236.905 40.206C234.149 40.182 231.843 40.213 231.78 40.275M230.62 65.265C231.741 65.435 231.667 64.36 231.667 80.327 231.667 93.971 231.65 94.817 231.369 95.164 230.415 96.342 223.215 95.905 221.9 94.59 221.758 94.449 221.545 94.333 221.426 94.333 220.929 94.333 218.167 91.798 218.167 91.342 218.167 91.28 218.034 91.084 217.871 90.906 217.533 90.538 216.74 88.955 216.58 88.333 216.522 88.104 216.367 87.681 216.238 87.393 216.108 87.105 215.924 86.308 215.828 85.62 215.732 84.933 215.582 84.119 215.494 83.811 215.288 83.095 215.284 77.985 215.488 77.447 215.574 77.223 215.725 76.453 215.825 75.736 215.924 75.019 216.112 74.271 216.241 74.074 216.37 73.877 216.527 73.441 216.59 73.106 216.653 72.771 216.836 72.329 216.996 72.124 217.156 71.918 217.346 71.563 217.417 71.333 217.488 71.104 217.704 70.72 217.898 70.479 218.092 70.239 218.4 69.833 218.583 69.577 221.044 66.148 225.628 64.506 230.62 65.265" stroke="none" fill="#f9d9f1" fill-rule="evenodd"/><path id="path2" d="M154.417 12.436C153.867 12.56 152.854 12.711 152.167 12.771 151.479 12.831 150.654 13.01 150.333 13.168 150.012 13.326 149.45 13.509 149.083 13.575 148.717 13.641 148.304 13.788 148.167 13.901 148.029 14.015 147.598 14.208 147.208 14.33 146.819 14.453 146.5 14.605 146.5 14.668 146.5 14.731 146.219 14.907 145.875 15.059 145.132 15.387 144.39 15.822 143.984 16.167 143.822 16.304 143.448 16.604 143.153 16.833 141.527 18.094 140.616 18.994 139.63 20.312 139.261 20.804 138.838 21.331 138.688 21.484 138.539 21.636 138.285 22.02 138.125 22.338 137.965 22.656 137.571 23.392 137.25 23.972 136.929 24.553 136.667 25.163 136.667 25.327 136.667 25.491 136.558 25.716 136.426 25.826 136.293 25.936 136.102 26.451 136 26.971 135.898 27.491 135.709 28.142 135.581 28.417 135.04 29.579 135 32.843 134.999 75.61 134.998 118.624 135.038 121.895 135.588 123 135.702 123.229 135.883 123.842 135.99 124.362 136.097 124.882 136.293 125.398 136.426 125.508 136.558 125.618 136.67 125.867 136.675 126.062 136.679 126.257 136.941 126.867 137.257 127.417 137.574 127.967 137.964 128.677 138.124 128.995 138.285 129.313 138.529 129.702 138.667 129.859 138.804 130.017 139.067 130.347 139.25 130.593 139.63 131.103 140.551 132.181 141.167 132.837 141.528 133.222 143.058 134.486 144.083 135.248 145.395 136.223 148.367 137.708 149.417 137.914 149.692 137.967 150.142 138.116 150.417 138.243 152.256 139.095 151.547 139.083 200.083 139.082 248.648 139.08 247.765 139.095 249.583 138.24 249.858 138.11 250.472 137.923 250.947 137.824 251.423 137.725 251.901 137.536 252.01 137.405 252.118 137.274 252.33 137.163 252.479 137.159 252.628 137.154 253.2 136.893 253.75 136.579 254.3 136.264 255.031 135.853 255.375 135.666 255.719 135.48 256 135.253 256 135.163 256 135.073 256.083 135 256.185 135 256.586 135 259.714 132.104 260.292 131.198 260.449 130.951 260.71 130.652 260.872 130.532 261.034 130.412 261.167 130.21 261.167 130.082 261.167 129.954 261.271 129.79 261.399 129.717 261.526 129.643 261.754 129.321 261.905 129 262.487 127.759 262.99 126.859 263.158 126.756 263.254 126.696 263.333 126.501 263.333 126.323 263.333 126.145 263.481 125.724 263.661 125.388 263.841 125.052 264.039 124.434 264.102 124.014 264.164 123.594 264.315 123.098 264.436 122.912 264.949 122.126 264.999 117.918 264.999 75.667 264.999 33.297 264.951 29.27 264.43 28.448 264.303 28.247 264.146 27.746 264.082 27.333 264.017 26.921 263.823 26.349 263.649 26.064 263.475 25.778 263.333 25.429 263.333 25.289 263.333 25.039 262.692 23.732 262.086 22.748 261.407 21.645 260.907 20.908 260.729 20.75 260.626 20.658 260.476 20.458 260.396 20.305 260.082 19.706 258.012 17.682 256.76 16.75 256.514 16.567 256.179 16.304 256.017 16.167 255.628 15.837 255.016 15.491 253.5 14.744 252.813 14.405 252.137 14.061 252 13.979 251.69 13.796 251.66 13.784 250.333 13.339 249.737 13.139 248.678 12.909 247.978 12.827 247.279 12.746 246.154 12.564 245.478 12.423 243.741 12.061 156.024 12.073 154.417 12.436M167.167 39.837C167.776 40.013 168.667 41.191 168.667 41.821 168.667 41.986 168.812 42.306 168.99 42.532 169.167 42.758 169.365 43.162 169.428 43.43 169.492 43.698 169.674 44.067 169.833 44.25 169.993 44.433 170.175 44.802 170.238 45.07 170.302 45.338 170.499 45.742 170.677 45.968 170.855 46.194 171 46.558 171 46.778 171 46.997 171.105 47.217 171.233 47.267 171.361 47.316 171.55 47.688 171.652 48.095 171.754 48.501 171.909 48.833 171.996 48.833 172.082 48.833 172.248 49.152 172.363 49.542 172.478 49.931 172.707 50.395 172.87 50.573 173.033 50.751 173.167 51.06 173.167 51.261 173.167 51.462 173.281 51.721 173.42 51.836 173.56 51.952 173.756 52.374 173.857 52.773 173.957 53.173 174.1 53.5 174.174 53.5 174.247 53.5 174.4 53.781 174.513 54.124 174.627 54.467 174.895 55.079 175.11 55.482 175.324 55.886 175.5 56.347 175.5 56.507 175.5 56.667 175.608 56.839 175.741 56.89 175.873 56.941 176.033 57.268 176.096 57.616 176.159 57.965 176.351 58.384 176.522 58.548 176.693 58.712 176.833 59.016 176.833 59.224 176.833 59.432 177.021 59.856 177.25 60.167 177.479 60.477 177.667 60.872 177.667 61.044 177.667 61.216 177.777 61.468 177.912 61.603 178.047 61.738 178.239 62.151 178.339 62.521 178.473 63.017 178.587 63.169 178.774 63.097 178.913 63.044 179.088 63 179.162 63 179.236 63 179.344 62.747 179.402 62.438 179.46 62.129 179.655 61.705 179.837 61.496 180.018 61.287 180.167 60.906 180.167 60.651 180.167 60.388 180.301 60.091 180.475 59.968 180.644 59.848 180.834 59.476 180.896 59.142 180.958 58.807 181.117 58.443 181.25 58.333 181.383 58.223 181.539 57.878 181.598 57.565 181.656 57.253 181.832 56.829 181.987 56.624 182.143 56.418 182.362 55.931 182.475 55.542 182.588 55.152 182.743 54.833 182.82 54.833 182.897 54.833 183.043 54.504 183.145 54.102 183.246 53.7 183.442 53.327 183.581 53.274 183.72 53.221 183.833 53.028 183.833 52.846 183.833 52.45 184.171 51.667 184.342 51.667 184.408 51.667 184.513 51.4 184.574 51.074 184.635 50.748 184.831 50.336 185.009 50.157 185.188 49.979 185.333 49.66 185.333 49.449 185.333 49.238 185.521 48.811 185.75 48.5 185.979 48.189 186.167 47.793 186.167 47.619 186.167 47.445 186.317 47.112 186.5 46.879 186.683 46.646 186.833 46.325 186.833 46.167 186.833 46.008 186.974 45.699 187.145 45.481 187.316 45.262 187.508 44.847 187.571 44.559 187.634 44.271 187.831 43.903 188.009 43.741 188.188 43.58 188.333 43.247 188.333 43 188.333 42.753 188.476 42.423 188.65 42.265 188.824 42.107 189.014 41.739 189.071 41.447 189.129 41.156 189.393 40.654 189.659 40.333L190.142 39.75 195.265 39.699C201.025 39.642 201.333 39.686 201.333 40.572 201.333 40.865 201.196 41.252 201.027 41.432 200.859 41.613 200.673 41.951 200.615 42.183 200.557 42.415 200.357 42.781 200.171 42.995 199.985 43.209 199.833 43.518 199.833 43.682 199.833 43.846 199.771 44.019 199.695 44.066 199.619 44.113 199.202 44.866 198.769 45.739 198.335 46.611 197.91 47.369 197.824 47.423 197.737 47.476 197.667 47.655 197.667 47.821 197.667 47.986 197.527 48.301 197.356 48.519 197.186 48.738 196.989 49.104 196.92 49.333 196.851 49.563 196.662 49.9 196.499 50.083 196.336 50.267 196.152 50.654 196.091 50.944 196.03 51.235 195.881 51.51 195.761 51.556 195.641 51.602 195.491 51.846 195.428 52.098 195.364 52.351 195.167 52.742 194.99 52.968 194.812 53.194 194.667 53.515 194.667 53.683 194.667 53.85 194.527 54.121 194.357 54.285 194.186 54.449 193.993 54.808 193.927 55.083 193.86 55.358 193.662 55.718 193.486 55.881 193.311 56.045 193.167 56.364 193.167 56.588 193.167 56.817 193.019 57.089 192.833 57.205 192.65 57.32 192.5 57.577 192.5 57.777 192.5 57.977 192.313 58.364 192.083 58.636 191.854 58.909 191.667 59.286 191.667 59.476 191.667 59.665 191.525 59.955 191.353 60.119 191.18 60.282 190.987 60.66 190.923 60.957 190.859 61.255 190.711 61.555 190.594 61.624 190.477 61.693 190.287 62.037 190.173 62.387 190.06 62.737 189.861 63.064 189.733 63.113 189.605 63.162 189.5 63.367 189.5 63.569 189.5 63.77 189.313 64.189 189.083 64.5 188.854 64.811 188.667 65.189 188.667 65.34 188.667 65.491 188.517 65.751 188.333 65.917 188.15 66.083 188 66.342 188 66.493 188 66.645 187.813 67.023 187.583 67.333 187.354 67.644 187.167 68.029 187.167 68.189 187.167 68.349 187.085 68.531 186.986 68.592 186.887 68.653 186.668 69.024 186.5 69.417 186.332 69.809 186.113 70.18 186.014 70.241 185.687 70.443 185.797 71.975 186.167 72.372 186.35 72.569 186.5 72.835 186.5 72.963 186.5 73.092 186.65 73.388 186.833 73.621 187.017 73.854 187.167 74.174 187.167 74.331 187.167 74.489 187.354 74.82 187.583 75.068 187.813 75.315 188 75.689 188 75.899 188 76.11 188.15 76.417 188.333 76.583 188.517 76.749 188.667 77.009 188.667 77.16 188.667 77.311 188.854 77.689 189.083 78 189.313 78.311 189.5 78.689 189.5 78.84 189.5 78.991 189.643 79.245 189.818 79.403 189.993 79.562 190.186 79.886 190.245 80.124 190.305 80.362 190.499 80.742 190.677 80.968 190.855 81.194 191 81.488 191 81.621 191 81.755 191.15 82.055 191.333 82.288 191.517 82.521 191.667 82.849 191.667 83.016 191.667 83.183 191.811 83.455 191.986 83.619 192.162 83.782 192.36 84.142 192.427 84.417 192.493 84.692 192.686 85.051 192.857 85.215 193.027 85.379 193.167 85.645 193.167 85.807 193.167 85.969 193.354 86.356 193.583 86.667 193.813 86.977 194 87.336 194 87.464 194 87.593 194.15 87.888 194.333 88.121 194.517 88.354 194.667 88.637 194.667 88.75 194.667 88.863 194.806 89.134 194.977 89.353 195.148 89.571 195.346 89.938 195.417 90.167 195.488 90.396 195.686 90.762 195.856 90.981 196.027 91.199 196.167 91.507 196.167 91.663 196.167 91.82 196.317 92.084 196.5 92.25 196.683 92.416 196.833 92.675 196.833 92.827 196.833 92.978 197.021 93.356 197.25 93.667 197.479 93.977 197.667 94.336 197.667 94.464 197.667 94.593 197.817 94.888 198 95.121 198.183 95.354 198.333 95.637 198.333 95.75 198.333 95.863 198.473 96.134 198.644 96.353 198.814 96.571 199.012 96.938 199.083 97.167 199.154 97.396 199.352 97.762 199.523 97.981 199.694 98.199 199.833 98.515 199.833 98.683 199.833 98.85 199.977 99.121 200.153 99.285 200.329 99.449 200.527 99.8 200.594 100.066 200.66 100.331 200.854 100.687 201.024 100.857 201.194 101.028 201.333 101.302 201.333 101.468 201.333 101.633 201.521 102.023 201.75 102.333 202.23 102.984 202.283 103.668 201.897 104.256L201.628 104.667H196.136 190.644L190.077 104.233C189.764 103.995 189.319 103.4 189.087 102.91 188.856 102.42 188.591 101.973 188.5 101.916 188.408 101.86 188.333 101.641 188.333 101.429 188.333 101.218 188.183 100.853 187.999 100.619 187.814 100.385 187.616 99.956 187.558 99.666 187.5 99.376 187.359 99.102 187.245 99.058 187.131 99.015 186.946 98.651 186.833 98.25 186.721 97.849 186.535 97.485 186.419 97.441 186.303 97.396 186.158 97.087 186.095 96.754 186.033 96.421 185.836 96.002 185.657 95.824 185.479 95.646 185.333 95.324 185.333 95.109 185.333 94.894 185.188 94.586 185.009 94.425 184.831 94.264 184.636 93.907 184.576 93.632 184.515 93.358 184.324 92.99 184.15 92.816 183.976 92.642 183.833 92.322 183.833 92.104 183.833 91.886 183.725 91.617 183.592 91.507 183.459 91.397 183.262 91.031 183.154 90.695 183.046 90.359 182.861 89.971 182.742 89.833 182.623 89.696 182.472 89.358 182.406 89.083 182.34 88.808 182.147 88.449 181.977 88.285 181.806 88.121 181.667 87.802 181.667 87.575 181.667 87.349 181.517 87.035 181.334 86.879 181.151 86.722 180.953 86.337 180.895 86.024 180.836 85.711 180.648 85.315 180.477 85.144 180.306 84.973 180.164 84.702 180.161 84.542 180.159 84.381 179.971 83.95 179.746 83.583 179.52 83.217 179.335 82.816 179.334 82.693 179.334 82.57 179.183 82.279 179 82.045 178.817 81.812 178.667 81.487 178.667 81.323 178.667 80.964 178.237 80.5 177.905 80.5 177.769 80.5 177.666 80.662 177.666 80.875 177.665 81.081 177.48 81.55 177.254 81.917 177.029 82.283 176.841 82.743 176.839 82.938 176.836 83.133 176.721 83.386 176.584 83.499 176.447 83.613 176.247 84.016 176.14 84.395 176.033 84.773 175.852 85.161 175.738 85.257 175.625 85.352 175.449 85.737 175.348 86.112 175.247 86.488 175.06 86.881 174.933 86.987 174.806 87.092 174.654 87.431 174.596 87.739 174.539 88.048 174.39 88.384 174.266 88.487 174.142 88.59 173.994 88.904 173.938 89.184 173.882 89.464 173.686 89.885 173.501 90.119 173.317 90.353 173.166 90.666 173.166 90.814 173.165 90.962 172.98 91.383 172.754 91.75 172.529 92.117 172.341 92.538 172.339 92.686 172.336 92.834 172.193 93.134 172.022 93.353 171.85 93.571 171.658 93.987 171.595 94.278 171.531 94.568 171.381 94.843 171.261 94.889 171.141 94.936 170.994 95.232 170.934 95.549 170.875 95.865 170.678 96.295 170.496 96.504 170.315 96.713 170.167 97.057 170.167 97.269 170.167 97.481 170.027 97.788 169.857 97.952 169.686 98.116 169.494 98.469 169.43 98.737 169.365 99.005 169.167 99.408 168.99 99.634 168.812 99.86 168.667 100.175 168.667 100.333 168.667 100.492 168.526 100.801 168.355 101.019 168.184 101.238 167.989 101.665 167.923 101.97 167.856 102.274 167.704 102.56 167.584 102.606 167.464 102.652 167.32 102.934 167.264 103.233 167.19 103.628 166.976 103.899 166.483 104.222L165.803 104.667H160.841C156.073 104.667 155.861 104.653 155.439 104.321 154.956 103.941 154.834 103.114 155.226 102.883 155.351 102.81 155.546 102.463 155.66 102.113 155.774 101.763 155.972 101.436 156.1 101.387 156.228 101.338 156.333 101.133 156.333 100.931 156.333 100.73 156.521 100.311 156.75 1e2 156.979 99.689 157.167 99.311 157.167 99.16 157.167 99.009 157.317 98.749 157.5 98.583 157.683 98.417 157.833 98.153 157.833 97.997 157.833 97.84 157.972 97.533 158.142 97.314 158.312 97.096 158.541 96.642 158.65 96.306 158.76 95.971 158.958 95.654 159.091 95.603 159.224 95.552 159.333 95.332 159.333 95.114 159.333 94.897 159.472 94.593 159.641 94.44 159.81 94.287 160.036 93.87 160.143 93.515 160.249 93.159 160.448 92.825 160.585 92.772 160.722 92.72 160.833 92.506 160.834 92.297 160.834 92.088 161.021 91.699 161.25 91.432 161.479 91.166 161.667 90.814 161.667 90.651 161.667 90.487 161.748 90.303 161.847 90.241 161.946 90.18 162.165 89.809 162.333 89.417 162.501 89.024 162.72 88.653 162.82 88.592 162.919 88.531 163 88.345 163 88.179 163 88.014 163.139 87.699 163.309 87.481 163.479 87.262 163.708 86.809 163.817 86.473 163.927 86.137 164.114 85.825 164.234 85.779 164.354 85.733 164.498 85.466 164.554 85.186 164.61 84.906 164.809 84.525 164.995 84.339 165.181 84.152 165.333 83.862 165.333 83.692 165.333 83.523 165.476 83.256 165.65 83.098 165.824 82.941 166.015 82.556 166.074 82.244 166.132 81.931 166.279 81.617 166.4 81.546 166.521 81.475 166.713 81.13 166.827 80.78 166.94 80.43 167.139 80.103 167.267 80.054 167.395 80.005 167.5 79.785 167.5 79.566 167.5 79.346 167.652 79.014 167.839 78.828 168.025 78.642 168.221 78.271 168.274 78.003 168.328 77.736 168.513 77.389 168.686 77.233 168.859 77.076 169 76.825 169 76.673 169 76.522 169.188 76.144 169.417 75.833 169.646 75.523 169.833 75.133 169.833 74.968 169.833 74.802 169.902 74.667 169.986 74.667 170.07 74.667 170.266 74.334 170.421 73.927 170.577 73.521 170.808 73.148 170.935 73.099 171.259 72.975 171.252 71.522 170.927 71.398 170.795 71.347 170.64 71.09 170.582 70.827 170.524 70.564 170.344 70.177 170.181 69.966 170.018 69.756 169.833 69.375 169.771 69.121 169.709 68.866 169.51 68.51 169.329 68.329 169.148 68.148 169 67.824 169 67.609 169 67.394 168.854 67.086 168.676 66.925 168.498 66.764 168.303 66.407 168.242 66.132 168.182 65.858 167.99 65.49 167.816 65.316 167.642 65.142 167.5 64.824 167.5 64.609 167.5 64.394 167.351 64.084 167.17 63.92 166.988 63.755 166.794 63.374 166.737 63.072 166.68 62.77 166.533 62.484 166.409 62.437 166.286 62.39 166.136 62.089 166.076 61.77 166.016 61.45 165.824 61.059 165.65 60.902 165.476 60.744 165.333 60.438 165.333 60.223 165.333 60.007 165.184 59.702 165.001 59.545 164.818 59.389 164.623 59.019 164.568 58.724 164.512 58.43 164.324 58.059 164.15 57.902 163.976 57.744 163.833 57.491 163.833 57.34 163.833 57.189 163.646 56.811 163.417 56.5 163.188 56.189 163 55.8 163 55.634 163 55.469 162.85 55.183 162.667 55 162.483 54.817 162.333 54.527 162.333 54.356 162.333 54.185 162.188 53.86 162.01 53.634 161.833 53.408 161.634 53.013 161.57 52.754 161.505 52.496 161.313 52.146 161.143 51.976 160.972 51.806 160.833 51.477 160.833 51.245 160.833 51.013 160.722 50.78 160.585 50.728 160.448 50.675 160.244 50.323 160.131 49.945 160.017 49.567 159.792 49.125 159.629 48.962 159.466 48.8 159.333 48.477 159.333 48.245 159.333 48.013 159.224 47.781 159.091 47.73 158.958 47.679 158.761 47.363 158.654 47.027 158.546 46.691 158.361 46.304 158.242 46.167 158.123 46.029 157.972 45.692 157.906 45.417 157.84 45.142 157.647 44.782 157.477 44.619 157.306 44.455 157.167 44.188 157.167 44.026 157.167 43.864 156.979 43.477 156.75 43.167 156.521 42.856 156.333 42.466 156.333 42.301 156.333 42.135 156.183 41.85 156 41.667 155.388 41.054 155.588 39.928 156.333 39.789 157.189 39.631 166.595 39.672 167.167 39.837M242.319 40.083C242.643 40.412 242.648 40.827 242.683 70.997L242.718 101.577 242.068 101.947C241.153 102.466 240.685 102.667 240.39 102.667 240.25 102.667 239.945 102.817 239.712 103 239.479 103.183 239.091 103.333 238.85 103.333 238.609 103.333 238.123 103.488 237.771 103.677 237.419 103.865 236.745 104.063 236.274 104.116 235.802 104.168 235.297 104.315 235.152 104.441 234.996 104.576 234.146 104.74 233.089 104.84 232.1 104.934 231.132 105.101 230.937 105.212 230.323 105.562 224.399 105.591 223.226 105.25 222.697 105.096 221.676 104.911 220.959 104.839 220.147 104.757 219.542 104.605 219.356 104.437 219.192 104.288 218.868 104.167 218.637 104.167 218.099 104.167 217.167 103.844 217.167 103.658 217.167 103.579 216.885 103.465 216.542 103.404 216.198 103.342 215.767 103.16 215.583 102.999 215.4 102.837 215.063 102.65 214.833 102.582 214.604 102.514 214.282 102.318 214.119 102.146 213.955 101.974 213.723 101.833 213.603 101.833 213.25 101.833 209.167 98.047 209.167 97.72 209.167 97.632 208.979 97.397 208.75 97.198 208.521 96.999 208.333 96.725 208.333 96.591 208.333 96.456 208.193 96.212 208.021 96.048 207.849 95.884 207.651 95.563 207.581 95.333 207.511 95.104 207.314 94.738 207.144 94.519 206.973 94.301 206.833 94.009 206.833 93.872 206.833 93.735 206.691 93.389 206.518 93.103 206.345 92.817 206.149 92.321 206.083 92 206.017 91.679 205.866 91.304 205.748 91.167 205.63 91.029 205.455 90.404 205.359 89.778 205.263 89.151 205.094 88.53 204.984 88.397 204.87 88.26 204.731 87.281 204.662 86.12 204.595 85 204.442 83.391 204.322 82.546 204.132 81.202 204.139 80.772 204.385 79.127 204.54 78.092 204.667 76.72 204.667 76.078 204.667 75.26 204.759 74.738 204.977 74.331 205.147 74.011 205.339 73.324 205.404 72.803 205.468 72.283 205.623 71.772 205.748 71.669 205.872 71.565 206.024 71.187 206.084 70.829 206.145 70.47 206.338 69.994 206.514 69.77 206.69 69.547 206.833 69.207 206.833 69.015 206.833 68.824 206.986 68.514 207.172 68.328 207.358 68.142 207.554 67.771 207.608 67.503 207.661 67.236 207.846 66.889 208.019 66.733 208.192 66.576 208.333 66.352 208.333 66.234 208.333 66.116 208.473 65.921 208.643 65.801 208.813 65.681 209 65.433 209.058 65.25 209.116 65.067 209.471 64.582 209.845 64.173 210.22 63.764 210.598 63.295 210.686 63.131 210.773 62.967 210.946 62.833 211.07 62.833 211.193 62.833 211.334 62.683 211.382 62.5 211.43 62.317 211.583 62.167 211.723 62.167 211.863 62.167 212.025 62.017 212.083 61.833 212.142 61.65 212.253 61.5 212.33 61.5 212.408 61.5 212.647 61.351 212.861 61.168 213.808 60.361 214.563 59.833 214.773 59.833 214.898 59.833 215 59.757 215 59.664 215 59.571 215.281 59.365 215.625 59.206 215.969 59.047 216.325 58.832 216.417 58.728 216.508 58.625 216.802 58.489 217.07 58.426 217.338 58.364 217.742 58.167 217.968 57.99 218.194 57.812 218.563 57.667 218.788 57.667 219.013 57.667 219.379 57.524 219.601 57.349 219.834 57.166 220.425 56.983 221.002 56.916 221.551 56.853 222 56.743 222 56.672 222 56.297 225.255 55.955 229.25 55.912L231.25 55.89 231.293 48.085C231.322 42.879 231.396 40.209 231.514 40.067 231.957 39.533 241.792 39.548 242.319 40.083M225.757 65.614C225.577 65.664 225.277 65.805 225.09 65.927 224.903 66.05 224.412 66.202 224 66.267 223.588 66.331 223.071 66.522 222.853 66.692 222.634 66.861 222.364 67 222.253 67 222.142 67 221.918 67.148 221.754 67.329 221.59 67.51 221.314 67.703 221.14 67.759 220.784 67.871 219.167 69.434 219.167 69.665 219.167 69.747 219.032 69.912 218.867 70.032 218.702 70.152 218.467 70.494 218.346 70.792 218.225 71.09 218.066 71.333 217.993 71.333 217.919 71.333 217.77 71.615 217.661 71.958 217.552 72.302 217.371 72.658 217.259 72.75 217.146 72.842 217.004 73.235 216.942 73.623 216.881 74.012 216.663 74.649 216.46 75.04 215.878 76.154 215.903 85.144 216.491 86.411 216.702 86.867 216.915 87.542 216.964 87.911 217.014 88.281 217.146 88.658 217.259 88.75 217.371 88.842 217.55 89.192 217.657 89.528 217.763 89.865 217.959 90.23 218.092 90.34 218.225 90.451 218.333 90.623 218.333 90.723 218.333 91.206 221.356 94 221.879 94 222.012 94 222.304 94.143 222.527 94.319 222.749 94.494 223.341 94.713 223.841 94.806 224.341 94.899 224.975 95.092 225.25 95.236 226.022 95.64 229.097 95.603 230.037 95.178 230.429 95.001 230.881 94.816 231.042 94.767 231.316 94.682 231.333 93.854 231.333 80.441V66.205L230.875 65.896C230.414 65.585 226.614 65.375 225.757 65.614" stroke="none" fill="#2c041c" fill-rule="evenodd"/><path id="path3" d="M154 12.168C151.074 12.648 148.838 13.252 147.5 13.922 147.179 14.082 146.617 14.362 146.25 14.543 140.552 17.353 135.96 23.679 134.969 30.083 134.618 32.352 134.57 118.12 134.918 120.667 135.249 123.084 136.034 125.727 136.848 127.167 136.926 127.304 137.142 127.717 137.327 128.083 137.702 128.825 138.108 129.443 139.457 131.327 140.687 133.046 143.622 135.403 146.5 136.984 147.276 137.41 148.652 138 148.87 138 149.01 138 149.453 138.143 149.854 138.317 150.255 138.491 150.996 138.686 151.5 138.751 152.004 138.815 152.826 138.973 153.327 139.101 154.676 139.446 245.243 139.444 246.75 139.099 247.3 138.973 248.106 138.82 248.542 138.758 249.679 138.597 252.572 137.564 253.5 136.988 253.637 136.902 253.938 136.753 254.167 136.656 255.809 135.961 259.651 132.656 260.833 130.922 261.063 130.586 261.419 130.098 261.625 129.839 261.831 129.58 262 129.31 262 129.239 262 129.168 262.102 128.991 262.226 128.846 262.856 128.112 263.957 125.536 264.547 123.417 265.335 120.585 265.333 120.707 265.333 75.633 265.333 29.85 265.339 30.177 264.5 27.789 264.317 27.268 264.167 26.733 264.167 26.601 264.167 26.469 264.055 26.148 263.919 25.889 263.782 25.629 263.403 24.854 263.077 24.167 262.401 22.746 261.381 21.024 261.003 20.667 260.954 20.621 260.719 20.321 260.48 20 259.69 18.941 257.375 16.785 256.233 16.045 256.059 15.932 255.653 15.665 255.331 15.451 252.751 13.742 250.218 12.856 245.917 12.159 244.876 11.991 155.028 11.999 154 12.168M245.478 12.423C246.154 12.564 247.279 12.746 247.978 12.827 248.678 12.909 249.737 13.139 250.333 13.339 251.66 13.784 251.69 13.796 252 13.979 252.137 14.061 252.813 14.405 253.5 14.744 255.016 15.491 255.628 15.837 256.017 16.167 256.179 16.304 256.514 16.567 256.76 16.75 258.012 17.682 260.082 19.706 260.396 20.305 260.476 20.458 260.626 20.658 260.729 20.75 260.907 20.908 261.407 21.645 262.086 22.748 262.692 23.732 263.333 25.039 263.333 25.289 263.333 25.429 263.475 25.778 263.649 26.064 263.823 26.349 264.017 26.921 264.082 27.333 264.146 27.746 264.303 28.247 264.43 28.448 265.299 29.821 265.306 121.579 264.436 122.912 264.315 123.098 264.164 123.594 264.102 124.014 264.039 124.434 263.841 125.052 263.661 125.388 263.481 125.724 263.333 126.145 263.333 126.323 263.333 126.501 263.254 126.696 263.158 126.756 262.99 126.859 262.487 127.759 261.905 129 261.754 129.321 261.526 129.643 261.399 129.717 261.271 129.79 261.167 129.954 261.167 130.082 261.167 130.21 261.034 130.412 260.872 130.532 260.71 130.652 260.449 130.951 260.292 131.198 259.714 132.104 256.586 135 256.185 135 256.083 135 256 135.073 256 135.163 256 135.253 255.719 135.48 255.375 135.666 255.031 135.853 254.3 136.264 253.75 136.579 253.2 136.893 252.628 137.154 252.479 137.159 252.33 137.163 252.118 137.274 252.01 137.405 251.901 137.536 251.423 137.725 250.947 137.824 250.472 137.923 249.858 138.11 249.583 138.24 247.765 139.095 248.648 139.08 200.083 139.082 151.547 139.083 152.256 139.095 150.417 138.243 150.142 138.116 149.692 137.967 149.417 137.914 148.367 137.708 145.395 136.223 144.083 135.248 143.058 134.486 141.528 133.222 141.167 132.837 140.551 132.181 139.63 131.103 139.25 130.593 139.067 130.347 138.804 130.017 138.667 129.859 138.529 129.702 138.285 129.313 138.124 128.995 137.964 128.677 137.574 127.967 137.257 127.417 136.941 126.867 136.679 126.257 136.675 126.062 136.67 125.867 136.558 125.618 136.426 125.508 136.293 125.398 136.097 124.882 135.99 124.362 135.883 123.842 135.702 123.229 135.588 123 135.038 121.895 134.998 118.624 134.999 75.61 135 32.843 135.04 29.579 135.581 28.417 135.709 28.142 135.898 27.491 136 26.971 136.102 26.451 136.293 25.936 136.426 25.826 136.558 25.716 136.667 25.491 136.667 25.327 136.667 25.163 136.929 24.553 137.25 23.972 137.571 23.392 137.965 22.656 138.125 22.338 138.285 22.02 138.539 21.636 138.688 21.484 138.838 21.331 139.261 20.804 139.63 20.312 140.616 18.994 141.527 18.094 143.153 16.833 143.448 16.604 143.822 16.304 143.984 16.167 144.39 15.822 145.132 15.387 145.875 15.059 146.219 14.907 146.5 14.731 146.5 14.668 146.5 14.605 146.819 14.453 147.208 14.33 147.598 14.208 148.029 14.015 148.167 13.901 148.304 13.788 148.717 13.641 149.083 13.575 149.45 13.509 150.012 13.326 150.333 13.168 150.654 13.01 151.479 12.831 152.167 12.771 152.854 12.711 153.867 12.56 154.417 12.436 156.024 12.073 243.741 12.061 245.478 12.423M156.333 39.789C155.588 39.928 155.388 41.054 156 41.667 156.183 41.85 156.333 42.135 156.333 42.301 156.333 42.466 156.521 42.856 156.75 43.167 156.979 43.477 157.167 43.864 157.167 44.026 157.167 44.188 157.306 44.455 157.477 44.619 157.647 44.782 157.84 45.142 157.906 45.417 157.972 45.692 158.123 46.029 158.242 46.167 158.361 46.304 158.546 46.691 158.654 47.027 158.761 47.363 158.958 47.679 159.091 47.73 159.224 47.781 159.333 48.013 159.333 48.245 159.333 48.477 159.466 48.8 159.629 48.962 159.792 49.125 160.017 49.567 160.131 49.945 160.244 50.323 160.448 50.675 160.585 50.728 160.722 50.78 160.833 51.013 160.833 51.245 160.833 51.477 160.972 51.806 161.143 51.976 161.313 52.146 161.505 52.496 161.57 52.754 161.634 53.013 161.833 53.408 162.01 53.634 162.188 53.86 162.333 54.185 162.333 54.356 162.333 54.527 162.483 54.817 162.667 55 162.85 55.183 163 55.469 163 55.634 163 55.8 163.188 56.189 163.417 56.5 163.646 56.811 163.833 57.189 163.833 57.34 163.833 57.491 163.976 57.744 164.15 57.902 164.324 58.059 164.512 58.43 164.568 58.724 164.623 59.019 164.818 59.389 165.001 59.545 165.184 59.702 165.333 60.007 165.333 60.223 165.333 60.438 165.476 60.744 165.65 60.902 165.824 61.059 166.016 61.45 166.076 61.77 166.136 62.089 166.286 62.39 166.409 62.437 166.533 62.484 166.68 62.77 166.737 63.072 166.794 63.374 166.988 63.755 167.17 63.92 167.351 64.084 167.5 64.394 167.5 64.609 167.5 64.824 167.642 65.142 167.816 65.316 167.99 65.49 168.182 65.858 168.242 66.132 168.303 66.407 168.498 66.764 168.676 66.925 168.854 67.086 169 67.394 169 67.609 169 67.824 169.148 68.148 169.329 68.329 169.51 68.51 169.709 68.866 169.771 69.121 169.833 69.375 170.018 69.756 170.181 69.966 170.344 70.177 170.524 70.564 170.582 70.827 170.64 71.09 170.795 71.347 170.927 71.398 171.252 71.522 171.259 72.975 170.935 73.099 170.808 73.148 170.577 73.521 170.421 73.927 170.266 74.334 170.07 74.667 169.986 74.667 169.902 74.667 169.833 74.802 169.833 74.968 169.833 75.133 169.646 75.523 169.417 75.833 169.188 76.144 169 76.522 169 76.673 169 76.825 168.859 77.076 168.686 77.233 168.513 77.389 168.328 77.736 168.274 78.003 168.221 78.271 168.025 78.642 167.839 78.828 167.652 79.014 167.5 79.346 167.5 79.566 167.5 79.785 167.395 80.005 167.267 80.054 167.139 80.103 166.94 80.43 166.827 80.78 166.713 81.13 166.521 81.475 166.4 81.546 166.279 81.617 166.132 81.931 166.074 82.244 166.015 82.556 165.824 82.941 165.65 83.098 165.476 83.256 165.333 83.523 165.333 83.692 165.333 83.862 165.181 84.152 164.995 84.339 164.809 84.525 164.61 84.906 164.554 85.186 164.498 85.466 164.354 85.733 164.234 85.779 164.114 85.825 163.927 86.137 163.817 86.473 163.708 86.809 163.479 87.262 163.309 87.481 163.139 87.699 163 88.014 163 88.179 163 88.345 162.919 88.531 162.82 88.592 162.72 88.653 162.501 89.024 162.333 89.417 162.165 89.809 161.946 90.18 161.847 90.241 161.748 90.303 161.667 90.487 161.667 90.651 161.667 90.814 161.479 91.166 161.25 91.432 161.021 91.699 160.834 92.088 160.834 92.297 160.833 92.506 160.722 92.72 160.585 92.772 160.448 92.825 160.249 93.159 160.143 93.515 160.036 93.87 159.81 94.287 159.641 94.44 159.472 94.593 159.333 94.897 159.333 95.114 159.333 95.332 159.224 95.552 159.091 95.603 158.958 95.654 158.76 95.971 158.65 96.306 158.541 96.642 158.312 97.096 158.142 97.314 157.972 97.533 157.833 97.84 157.833 97.997 157.833 98.153 157.683 98.417 157.5 98.583 157.317 98.749 157.167 99.009 157.167 99.16 157.167 99.311 156.979 99.689 156.75 1e2 156.521 100.311 156.333 100.73 156.333 100.931 156.333 101.133 156.228 101.338 156.1 101.387 155.972 101.436 155.774 101.763 155.66 102.113 155.546 102.463 155.351 102.81 155.226 102.883 154.834 103.114 154.956 103.941 155.439 104.321 155.861 104.653 156.073 104.667 160.841 104.667H165.803L166.483 104.222C166.976 103.899 167.19 103.628 167.264 103.233 167.32 102.934 167.464 102.652 167.584 102.606 167.704 102.56 167.856 102.274 167.923 101.97 167.989 101.665 168.184 101.238 168.355 101.019 168.526 100.801 168.667 100.492 168.667 100.333 168.667 100.175 168.812 99.86 168.99 99.634 169.167 99.408 169.365 99.005 169.43 98.737 169.494 98.469 169.686 98.116 169.857 97.952 170.027 97.788 170.167 97.481 170.167 97.269 170.167 97.057 170.315 96.713 170.496 96.504 170.678 96.295 170.875 95.865 170.934 95.549 170.994 95.232 171.141 94.936 171.261 94.889 171.381 94.843 171.531 94.568 171.595 94.278 171.658 93.987 171.85 93.571 172.022 93.353 172.193 93.134 172.336 92.834 172.339 92.686 172.341 92.538 172.529 92.117 172.754 91.75 172.98 91.383 173.165 90.962 173.166 90.814 173.166 90.666 173.317 90.353 173.501 90.119 173.686 89.885 173.882 89.464 173.938 89.184 173.994 88.904 174.142 88.59 174.266 88.487 174.39 88.384 174.539 88.048 174.596 87.739 174.654 87.431 174.806 87.092 174.933 86.987 175.06 86.881 175.247 86.488 175.348 86.112 175.449 85.737 175.625 85.352 175.738 85.257 175.852 85.161 176.033 84.773 176.14 84.395 176.247 84.016 176.447 83.613 176.584 83.499 176.721 83.386 176.836 83.133 176.839 82.938 176.841 82.743 177.029 82.283 177.254 81.917 177.48 81.55 177.665 81.081 177.666 80.875 177.666 80.662 177.769 80.5 177.905 80.5 178.237 80.5 178.667 80.964 178.667 81.323 178.667 81.487 178.817 81.812 179 82.045 179.183 82.279 179.334 82.57 179.334 82.693 179.335 82.816 179.52 83.217 179.746 83.583 179.971 83.95 180.159 84.381 180.161 84.542 180.164 84.702 180.306 84.973 180.477 85.144 180.648 85.315 180.836 85.711 180.895 86.024 180.953 86.337 181.151 86.722 181.334 86.879 181.517 87.035 181.667 87.349 181.667 87.575 181.667 87.802 181.806 88.121 181.977 88.285 182.147 88.449 182.34 88.808 182.406 89.083 182.472 89.358 182.623 89.696 182.742 89.833 182.861 89.971 183.046 90.359 183.154 90.695 183.262 91.031 183.459 91.397 183.592 91.507 183.725 91.617 183.833 91.886 183.833 92.104 183.833 92.322 183.976 92.642 184.15 92.816 184.324 92.99 184.515 93.358 184.576 93.632 184.636 93.907 184.831 94.264 185.009 94.425 185.188 94.586 185.333 94.894 185.333 95.109 185.333 95.324 185.479 95.646 185.657 95.824 185.836 96.002 186.033 96.421 186.095 96.754 186.158 97.087 186.303 97.396 186.419 97.441 186.535 97.485 186.721 97.849 186.833 98.25 186.946 98.651 187.131 99.015 187.245 99.058 187.359 99.102 187.5 99.376 187.558 99.666 187.616 99.956 187.814 100.385 187.999 100.619 188.183 100.853 188.333 101.218 188.333 101.429 188.333 101.641 188.408 101.86 188.5 101.916 188.591 101.973 188.856 102.42 189.087 102.91 189.319 103.4 189.764 103.995 190.077 104.233L190.644 104.667H196.136 201.628L201.897 104.256C202.283 103.668 202.23 102.984 201.75 102.333 201.521 102.023 201.333 101.633 201.333 101.468 201.333 101.302 201.194 101.028 201.024 100.857 200.854 100.687 200.66 100.331 200.594 100.066 200.527 99.8 200.329 99.449 200.153 99.285 199.977 99.121 199.833 98.85 199.833 98.683 199.833 98.515 199.694 98.199 199.523 97.981 199.352 97.762 199.154 97.396 199.083 97.167 199.012 96.938 198.814 96.571 198.644 96.353 198.473 96.134 198.333 95.863 198.333 95.75 198.333 95.637 198.183 95.354 198 95.121 197.817 94.888 197.667 94.593 197.667 94.464 197.667 94.336 197.479 93.977 197.25 93.667 197.021 93.356 196.833 92.978 196.833 92.827 196.833 92.675 196.683 92.416 196.5 92.25 196.317 92.084 196.167 91.82 196.167 91.663 196.167 91.507 196.027 91.199 195.856 90.981 195.686 90.762 195.488 90.396 195.417 90.167 195.346 89.938 195.148 89.571 194.977 89.353 194.806 89.134 194.667 88.863 194.667 88.75 194.667 88.637 194.517 88.354 194.333 88.121 194.15 87.888 194 87.593 194 87.464 194 87.336 193.813 86.977 193.583 86.667 193.354 86.356 193.167 85.969 193.167 85.807 193.167 85.645 193.027 85.379 192.857 85.215 192.686 85.051 192.493 84.692 192.427 84.417 192.36 84.142 192.162 83.782 191.986 83.619 191.811 83.455 191.667 83.183 191.667 83.016 191.667 82.849 191.517 82.521 191.333 82.288 191.15 82.055 191 81.755 191 81.621 191 81.488 190.855 81.194 190.677 80.968 190.499 80.742 190.305 80.362 190.245 80.124 190.186 79.886 189.993 79.562 189.818 79.403 189.643 79.245 189.5 78.991 189.5 78.84 189.5 78.689 189.313 78.311 189.083 78 188.854 77.689 188.667 77.311 188.667 77.16 188.667 77.009 188.517 76.749 188.333 76.583 188.15 76.417 188 76.11 188 75.899 188 75.689 187.813 75.315 187.583 75.068 187.354 74.82 187.167 74.489 187.167 74.331 187.167 74.174 187.017 73.854 186.833 73.621 186.65 73.388 186.5 73.092 186.5 72.963 186.5 72.835 186.35 72.569 186.167 72.372 185.797 71.975 185.687 70.443 186.014 70.241 186.113 70.18 186.332 69.809 186.5 69.417 186.668 69.024 186.887 68.653 186.986 68.592 187.085 68.531 187.167 68.349 187.167 68.189 187.167 68.029 187.354 67.644 187.583 67.333 187.813 67.023 188 66.645 188 66.493 188 66.342 188.15 66.083 188.333 65.917 188.517 65.751 188.667 65.491 188.667 65.34 188.667 65.189 188.854 64.811 189.083 64.5 189.313 64.189 189.5 63.77 189.5 63.569 189.5 63.367 189.605 63.162 189.733 63.113 189.861 63.064 190.06 62.737 190.173 62.387 190.287 62.037 190.477 61.693 190.594 61.624 190.711 61.555 190.859 61.255 190.923 60.957 190.987 60.66 191.18 60.282 191.353 60.119 191.525 59.955 191.667 59.665 191.667 59.476 191.667 59.286 191.854 58.909 192.083 58.636 192.313 58.364 192.5 57.977 192.5 57.777 192.5 57.577 192.65 57.32 192.833 57.205 193.019 57.089 193.167 56.817 193.167 56.588 193.167 56.364 193.311 56.045 193.486 55.881 193.662 55.718 193.86 55.358 193.927 55.083 193.993 54.808 194.186 54.449 194.357 54.285 194.527 54.121 194.667 53.85 194.667 53.683 194.667 53.515 194.812 53.194 194.99 52.968 195.167 52.742 195.364 52.351 195.428 52.098 195.491 51.846 195.641 51.602 195.761 51.556 195.881 51.51 196.03 51.235 196.091 50.944 196.152 50.654 196.336 50.267 196.499 50.083 196.662 49.9 196.851 49.563 196.92 49.333 196.989 49.104 197.186 48.738 197.356 48.519 197.527 48.301 197.667 47.986 197.667 47.821 197.667 47.655 197.737 47.476 197.824 47.423 197.91 47.369 198.335 46.611 198.769 45.739 199.202 44.866 199.619 44.113 199.695 44.066 199.771 44.019 199.833 43.846 199.833 43.682 199.833 43.518 199.985 43.209 200.171 42.995 200.357 42.781 200.557 42.415 200.615 42.183 200.673 41.951 200.859 41.613 201.027 41.432 201.196 41.252 201.333 40.865 201.333 40.572 201.333 39.686 201.025 39.642 195.265 39.699L190.142 39.75 189.659 40.333C189.393 40.654 189.129 41.156 189.071 41.447 189.014 41.739 188.824 42.107 188.65 42.265 188.476 42.423 188.333 42.753 188.333 43 188.333 43.247 188.188 43.58 188.009 43.741 187.831 43.903 187.634 44.271 187.571 44.559 187.508 44.847 187.316 45.262 187.145 45.481 186.974 45.699 186.833 46.008 186.833 46.167 186.833 46.325 186.683 46.646 186.5 46.879 186.317 47.112 186.167 47.445 186.167 47.619 186.167 47.793 185.979 48.189 185.75 48.5 185.521 48.811 185.333 49.238 185.333 49.449 185.333 49.66 185.188 49.979 185.009 50.157 184.831 50.336 184.635 50.748 184.574 51.074 184.513 51.4 184.408 51.667 184.342 51.667 184.171 51.667 183.833 52.45 183.833 52.846 183.833 53.028 183.72 53.221 183.581 53.274 183.442 53.327 183.246 53.7 183.145 54.102 183.043 54.504 182.897 54.833 182.82 54.833 182.743 54.833 182.588 55.152 182.475 55.542 182.362 55.931 182.143 56.418 181.987 56.624 181.832 56.829 181.656 57.253 181.598 57.565 181.539 57.878 181.383 58.223 181.25 58.333 181.117 58.443 180.958 58.807 180.896 59.142 180.834 59.476 180.644 59.848 180.475 59.968 180.301 60.091 180.167 60.388 180.167 60.651 180.167 60.906 180.018 61.287 179.837 61.496 179.655 61.705 179.46 62.129 179.402 62.438 179.344 62.747 179.236 63 179.162 63 179.088 63 178.913 63.044 178.774 63.097 178.587 63.169 178.473 63.017 178.339 62.521 178.239 62.151 178.047 61.738 177.912 61.603 177.777 61.468 177.667 61.216 177.667 61.044 177.667 60.872 177.479 60.477 177.25 60.167 177.021 59.856 176.833 59.432 176.833 59.224 176.833 59.016 176.693 58.712 176.522 58.548 176.351 58.384 176.159 57.965 176.096 57.616 176.033 57.268 175.873 56.941 175.741 56.89 175.608 56.839 175.5 56.667 175.5 56.507 175.5 56.347 175.324 55.886 175.11 55.482 174.895 55.079 174.627 54.467 174.513 54.124 174.4 53.781 174.247 53.5 174.174 53.5 174.1 53.5 173.957 53.173 173.857 52.773 173.756 52.374 173.56 51.952 173.42 51.836 173.281 51.721 173.167 51.462 173.167 51.261 173.167 51.06 173.033 50.751 172.87 50.573 172.707 50.395 172.478 49.931 172.363 49.542 172.248 49.152 172.082 48.833 171.996 48.833 171.909 48.833 171.754 48.501 171.652 48.095 171.55 47.688 171.361 47.316 171.233 47.267 171.105 47.217 171 46.997 171 46.778 171 46.558 170.855 46.194 170.677 45.968 170.499 45.742 170.302 45.338 170.238 45.07 170.175 44.802 169.993 44.433 169.833 44.25 169.674 44.067 169.492 43.698 169.428 43.43 169.365 43.162 169.167 42.758 168.99 42.532 168.812 42.306 168.667 41.986 168.667 41.821 168.667 41.191 167.776 40.013 167.167 39.837 166.595 39.672 157.189 39.631 156.333 39.789M232.137 39.781C231.333 39.911 231.339 39.85 231.293 48.085L231.25 55.89 229.25 55.912C225.255 55.955 222 56.297 222 56.672 222 56.743 221.551 56.853 221.002 56.916 220.425 56.983 219.834 57.166 219.601 57.349 219.379 57.524 219.013 57.667 218.788 57.667 218.563 57.667 218.194 57.812 217.968 57.99 217.742 58.167 217.338 58.364 217.07 58.426 216.802 58.489 216.508 58.625 216.417 58.728 216.325 58.832 215.969 59.047 215.625 59.206 215.281 59.365 215 59.571 215 59.664 215 59.757 214.898 59.833 214.773 59.833 214.563 59.833 213.808 60.361 212.861 61.168 212.647 61.351 212.408 61.5 212.33 61.5 212.253 61.5 212.142 61.65 212.083 61.833 212.025 62.017 211.863 62.167 211.723 62.167 211.583 62.167 211.43 62.317 211.382 62.5 211.334 62.683 211.193 62.833 211.07 62.833 210.946 62.833 210.773 62.967 210.686 63.131 210.598 63.295 210.22 63.764 209.845 64.173 209.471 64.582 209.116 65.067 209.058 65.25 209 65.433 208.813 65.681 208.643 65.801 208.473 65.921 208.333 66.116 208.333 66.234 208.333 66.352 208.192 66.576 208.019 66.733 207.846 66.889 207.661 67.236 207.608 67.503 207.554 67.771 207.358 68.142 207.172 68.328 206.986 68.514 206.833 68.824 206.833 69.015 206.833 69.207 206.69 69.547 206.514 69.77 206.338 69.994 206.145 70.47 206.084 70.829 206.024 71.187 205.872 71.565 205.748 71.669 205.623 71.772 205.468 72.283 205.404 72.803 205.339 73.324 205.147 74.011 204.977 74.331 204.759 74.738 204.667 75.26 204.667 76.078 204.667 76.72 204.54 78.092 204.385 79.127 204.139 80.772 204.132 81.202 204.322 82.546 204.442 83.391 204.595 85 204.662 86.12 204.731 87.281 204.87 88.26 204.984 88.397 205.094 88.53 205.263 89.151 205.359 89.778 205.455 90.404 205.63 91.029 205.748 91.167 205.866 91.304 206.017 91.679 206.083 92 206.149 92.321 206.345 92.817 206.518 93.103 206.691 93.389 206.833 93.735 206.833 93.872 206.833 94.009 206.973 94.301 207.144 94.519 207.314 94.738 207.511 95.104 207.581 95.333 207.651 95.563 207.849 95.884 208.021 96.048 208.193 96.212 208.333 96.456 208.333 96.591 208.333 96.725 208.521 96.999 208.75 97.198 208.979 97.397 209.167 97.632 209.167 97.72 209.167 98.047 213.25 101.833 213.603 101.833 213.723 101.833 213.955 101.974 214.119 102.146 214.282 102.318 214.604 102.514 214.833 102.582 215.063 102.65 215.4 102.837 215.583 102.999 215.767 103.16 216.198 103.342 216.542 103.404 216.885 103.465 217.167 103.579 217.167 103.658 217.167 103.844 218.099 104.167 218.637 104.167 218.868 104.167 219.192 104.288 219.356 104.437 219.542 104.605 220.147 104.757 220.959 104.839 221.676 104.911 222.697 105.096 223.226 105.25 224.399 105.591 230.323 105.562 230.937 105.212 231.132 105.101 232.1 104.934 233.089 104.84 234.146 104.74 234.996 104.576 235.152 104.441 235.297 104.315 235.802 104.168 236.274 104.116 236.745 104.063 237.419 103.865 237.771 103.677 238.123 103.488 238.609 103.333 238.85 103.333 239.091 103.333 239.479 103.183 239.712 103 239.945 102.817 240.25 102.667 240.39 102.667 240.685 102.667 241.153 102.466 242.068 101.947L242.718 101.577 242.683 70.997C242.648 40.827 242.643 40.412 242.319 40.083 242.002 39.761 233.776 39.517 232.137 39.781M167.405 40.429C167.549 40.573 167.667 40.788 167.667 40.906 167.667 41.025 167.807 41.301 167.978 41.519 168.15 41.738 168.342 42.155 168.406 42.447 168.469 42.738 168.624 43.062 168.75 43.167 168.876 43.271 169.031 43.595 169.094 43.887 169.158 44.178 169.35 44.596 169.522 44.814 169.693 45.033 169.833 45.284 169.833 45.372 169.833 45.536 171.396 48.882 171.684 49.333 171.771 49.471 171.89 49.725 171.947 49.898 172.004 50.071 172.227 50.544 172.442 50.949 172.657 51.353 172.833 51.783 172.833 51.903 172.833 52.023 172.979 52.306 173.156 52.532 173.334 52.758 173.533 53.162 173.598 53.43 173.664 53.698 173.856 54.096 174.025 54.314 174.195 54.533 174.333 54.818 174.333 54.948 174.333 55.078 174.482 55.461 174.664 55.8 174.846 56.139 175.23 56.942 175.517 57.583 175.805 58.225 176.331 59.361 176.687 60.109 177.042 60.856 177.333 61.578 177.333 61.713 177.333 61.849 177.447 62.054 177.587 62.17 177.726 62.285 177.923 62.708 178.024 63.109 178.296 64.191 179.368 64.377 179.598 63.382 179.7 62.942 179.897 62.484 180.906 60.342 181.141 59.843 181.333 59.346 181.333 59.238 181.333 59.129 181.438 58.954 181.566 58.848 181.694 58.742 181.846 58.402 181.904 58.094 181.961 57.786 182.115 57.446 182.244 57.339 182.373 57.231 182.53 56.905 182.593 56.613 182.656 56.322 182.844 55.891 183.01 55.657 183.175 55.422 183.365 55.009 183.431 54.74 183.497 54.47 183.689 54.071 183.859 53.853 184.028 53.634 184.167 53.36 184.167 53.243 184.167 53.044 184.845 51.555 185.188 51 185.273 50.862 185.39 50.608 185.447 50.435 185.504 50.262 185.727 49.789 185.942 49.385 186.157 48.98 186.333 48.551 186.333 48.43 186.333 48.31 186.479 48.027 186.656 47.801 186.834 47.575 187.032 47.171 187.097 46.904 187.162 46.636 187.354 46.218 187.524 45.974 187.694 45.731 187.833 45.45 187.833 45.349 187.833 45.249 188.015 44.811 188.237 44.375 188.459 43.94 189.003 42.833 189.445 41.917L190.25 40.25 195.406 40.206C198.242 40.182 200.625 40.225 200.701 40.301 200.824 40.424 200.287 41.797 199.842 42.5 199.755 42.637 199.586 42.953 199.467 43.201 198.991 44.188 196.981 48.099 196.829 48.333 196.74 48.471 196.589 48.771 196.495 49 196.401 49.229 195.962 50.092 195.52 50.917 195.078 51.742 194.092 53.654 193.329 55.167 192.566 56.679 191.852 58.029 191.741 58.167 191.63 58.304 191.483 58.604 191.413 58.833 191.344 59.063 191.148 59.429 190.977 59.647 190.806 59.866 190.667 60.173 190.667 60.33 190.667 60.487 190.523 60.745 190.348 60.903 190.173 61.062 189.981 61.387 189.921 61.627 189.86 61.867 189.666 62.267 189.489 62.516 189.312 62.764 189.167 63.079 189.167 63.214 189.167 63.349 189.058 63.549 188.925 63.66 188.792 63.77 188.594 64.135 188.484 64.472 188.375 64.808 188.226 65.122 188.153 65.17 188.08 65.218 187.867 65.593 187.679 66.003 187.491 66.414 187.262 66.862 187.169 67 187.076 67.137 186.925 67.438 186.834 67.667 186.742 67.896 186.592 68.196 186.5 68.333 186.408 68.471 186.253 68.771 186.155 69 186.057 69.229 185.832 69.679 185.655 70 185.263 70.712 185.242 71.745 185.607 72.417 185.757 72.692 185.986 73.142 186.117 73.417 186.247 73.692 186.423 74.029 186.506 74.167 186.59 74.304 186.966 75.017 187.342 75.75 188.127 77.278 190.16 81.173 190.562 81.917 190.71 82.192 190.832 82.504 190.832 82.611 190.833 82.718 190.898 82.831 190.978 82.861 191.058 82.892 191.436 83.554 191.819 84.333 192.202 85.112 193.033 86.725 193.667 87.917 194.3 89.108 195.123 90.683 195.495 91.417 195.868 92.15 196.242 92.862 196.328 93 196.413 93.138 196.58 93.449 196.7 93.692 197.26 94.831 199.272 98.738 199.991 100.083 201.826 103.514 201.898 103.709 201.403 103.899 201.043 104.037 191.018 103.995 190.511 103.854 190.143 103.751 188.828 101.548 188.446 100.395 188.389 100.223 188.268 99.971 188.176 99.833 188.083 99.696 187.895 99.321 187.757 99 187.62 98.679 187.442 98.304 187.363 98.167 186.874 97.313 186.333 96.17 186.333 95.989 186.333 95.872 186.233 95.658 186.111 95.513 185.988 95.368 185.789 94.987 185.667 94.667 185.545 94.346 185.354 93.971 185.244 93.833 185.133 93.696 184.952 93.302 184.841 92.958 184.731 92.615 184.572 92.333 184.487 92.333 184.403 92.333 184.333 92.231 184.333 92.107 184.333 91.891 183.788 90.704 182.85 88.875 182.577 88.342 181.355 85.759 181.095 85.167 180.955 84.846 180.777 84.471 180.7 84.333 180.205 83.449 179.666 82.302 179.663 82.125 179.661 82.01 179.513 81.729 179.333 81.5 179.154 81.271 179.006 80.96 179.004 80.81 178.992 79.963 177.766 79.401 177.484 80.114 177.382 80.372 177.126 80.958 176.914 81.417 176.39 82.55 175.725 84.029 175.603 84.333 175.547 84.471 175.439 84.696 175.362 84.833 175.284 84.971 175.031 85.496 174.799 86 174.567 86.504 174.18 87.337 173.938 87.85 173.697 88.363 173.5 88.876 173.5 88.99 173.5 89.104 173.35 89.388 173.167 89.621 172.983 89.854 172.833 90.147 172.833 90.272 172.833 90.397 172.649 90.856 172.423 91.292 172.197 91.727 171.973 92.196 171.924 92.333 171.875 92.471 171.765 92.696 171.679 92.833 171.393 93.29 170.5 95.273 170.5 95.451 170.5 95.547 170.392 95.715 170.261 95.824 170.129 95.934 169.974 96.239 169.916 96.504 169.858 96.768 169.675 97.157 169.51 97.367 169.345 97.578 169.158 97.989 169.094 98.28 169.031 98.572 168.871 98.9 168.739 99.009 168.608 99.118 168.5 99.287 168.5 99.383 168.5 100.211 166.462 103.661 165.878 103.824 164.302 104.261 155.281 103.99 155.545 103.513 155.574 103.46 155.762 103.079 155.963 102.667 156.165 102.254 156.393 101.804 156.471 101.667 156.829 101.035 158.244 98.318 158.771 97.25 158.906 96.975 159.089 96.638 159.177 96.5 159.265 96.362 159.486 95.95 159.667 95.583 159.848 95.217 160.072 94.804 160.165 94.667 160.258 94.529 160.413 94.229 160.509 94 160.606 93.771 161.048 92.908 161.492 92.083 161.936 91.258 162.764 89.683 163.332 88.583 163.9 87.483 164.729 85.908 165.175 85.083 165.621 84.258 166.263 83.021 166.602 82.333 166.941 81.646 167.356 80.884 167.526 80.641 167.695 80.398 167.833 80.12 167.833 80.023 167.833 79.927 168.021 79.572 168.25 79.234 168.479 78.896 168.667 78.481 168.667 78.31 168.667 78.14 168.732 78 168.811 78 168.891 78 169.117 77.644 169.314 77.208 169.631 76.506 169.881 76.019 170.361 75.167 170.439 75.029 170.63 74.654 170.786 74.333 170.942 74.012 171.18 73.617 171.315 73.454 171.994 72.633 169.734 67.153 165.835 60.167 165.759 60.029 165.423 59.354 165.09 58.667 164.757 57.979 164.418 57.304 164.336 57.167 164.255 57.029 164.084 56.692 163.958 56.417 163.747 55.958 163.503 55.483 163.143 54.833 163.067 54.696 162.892 54.321 162.754 54 162.616 53.679 162.428 53.304 162.335 53.167 162.242 53.029 162.091 52.729 162 52.5 161.908 52.271 161.758 51.971 161.666 51.833 161.573 51.696 161.415 51.396 161.314 51.167 161.129 50.746 160.963 50.409 160.677 49.875 160.592 49.715 160.418 49.358 160.291 49.083 160.165 48.808 159.978 48.433 159.875 48.25 159.773 48.067 159.46 47.438 159.18 46.853 158.901 46.269 158.605 45.706 158.524 45.603 158.442 45.501 158.276 45.135 158.154 44.792 158.033 44.448 157.879 44.167 157.813 44.167 157.747 44.167 157.601 43.885 157.489 43.542 157.377 43.198 157.146 42.738 156.976 42.519 156.806 42.301 156.667 42.012 156.667 41.878 156.667 41.744 156.51 41.414 156.318 41.145 155.62 40.164 155.607 40.167 161.65 40.167 166.421 40.167 167.177 40.201 167.405 40.429M242.009 69.917C242.06 86.233 242.162 99.788 242.236 100.039 242.508 100.958 241.126 102.333 239.929 102.333 239.828 102.333 239.484 102.472 239.164 102.642 238.845 102.812 238.286 103.006 237.922 103.073 237.559 103.14 237.063 103.298 236.82 103.424 236.577 103.549 235.937 103.73 235.397 103.825 234.858 103.919 234.014 104.108 233.523 104.244 230.834 104.987 222.553 104.931 220.346 104.156 219.841 103.979 219.285 103.833 219.11 103.833 218.423 103.833 215.351 102.368 213.644 101.225 212.365 100.37 210.064 98.172 209.405 97.177 209.189 96.85 208.803 96.278 208.548 95.906 207.775 94.779 206.333 91.647 206.333 91.096 206.333 90.942 206.216 90.589 206.072 90.311 205.928 90.033 205.709 89.231 205.586 88.528 205.462 87.825 205.264 86.912 205.147 86.5 204.844 85.441 204.842 77.044 205.143 76 205.262 75.587 205.474 74.69 205.613 74.004 205.753 73.319 205.972 72.609 206.1 72.426 206.228 72.242 206.333 71.95 206.333 71.775 206.333 71.497 206.935 69.925 207.343 69.137 208.349 67.194 208.913 66.227 209.103 66.117 209.23 66.043 209.333 65.904 209.333 65.806 209.333 65.154 214.439 60.167 215.107 60.167 215.171 60.167 215.345 60.057 215.493 59.923 215.874 59.578 217.615 58.667 217.893 58.667 218.021 58.667 218.211 58.564 218.316 58.437 218.421 58.311 218.861 58.112 219.295 57.995 219.729 57.878 220.233 57.703 220.417 57.605 220.6 57.508 221.35 57.293 222.083 57.128 222.817 56.963 223.717 56.758 224.083 56.671 224.45 56.585 226.216 56.511 228.008 56.507 230.312 56.502 231.325 56.441 231.467 56.3 231.617 56.15 231.667 54.132 231.667 48.244 231.667 43.924 231.718 40.338 231.78 40.275 231.843 40.213 234.149 40.182 236.905 40.206L241.917 40.25 242.009 69.917M226.574 65.172C223.552 65.377 220.319 67.16 218.583 69.577 218.4 69.833 218.092 70.239 217.898 70.479 217.704 70.72 217.488 71.104 217.417 71.333 217.346 71.563 217.156 71.918 216.996 72.124 216.836 72.329 216.653 72.771 216.59 73.106 216.527 73.441 216.37 73.877 216.241 74.074 216.112 74.271 215.924 75.019 215.825 75.736 215.725 76.453 215.574 77.223 215.488 77.447 215.284 77.985 215.288 83.095 215.494 83.811 215.582 84.119 215.732 84.933 215.828 85.62 215.924 86.308 216.108 87.105 216.238 87.393 216.367 87.681 216.522 88.104 216.58 88.333 216.74 88.955 217.533 90.538 217.871 90.906 218.034 91.084 218.167 91.28 218.167 91.342 218.167 91.798 220.929 94.333 221.426 94.333 221.545 94.333 221.758 94.449 221.9 94.59 223.215 95.905 230.415 96.342 231.369 95.164 231.795 94.639 231.836 66.026 231.411 65.602 230.987 65.177 229.043 65.005 226.574 65.172M230.875 65.896 231.333 66.205V80.441C231.333 93.854 231.316 94.682 231.042 94.767 230.881 94.816 230.429 95.001 230.037 95.178 229.097 95.603 226.022 95.64 225.25 95.236 224.975 95.092 224.341 94.899 223.841 94.806 223.341 94.713 222.749 94.494 222.527 94.319 222.304 94.143 222.012 94 221.879 94 221.565 94 220.856 93.46 219.8 92.417 218.579 91.211 218.333 90.927 218.333 90.723 218.333 90.623 218.225 90.451 218.092 90.34 217.959 90.23 217.763 89.865 217.657 89.528 217.55 89.192 217.371 88.842 217.259 88.75 217.146 88.658 217.014 88.281 216.964 87.911 216.915 87.542 216.702 86.867 216.491 86.411 215.903 85.144 215.878 76.154 216.46 75.04 216.663 74.649 216.881 74.012 216.942 73.623 217.004 73.235 217.146 72.842 217.259 72.75 217.371 72.658 217.552 72.302 217.661 71.958 217.77 71.615 217.919 71.333 217.993 71.333 218.066 71.333 218.225 71.09 218.346 70.792 218.467 70.494 218.702 70.152 218.867 70.032 219.032 69.912 219.167 69.747 219.167 69.665 219.167 69.434 220.784 67.871 221.14 67.759 221.314 67.703 221.59 67.51 221.754 67.329 221.918 67.148 222.142 67 222.253 67 222.364 67 222.634 66.861 222.853 66.692 223.071 66.522 223.588 66.331 224 66.267 224.412 66.202 224.903 66.05 225.09 65.927 225.915 65.387 230.088 65.365 230.875 65.896" stroke="none" fill="#7f2a65" fill-rule="evenodd"/><path id="path4" d="M256.407 7.35C256.26 7.588 256.535 7.851 256.775 7.701 256.911 7.616 256.901 7.526 256.74 7.377 256.585 7.233 256.484 7.225 256.407 7.35M153.417 11.842C152.867 11.915 152.117 12.089 151.75 12.23 151.383 12.37 150.821 12.489 150.5 12.493 150.179 12.498 149.69 12.639 149.413 12.808 149.136 12.977 148.638 13.166 148.305 13.229 147.972 13.291 147.616 13.444 147.513 13.568 147.41 13.692 147.096 13.839 146.816 13.895 146.536 13.951 146.115 14.148 145.881 14.332 145.647 14.516 145.364 14.667 145.253 14.667 145.142 14.667 144.916 14.817 144.75 15 144.584 15.183 144.359 15.333 144.25 15.333 144.141 15.333 143.834 15.521 143.568 15.75 143.301 15.979 143.037 16.166 142.98 16.166 142.923 16.167 142.489 16.542 142.016 17 141.543 17.458 141.083 17.833 140.995 17.833 140.906 17.833 140.833 17.895 140.833 17.97 140.833 18.045 140.411 18.551 139.895 19.095 139.052 19.983 138.428 20.796 137.902 21.689 137.802 21.859 137.605 22.129 137.463 22.291 137.322 22.452 137.149 22.771 137.08 23 137.011 23.229 136.814 23.596 136.644 23.814 136.473 24.033 136.333 24.389 136.333 24.606 136.333 24.823 136.27 25 136.193 25 136.017 25 135.667 25.755 135.667 26.135 135.667 26.293 135.526 26.684 135.354 27.004 135.183 27.325 134.986 28.074 134.918 28.669 134.85 29.263 134.672 30.05 134.522 30.417 134.104 31.442 134.104 119.891 134.522 120.917 134.672 121.283 134.847 122.071 134.913 122.667 134.978 123.263 135.136 123.914 135.263 124.114 135.39 124.315 135.574 124.839 135.673 125.278 135.772 125.718 135.952 126.192 136.074 126.331 136.196 126.47 136.349 126.832 136.414 127.136 136.479 127.44 136.63 127.727 136.751 127.773 136.871 127.82 137.02 128.058 137.081 128.304 137.142 128.549 137.327 128.9 137.493 129.083 137.659 129.267 137.846 129.585 137.909 129.792 137.971 129.998 138.09 130.167 138.174 130.167 138.257 130.167 138.437 130.383 138.573 130.647 138.71 130.911 139.105 131.434 139.452 131.81 139.799 132.186 140.308 132.756 140.583 133.078 140.858 133.399 141.215 133.706 141.375 133.759 141.535 133.812 141.667 133.963 141.667 134.095 141.667 134.226 141.735 134.333 141.819 134.333 141.903 134.333 142.147 134.483 142.361 134.665 143.254 135.427 144.058 136 144.233 136 144.336 136 144.508 136.141 144.615 136.312 144.722 136.484 145.016 136.676 145.267 136.739 145.518 136.802 145.908 136.999 146.134 137.177 146.36 137.355 146.654 137.5 146.788 137.5 146.921 137.5 147.221 137.65 147.455 137.833 147.688 138.017 148.038 138.167 148.233 138.167 148.429 138.167 148.85 138.307 149.171 138.479 149.491 138.651 150.165 138.847 150.668 138.915 151.172 138.983 151.808 139.162 152.083 139.311 152.857 139.732 247.15 139.73 247.917 139.309 248.192 139.158 248.867 138.98 249.417 138.914 249.967 138.848 250.53 138.694 250.669 138.573 250.808 138.452 251.245 138.28 251.639 138.191 252.034 138.103 252.483 137.921 252.637 137.787 252.791 137.654 253.118 137.497 253.363 137.439 253.609 137.381 253.919 137.224 254.052 137.091 254.184 136.958 254.495 136.799 254.742 136.737 254.988 136.675 255.278 136.484 255.385 136.312 255.492 136.141 255.669 136 255.777 136 255.886 136 256.197 135.813 256.47 135.583 256.742 135.354 257.026 135.167 257.102 135.167 257.251 135.167 257.303 135.118 259.25 133.169 260.859 131.559 261.034 131.36 261.43 130.69 261.6 130.402 261.792 130.167 261.858 130.167 261.924 130.167 262.03 129.998 262.095 129.792 262.159 129.585 262.39 129.205 262.606 128.946 262.823 128.686 263 128.368 263 128.237 263 128.107 263.15 127.85 263.333 127.667 263.517 127.483 263.667 127.18 263.667 126.993 263.667 126.806 263.81 126.45 263.984 126.202 264.159 125.953 264.352 125.45 264.413 125.083 264.475 124.717 264.628 124.256 264.755 124.059 264.882 123.862 265.062 123.092 265.155 122.347 265.248 121.603 265.42 120.827 265.537 120.622 265.836 120.1 265.853 31.429 265.554 30.91 265.447 30.722 265.273 29.935 265.168 29.16 265.063 28.384 264.881 27.6 264.764 27.417 264.646 27.233 264.495 26.783 264.428 26.417 264.36 26.05 264.162 25.516 263.986 25.23 263.81 24.945 263.667 24.598 263.667 24.461 263.667 24.324 263.527 24.033 263.356 23.814 263.186 23.596 262.989 23.229 262.92 23 262.851 22.771 262.678 22.452 262.537 22.291 262.395 22.129 262.198 21.859 262.098 21.689 261.453 20.594 259.901 18.686 259.042 17.932 258.927 17.832 258.447 17.394 257.975 16.958 257.503 16.523 257.072 16.167 257.017 16.166 256.962 16.166 256.699 15.979 256.432 15.75 256.166 15.521 255.847 15.333 255.724 15.333 255.601 15.333 255.5 15.267 255.5 15.185 255.5 15.103 255.181 14.875 254.792 14.676 254.402 14.478 253.896 14.208 253.667 14.077 253.438 13.946 253.119 13.837 252.958 13.836 252.798 13.834 252.667 13.761 252.667 13.673 252.667 13.585 252.301 13.404 251.855 13.272 251.408 13.139 250.827 12.922 250.563 12.789 250.299 12.656 249.694 12.503 249.217 12.449 248.741 12.395 248.103 12.216 247.801 12.051 247.208 11.727 155.805 11.525 153.417 11.842M245.917 12.159C250.218 12.856 252.751 13.742 255.331 15.451 255.653 15.665 256.059 15.932 256.233 16.045 257.375 16.785 259.69 18.941 260.48 20 260.719 20.321 260.954 20.621 261.003 20.667 261.381 21.024 262.401 22.746 263.077 24.167 263.403 24.854 263.782 25.629 263.919 25.889 264.055 26.148 264.167 26.469 264.167 26.601 264.167 26.733 264.317 27.268 264.5 27.789 265.339 30.177 265.333 29.85 265.333 75.633 265.333 120.707 265.335 120.585 264.547 123.417 263.957 125.536 262.856 128.112 262.226 128.846 262.102 128.991 262 129.168 262 129.239 262 129.31 261.831 129.58 261.625 129.839 261.419 130.098 261.063 130.586 260.833 130.922 259.651 132.656 255.809 135.961 254.167 136.656 253.938 136.753 253.637 136.902 253.5 136.988 252.572 137.564 249.679 138.597 248.542 138.758 248.106 138.82 247.3 138.973 246.75 139.099 245.243 139.444 154.676 139.446 153.327 139.101 152.826 138.973 152.004 138.815 151.5 138.751 150.996 138.686 150.255 138.491 149.854 138.317 149.453 138.143 149.01 138 148.87 138 148.652 138 147.276 137.41 146.5 136.984 143.622 135.403 140.687 133.046 139.457 131.327 138.108 129.443 137.702 128.825 137.327 128.083 137.142 127.717 136.926 127.304 136.848 127.167 136.034 125.727 135.249 123.084 134.918 120.667 134.57 118.12 134.618 32.352 134.969 30.083 135.96 23.679 140.552 17.353 146.25 14.543 146.617 14.362 147.179 14.082 147.5 13.922 148.838 13.252 151.074 12.648 154 12.168 155.028 11.999 244.876 11.991 245.917 12.159M129.009 23.15C128.867 23.415 128.889 23.454 129.142 23.388 129.308 23.345 129.444 23.202 129.444 23.071 129.444 22.734 129.209 22.777 129.009 23.15M270.5 23.064C270.5 23.191 270.649 23.333 270.83 23.381 271.112 23.454 271.136 23.42 270.991 23.15 270.794 22.781 270.5 22.73 270.5 23.064M128.234 26.195C127.934 26.537 127.934 26.55 128.222 26.445 128.39 26.384 128.596 26.333 128.68 26.333 128.764 26.333 128.833 26.221 128.833 26.083 128.833 25.73 128.605 25.773 128.234 26.195M271.167 26.083C271.167 26.221 271.236 26.333 271.32 26.333 271.404 26.333 271.61 26.384 271.778 26.445 272.066 26.55 272.066 26.537 271.766 26.195 271.395 25.773 271.167 25.73 271.167 26.083M128.27 125.189C128.603 125.557 128.833 125.59 128.833 125.269 128.833 125.143 128.643 125.003 128.411 124.958 128.008 124.881 128.001 124.892 128.27 125.189M271.458 124.948C271.298 124.99 271.167 125.131 271.167 125.262 271.167 125.596 271.396 125.558 271.75 125.167 272.051 124.834 272.01 124.804 271.458 124.948M129.038 128.198C129.141 128.507 129.5 128.558 129.5 128.264 129.5 128.119 129.381 128 129.236 128 129.091 128 129.002 128.089 129.038 128.198M270.5 128.264C270.5 128.558 270.859 128.507 270.962 128.198 270.998 128.089 270.909 128 270.764 128 270.619 128 270.5 128.119 270.5 128.264M143.225 143.632C143.089 143.717 143.099 143.807 143.26 143.957 143.415 144.101 143.516 144.109 143.593 143.984 143.74 143.746 143.465 143.482 143.225 143.632M256.433 143.64C256.272 143.9 256.577 144.137 256.784 143.913 256.942 143.743 256.934 143.677 256.748 143.606 256.617 143.556 256.476 143.571 256.433 143.64" stroke="none" fill="#a6187c" fill-rule="evenodd"/></g></svg>