<?xml version="1.0" standalone="no"?>
<!DOCTYPE svg PUBLIC "-//W3C//DTD SVG 20010904//EN"
 "http://www.w3.org/TR/2001/REC-SVG-20010904/DTD/svg10.dtd">
<svg version="1.0" xmlns="http://www.w3.org/2000/svg"
 width="1280.000000pt" height="1280.000000pt" viewBox="0 0 1280.000000 1280.000000"
 preserveAspectRatio="xMidYMid meet">

<g transform="translate(0.000000,1280.000000) scale(0.100000,-0.100000)"
fill="#000000" stroke="none">
<path d="M5334 12194 c19 -183 23 -211 30 -223 5 -7 15 -72 22 -145 7 -72 18
-156 23 -186 5 -30 12 -75 16 -100 4 -25 10 -56 15 -70 4 -14 13 -52 20 -85
12 -61 37 -150 71 -259 28 -89 25 -104 -28 -149 -21 -19 -126 -47 -198 -53
-22 -2 -110 -7 -195 -10 l-155 -6 -105 46 c-147 63 -289 141 -395 214 -49 35
-113 79 -141 97 -125 83 -296 229 -471 403 -82 82 -140 132 -150 130 -9 -2
-22 -21 -29 -43 -7 -22 -31 -98 -53 -170 -51 -164 -67 -249 -82 -433 -8 -110
-8 -175 1 -257 6 -60 13 -128 15 -150 2 -22 6 -62 10 -90 6 -49 6 -51 -37 -91
-30 -29 -62 -47 -108 -62 -89 -27 -275 -95 -330 -120 -25 -11 -74 -31 -110
-45 -296 -114 -875 -410 -902 -460 -8 -16 -9 -113 -4 -352 7 -355 16 -479 41
-620 17 -89 24 -138 44 -310 11 -91 25 -164 42 -221 5 -17 9 -42 9 -57 0 -14
5 -38 11 -54 6 -15 17 -59 25 -98 35 -165 47 -214 74 -310 31 -115 39 -141 50
-177 5 -18 16 -58 24 -88 8 -30 28 -93 44 -140 17 -47 33 -102 37 -123 3 -20
21 -74 39 -120 19 -45 53 -134 76 -197 185 -498 471 -1070 784 -1570 86 -136
206 -317 256 -385 28 -37 107 -150 139 -199 8 -11 30 -40 49 -64 38 -48 37
-70 -5 -98 -23 -15 -42 -16 -147 -10 -67 3 -215 11 -331 16 -195 10 -538 37
-750 60 -49 5 -184 14 -300 19 -274 13 -708 48 -765 62 -25 6 -97 13 -160 16
-63 2 -124 5 -135 6 -20 2 -20 -5 -23 -1152 -1 -635 1 -1158 5 -1162 7 -7 84
3 558 76 94 14 220 33 280 41 144 19 559 72 610 78 46 5 136 17 355 45 85 11
214 25 285 31 148 13 319 32 550 59 88 11 250 25 360 31 110 6 270 17 355 25
85 8 179 15 208 15 29 0 62 5 72 10 10 6 180 15 380 21 l361 11 37 -26 c20
-14 73 -53 117 -86 44 -33 122 -90 173 -127 52 -38 110 -81 129 -98 20 -16 51
-39 68 -50 18 -11 71 -46 117 -77 50 -34 96 -58 111 -58 26 0 204 113 296 188
25 21 60 46 76 57 17 10 81 57 143 104 62 47 139 105 170 128 l57 41 275 -6
c553 -12 755 -18 770 -24 8 -4 119 -12 245 -18 127 -6 309 -18 405 -26 96 -8
186 -12 199 -9 12 3 37 1 55 -4 17 -5 78 -12 136 -15 159 -7 261 -16 305 -27
22 -5 85 -13 140 -18 413 -39 624 -66 1055 -137 161 -26 204 -34 430 -78 74
-15 185 -36 245 -47 61 -12 113 -21 117 -22 4 -1 8 518 8 1153 l0 1155 -72 -3
c-40 -2 -86 -7 -103 -12 -57 -16 -2101 -149 -2306 -150 -108 0 -117 1 -137 23
-12 13 -22 26 -22 29 0 3 47 68 103 145 147 196 359 514 471 708 32 55 69 116
81 135 12 19 31 53 42 75 11 22 37 69 57 105 53 90 274 535 323 650 56 130
167 402 193 475 111 308 178 511 200 605 4 19 20 76 34 125 27 94 40 140 55
203 5 20 14 55 19 77 25 100 44 184 52 230 5 28 14 75 20 105 11 58 35 212 49
315 4 34 13 70 18 80 6 11 13 52 17 90 27 289 38 478 43 722 l6 282 -55 34
c-115 74 -338 192 -518 274 -410 187 -771 324 -1105 417 -33 10 -94 28 -135
41 -123 38 -303 83 -545 135 -55 12 -127 28 -161 36 -33 8 -74 14 -91 14 -18
0 -44 5 -60 11 -37 14 -283 55 -408 68 -303 31 -303 31 -358 88 -41 43 -67 88
-102 179 -13 34 -35 83 -49 110 -14 27 -26 53 -26 58 0 6 -15 44 -34 86 -66
146 -95 215 -110 257 -8 23 -32 77 -53 120 l-38 78 -5 -417 -5 -417 -30 -31
-30 -32 -79 6 -79 7 -89 77 c-115 99 -436 418 -507 502 -30 36 -86 99 -125
141 -39 41 -98 108 -131 148 -33 40 -93 110 -134 154 -40 45 -98 112 -127 149
-74 92 -78 93 -70 22z m-1744 -1977 c0 -32 -3 -35 -47 -50 -184 -60 -646 -272
-862 -396 l-95 -54 -75 9 c-41 5 -76 14 -78 20 -5 15 65 53 307 165 107 50
213 100 236 110 22 10 43 19 47 19 3 0 30 11 59 24 122 55 468 184 496 185 7
1 12 -12 12 -32z m6596 -764 c-20 -233 -87 -693 -131 -903 -24 -116 -73 -329
-90 -392 -8 -32 -21 -82 -29 -110 -28 -106 -48 -175 -76 -258 -15 -47 -38
-116 -50 -155 -63 -206 -272 -726 -360 -895 -16 -30 -40 -80 -54 -110 -68
-145 -192 -371 -291 -525 -17 -27 -56 -90 -85 -140 -30 -49 -70 -112 -89 -139
-20 -27 -45 -64 -56 -82 -26 -42 -169 -241 -230 -320 -16 -22 -52 -64 -80 -94
-29 -30 -54 -62 -57 -70 -3 -8 -8 -12 -12 -9 -3 3 5 21 19 40 213 289 434 631
575 894 18 33 41 74 51 90 9 17 44 84 77 150 144 290 211 439 307 690 15 39
42 109 61 157 18 47 38 104 43 125 5 21 21 70 35 108 33 88 134 427 161 545 7
30 23 96 35 145 37 152 77 353 100 505 12 80 28 186 35 235 8 50 19 155 25
235 7 80 15 181 18 225 l7 80 55 27 c90 44 94 42 86 -49z m-1428 -468 c62
-149 181 -520 203 -635 19 -99 21 -136 16 -265 -7 -165 -23 -243 -96 -457
-121 -353 -132 -715 -30 -1021 16 -49 29 -93 29 -100 0 -16 -201 -217 -217
-217 -14 0 -67 79 -98 145 -143 309 -97 931 105 1430 l32 80 -6 150 c-6 148
-31 312 -62 410 -22 68 -36 101 -128 300 -43 93 -79 179 -80 189 -1 17 16 23
134 47 74 15 142 26 150 26 8 -1 29 -37 48 -82z m-4852 -345 c23 -25 64 -76
92 -113 55 -72 54 -66 31 -157 -16 -69 -31 -257 -27 -360 3 -84 8 -115 27
-155 50 -105 103 -285 140 -475 87 -445 55 -816 -91 -1042 -16 -27 -35 -48
-41 -48 -18 0 -217 203 -217 221 0 8 11 48 25 88 81 240 93 511 35 800 -12 58
-48 186 -81 285 -71 219 -83 299 -76 506 6 159 15 211 74 395 43 133 40 132
109 55z m3503 -15 c32 -72 118 -206 285 -447 91 -130 110 -193 117 -378 l3
-65 -50 2 c-268 12 -605 14 -772 4 -225 -14 -298 -23 -430 -57 -128 -32 -252
-32 -387 0 -146 35 -217 44 -443 57 -190 11 -379 9 -669 -7 -131 -8 -125 -13
-89 92 84 241 191 394 346 493 89 57 295 166 399 211 72 31 75 32 177 25 l104
-7 -18 -32 c-10 -17 -70 -76 -133 -131 -63 -55 -169 -147 -234 -205 -65 -58
-158 -139 -206 -180 -98 -84 -110 -106 -51 -96 20 4 80 13 132 21 52 7 147 25
210 40 63 14 158 35 210 46 228 49 282 63 396 99 387 123 753 323 1004 549 25
22 50 40 55 41 6 0 25 -34 44 -75z m1109 -848 c13 -13 10 -28 -21 -124 -87
-266 -115 -412 -124 -648 -7 -221 20 -420 81 -594 9 -24 16 -45 16 -48 0 -14
-77 -34 -109 -28 -62 11 -96 59 -125 171 -75 293 -58 732 40 1039 28 86 93
213 122 235 31 25 93 23 120 -3z m-4167 -184 c62 -109 119 -210 127 -226 37
-75 61 -398 43 -592 -19 -199 -58 -363 -98 -407 -26 -29 -76 -41 -123 -28 -40
11 -42 13 -37 43 3 18 17 72 31 122 44 153 59 295 52 500 -8 241 -37 402 -112
618 -51 145 -49 138 -29 153 11 8 22 14 26 14 4 0 58 -89 120 -197z m1409 -69
c248 -31 290 -45 290 -96 0 -36 -11 -74 -96 -331 -62 -188 -94 -253 -136 -281
-37 -24 -142 -36 -313 -36 -263 0 -434 29 -508 85 -47 36 -43 25 -77 206 -14
74 -23 271 -16 342 7 60 11 69 35 82 93 48 543 64 821 29z m1770 11 c96 -8
197 -20 223 -26 77 -18 80 -28 74 -237 -5 -154 -14 -233 -43 -355 -7 -28 -23
-38 -144 -90 -83 -34 -152 -42 -400 -42 -280 0 -302 4 -353 68 -57 70 -154
331 -191 507 -13 63 -13 78 -2 95 22 34 116 54 341 75 231 21 296 22 495 5z
m-3830 -86 c0 -6 9 -72 21 -146 31 -204 30 -522 -1 -573 -8 -13 -11 -13 -24 0
-37 37 -64 356 -47 551 7 71 16 141 21 154 10 25 30 35 30 14z m2766 -151 c38
-26 47 -45 158 -323 96 -241 123 -281 220 -326 76 -35 165 -49 326 -49 254 1
514 34 650 85 90 33 91 33 84 -16 -24 -172 -80 -280 -225 -433 -130 -137 -244
-220 -669 -483 -201 -124 -387 -182 -635 -198 -162 -10 -336 28 -509 110 -79
38 -402 236 -544 334 -188 130 -365 307 -418 419 -50 106 -91 292 -64 292 5 0
31 -9 58 -19 96 -38 339 -70 587 -78 270 -8 385 15 481 100 54 47 79 97 184
362 49 122 78 181 102 208 34 36 36 37 108 37 60 0 80 -4 106 -22z m-786
-1763 c7 -8 17 -15 22 -15 5 0 55 -33 111 -73 452 -324 606 -397 764 -358 61
15 166 86 220 150 43 50 153 222 153 239 0 5 7 15 15 22 13 11 15 -23 15 -294
l0 -306 -37 -23 c-183 -113 -377 -167 -628 -174 -147 -5 -169 -3 -265 20 -127
31 -222 66 -310 113 -110 60 -100 26 -100 359 0 346 4 383 40 340z m-200 -626
c0 -6 -9 -24 -21 -41 -23 -31 -19 -49 6 -28 12 10 16 8 24 -12 5 -14 24 -37
43 -52 18 -14 38 -31 45 -36 7 -6 25 -16 40 -22 15 -7 39 -24 52 -38 l25 -25
-48 -3 c-37 -2 -51 1 -61 15 -10 14 -16 15 -28 5 -11 -10 -65 -12 -211 -9
l-196 3 -35 34 c-48 47 -46 72 8 95 75 31 88 35 106 35 10 0 24 7 31 15 7 8
20 15 29 15 9 0 45 14 81 30 67 31 110 38 110 19z m-901 -433 l36 -36 5 -434
c5 -395 7 -436 23 -453 37 -42 11 -115 -55 -149 -35 -18 -78 -11 -104 17 -22
24 -25 24 -103 -8 -132 -53 -266 -31 -345 58 -76 84 -81 102 -81 314 0 220 6
245 74 318 66 72 115 91 231 92 l95 1 5 123 5 122 43 41 c41 38 47 40 89 35
35 -4 54 -13 82 -41z m5186 3 l45 -42 0 -217 c0 -119 3 -219 6 -223 4 -3 52
41 108 99 93 96 104 104 138 104 29 0 47 -8 78 -36 22 -20 43 -47 46 -59 7
-28 -15 -71 -56 -110 -18 -16 -59 -60 -92 -97 l-59 -67 115 -152 c100 -130
116 -156 116 -188 0 -29 -7 -44 -36 -72 -29 -28 -43 -34 -79 -34 -55 0 -86 28
-191 173 -42 56 -79 102 -85 102 -5 0 -9 -43 -9 -95 l0 -96 -39 -42 c-36 -38
-44 -42 -87 -42 -44 0 -49 3 -95 54 l-49 55 0 461 0 462 54 52 c72 67 106 69
171 10z m-6810 0 c74 -27 165 -111 165 -152 0 -35 -52 -93 -96 -107 -33 -11
-41 -9 -97 21 -53 28 -72 33 -134 34 -83 0 -120 -20 -140 -76 -17 -48 -16
-462 1 -508 20 -56 56 -76 137 -76 60 0 78 5 132 34 76 41 102 38 159 -18 54
-55 52 -82 -15 -147 -41 -39 -70 -56 -118 -72 -270 -89 -512 34 -558 283 -6
32 -11 147 -11 254 0 284 22 365 123 458 53 49 88 68 159 88 74 21 215 14 293
-16z m2014 16 c49 -25 81 -72 81 -117 0 -35 -6 -47 -39 -78 -67 -64 -134 -59
-199 14 -39 44 -42 90 -10 131 47 60 111 79 167 50z m2821 -11 c40 -13 71 -34
113 -74 69 -68 73 -92 22 -149 -50 -55 -79 -58 -170 -14 -67 31 -82 35 -135
31 -128 -9 -142 -45 -138 -353 3 -201 5 -223 24 -255 25 -43 78 -63 151 -58
79 7 84 15 81 122 l-3 90 -44 8 c-63 11 -121 68 -121 118 0 29 8 44 41 75 l40
40 122 0 c112 0 125 -2 155 -23 58 -42 62 -61 62 -271 0 -104 -4 -201 -10
-215 -56 -148 -342 -220 -538 -136 -80 35 -165 131 -192 217 -26 84 -37 336
-22 494 13 139 36 190 117 269 93 89 159 112 305 105 47 -2 110 -11 140 -21z
m-1067 -293 c20 -22 37 -49 37 -60 0 -11 -20 -42 -43 -69 l-44 -49 -6 -97 c-8
-147 -56 -230 -165 -285 -46 -23 -151 -44 -203 -39 -21 2 -40 -1 -41 -7 -2 -6
46 -15 113 -21 76 -8 133 -19 165 -33 58 -26 131 -93 150 -138 18 -42 18 -121
0 -164 -87 -206 -453 -265 -627 -102 -59 55 -81 100 -81 169 -1 56 12 85 60
137 25 26 25 30 14 72 -17 66 -15 115 8 153 l21 34 -32 36 c-17 19 -38 50 -45
68 -17 41 -18 153 -2 207 17 58 116 161 176 184 68 26 199 24 272 -5 l54 -22
26 24 c72 68 133 70 193 7z m-3039 -14 c66 -31 120 -77 154 -136 26 -45 27
-51 30 -223 4 -215 -5 -253 -77 -327 -58 -60 -108 -86 -192 -101 -162 -30
-313 32 -387 159 -26 45 -27 51 -30 230 -3 156 -1 191 14 229 19 51 79 121
129 152 89 55 258 63 359 17z m4860 11 c53 -17 140 -98 161 -151 20 -47 23
-157 7 -199 -18 -43 -79 -104 -130 -128 -35 -17 -73 -24 -152 -29 -82 -5 -105
-9 -108 -21 -10 -55 90 -76 195 -41 89 30 118 28 159 -13 50 -50 48 -91 -10
-144 -58 -53 -131 -76 -251 -76 -115 -1 -177 20 -245 81 -91 81 -95 97 -95
328 0 186 2 203 22 240 21 41 92 113 131 134 75 40 224 49 316 19z m736 -3
c56 -20 126 -86 153 -145 22 -50 27 -156 9 -202 -18 -43 -79 -104 -130 -128
-35 -17 -73 -24 -152 -29 -82 -5 -105 -9 -108 -21 -10 -55 90 -76 195 -41 89
30 118 28 159 -13 50 -50 48 -91 -10 -144 -58 -53 -131 -76 -251 -76 -115 -1
-177 20 -245 81 -91 81 -95 97 -95 328 0 186 2 203 22 240 21 41 92 113 131
134 78 42 230 50 322 16z m-4279 -24 l39 -39 0 -326 0 -327 -39 -42 c-36 -38
-44 -42 -86 -42 -42 0 -50 4 -86 43 l-40 42 3 331 3 331 37 34 c32 28 45 34
84 34 41 0 51 -5 85 -39z m708 10 c63 -33 108 -77 138 -139 l28 -57 3 -252 3
-251 -36 -40 c-20 -23 -49 -44 -66 -47 -38 -9 -90 9 -120 41 -24 25 -24 29
-29 269 -5 221 -7 245 -24 264 -21 23 -76 28 -120 11 l-26 -10 0 -249 0 -249
-25 -31 c-30 -35 -83 -55 -124 -46 -17 3 -46 24 -65 46 l-36 39 0 263 c0 216
-3 267 -15 283 -26 35 -19 86 18 122 44 43 90 51 127 23 36 -26 34 -26 88 1
25 11 59 25 76 29 51 13 160 2 205 -20z"/>
<path d="M6447 6465 l-98 -32 -82 23 c-93 27 -127 30 -127 10 0 -19 134 -143
176 -164 33 -15 37 -15 72 3 52 28 182 154 182 176 0 24 -6 24 -123 -16z"/>
<path d="M5390 4876 c0 -2 9 -6 20 -9 11 -3 20 -1 20 4 0 5 -9 9 -20 9 -11 0
-20 -2 -20 -4z"/>
<path d="M5320 4845 c0 -9 5 -15 11 -13 6 2 11 8 11 13 0 5 -5 11 -11 13 -6 2
-11 -4 -11 -13z"/>
<path d="M5127 4774 c-11 -14 -17 -28 -14 -30 5 -6 57 40 57 50 0 15 -27 3
-43 -20z"/>
<path d="M4219 3963 c-11 -12 -14 -55 -14 -175 0 -148 1 -161 20 -175 13 -10
34 -13 62 -10 72 8 73 9 73 191 0 113 -4 166 -12 174 -19 19 -113 15 -129 -5z"/>
<path d="M6293 3993 c-35 -7 -53 -41 -53 -98 0 -67 15 -86 73 -92 73 -8 94 11
102 93 6 50 4 69 -6 79 -15 16 -82 26 -116 18z"/>
<path d="M6237 3343 c-4 -3 -7 -21 -7 -40 0 -41 25 -53 108 -53 72 0 106 17
110 53 3 21 -2 29 -23 37 -29 11 -178 14 -188 3z"/>
<path d="M3483 3983 c-45 -9 -53 -37 -53 -188 0 -159 7 -179 64 -188 46 -7
103 9 116 33 5 10 10 81 10 158 0 119 -3 143 -17 161 -18 21 -78 33 -120 24z"/>
<path d="M8340 3980 c-15 -15 -20 -31 -18 -58 l3 -37 62 -3 c57 -3 63 -1 79
23 13 20 15 33 8 58 -9 30 -13 32 -61 35 -42 2 -56 -1 -73 -18z"/>
<path d="M9076 3987 c-13 -10 -19 -27 -20 -58 l-1 -44 62 -3 c57 -3 63 -1 79
23 13 20 15 33 8 58 -9 30 -13 32 -59 35 -31 2 -57 -2 -69 -11z"/>
</g>
</svg>
